<svg width="165" height="55" viewBox="0 0 165 55" fill="none" xmlns="http://www.w3.org/2000/svg">
<g id="&#227;&#130;&#162;&#227;&#131;&#188;&#227;&#131;&#136;&#227;&#131;&#175;&#227;&#131;&#188;&#227;&#130;&#175; 7">
<g id="Group 23067">
<g id="Group 23065">
<g id="Group 23064">
<path id="Path 33558" d="M76.201 15.557C76.2243 16.5126 76.0015 17.4583 75.554 18.303C75.1391 19.0644 74.558 19.7227 73.854 20.229C73.1126 20.7507 72.2839 21.1358 71.407 21.366C70.4708 21.6192 69.5049 21.7463 68.535 21.744C67.5688 21.7456 66.6037 21.6788 65.647 21.544C64.6897 21.4061 63.7499 21.1657 62.844 20.827L63 17.891C63.8023 18.3475 64.6702 18.6777 65.573 18.87C66.4841 19.0617 67.4129 19.1572 68.344 19.155C68.8969 19.1569 69.448 19.0935 69.986 18.966C70.4843 18.8518 70.9559 18.6427 71.375 18.35C71.7753 18.0657 72.1048 17.693 72.338 17.261C72.5932 16.7636 72.7181 16.2097 72.701 15.651C72.7074 15.2325 72.592 14.8211 72.369 14.467C72.1317 14.1026 71.8329 13.7822 71.486 13.52C71.1016 13.226 70.6951 12.9622 70.27 12.731C69.828 12.489 69.386 12.2626 68.944 12.052L66.798 10.979C66.2468 10.7155 65.7143 10.4149 65.204 10.079C64.7271 9.7695 64.2922 9.39978 63.91 8.97898C63.5396 8.56583 63.2457 8.09008 63.042 7.57398C62.8224 6.99975 62.7151 6.38868 62.726 5.77398C62.6991 4.84606 62.9423 3.93032 63.426 3.13798C63.8848 2.41597 64.4999 1.80628 65.226 1.35398C65.9815 0.882863 66.8102 0.540851 67.678 0.341978C68.568 0.133583 69.4789 0.0278928 70.393 0.0269784C71.19 0.0267356 71.9861 0.0795189 72.776 0.184978C73.5619 0.289496 74.3378 0.458397 75.096 0.689978L74.906 3.46798C74.224 3.1434 73.4984 2.91973 72.752 2.80398C72.0086 2.68098 71.2565 2.61778 70.503 2.61498C69.9874 2.61564 69.473 2.66317 68.966 2.75698C68.4728 2.8432 67.9967 3.00832 67.556 3.24598C67.1462 3.4667 66.7935 3.78001 66.526 4.16098C66.2456 4.59192 66.1059 5.09925 66.126 5.61298C66.118 5.98562 66.2169 6.35275 66.411 6.67098C66.6085 6.98597 66.8541 7.26806 67.139 7.50698C67.454 7.77319 67.7994 8.00112 68.168 8.18598C68.558 8.38598 68.9433 8.58065 69.324 8.76998L71.573 9.84298C72.1853 10.1274 72.7825 10.4435 73.362 10.79C73.9052 11.1145 74.4006 11.513 74.834 11.974C75.2864 12.4514 75.6396 13.0138 75.8732 13.6287C76.1068 14.2435 76.2162 14.8986 76.195 15.556L76.201 15.557Z" fill="#142A4D"/>
<path id="Path 33559" d="M98.155 21.3959L96.136 15.8729H86.382L84.299 21.3979H80.953L89.159 0.341919H93.484L101.754 21.3959H98.155ZM91.274 2.80392L87.23 13.3789H95.279L91.274 2.80392Z" fill="#142A4D"/>
<path id="Path 33560" d="M109.328 21.3959V0.341919H112.737V18.5549H121.48V21.3959H109.328Z" fill="#142A4D"/>
<path id="Path 33561" d="M129.624 21.3959V0.341919H141.745V2.89992H133.032V9.39992H141.332V11.8939H133.032V18.8379H142.06V21.3959H129.624Z" fill="#142A4D"/>
<path id="Path 33562" d="M164 15.557C164.024 16.5127 163.801 17.4584 163.353 18.303C162.938 19.0644 162.357 19.7227 161.653 20.229C160.912 20.7509 160.083 21.136 159.206 21.366C158.269 21.6193 157.303 21.7464 156.333 21.744C155.367 21.7456 154.402 21.6788 153.445 21.544C152.491 21.4073 151.554 21.1689 150.651 20.833L150.807 17.897C151.609 18.3535 152.477 18.6837 153.38 18.876C154.288 19.0667 155.214 19.1619 156.142 19.16C156.695 19.1619 157.246 19.0985 157.784 18.971C158.282 18.857 158.754 18.6478 159.173 18.355C159.573 18.0707 159.903 17.698 160.136 17.266C160.391 16.7686 160.516 16.2147 160.499 15.656C160.506 15.2374 160.39 14.826 160.167 14.472C159.93 14.1075 159.631 13.787 159.284 13.525C158.9 13.231 158.494 12.9672 158.069 12.736C157.627 12.494 157.185 12.2676 156.743 12.057L154.597 10.984C154.046 10.7205 153.513 10.4199 153.003 10.084C152.526 9.77433 152.091 9.40463 151.709 8.98398C151.339 8.57084 151.045 8.09509 150.841 7.57898C150.621 7.00475 150.514 6.39368 150.525 5.77898C150.499 4.85111 150.742 3.93548 151.225 3.14298C151.684 2.42094 152.299 1.81125 153.025 1.35898C153.784 0.887558 154.616 0.546193 155.487 0.348978C156.373 0.139059 157.28 0.031026 158.191 0.0269784C158.988 0.0267356 159.784 0.0795189 160.574 0.184978C161.36 0.289429 162.136 0.458332 162.894 0.689978L162.705 3.46798C162.023 3.14343 161.297 2.91976 160.55 2.80398C159.807 2.68098 159.054 2.61778 158.301 2.61498C157.785 2.61571 157.271 2.66324 156.764 2.75698C156.271 2.84342 155.795 3.00853 155.354 3.24598C154.944 3.46659 154.592 3.77993 154.325 4.16098C154.044 4.59178 153.904 5.09921 153.925 5.61298C153.917 5.98562 154.016 6.35275 154.21 6.67098C154.408 6.98568 154.653 7.26771 154.938 7.50698C155.253 7.77338 155.599 8.00132 155.968 8.18598C156.358 8.38598 156.743 8.58065 157.123 8.76998L159.372 9.84298C159.984 10.1274 160.581 10.4435 161.161 10.79C161.704 11.1144 162.2 11.5129 162.633 11.974C163.085 12.4514 163.439 13.0138 163.672 13.6287C163.906 14.2435 164.015 14.8986 163.994 15.556L164 15.557Z" fill="#142A4D"/>
<path id="Path 33563" d="M76.2 47.954C76.2235 48.9097 76.0007 49.8553 75.553 50.7C75.1381 51.4614 74.557 52.1197 73.853 52.626C73.1119 53.1481 72.2831 53.5328 71.406 53.762C70.4699 54.0163 69.504 54.1438 68.534 54.141C67.5678 54.1427 66.6027 54.0758 65.646 53.941C64.6919 53.8048 63.7552 53.5664 62.852 53.23L63.004 50.286C63.8062 50.7421 64.6736 51.0723 65.576 51.265C66.4862 51.4568 67.4139 51.553 68.344 51.552C68.8966 51.5539 69.4475 51.4902 69.985 51.362C70.4834 51.2486 70.9551 51.0398 71.374 50.747C71.7746 50.463 72.1041 50.0903 72.337 49.658C72.5927 49.1604 72.718 48.6061 72.701 48.047C72.7075 47.6288 72.5921 47.2177 72.369 46.864C72.132 46.4996 71.8332 46.1795 71.486 45.918C71.1021 45.6239 70.6959 45.3601 70.271 45.129C69.829 44.887 69.387 44.6606 68.945 44.45L66.794 43.377C66.2427 43.1138 65.7101 42.8131 65.2 42.477C64.7228 42.1679 64.2879 41.7982 63.906 41.377C63.5362 40.9653 63.2423 40.4913 63.038 39.977C62.7771 39.2542 62.6759 38.4835 62.7414 37.7179C62.8068 36.9523 63.0373 36.21 63.417 35.542C63.8753 34.8198 64.4905 34.2104 65.217 33.759C65.975 33.2869 66.8069 32.9455 67.678 32.749C68.568 32.5403 69.4789 32.4343 70.393 32.433C71.1896 32.4331 71.9853 32.4859 72.775 32.591C73.5609 32.6954 74.3368 32.8643 75.095 33.096L74.906 35.873C74.2235 35.549 73.4976 35.3257 72.751 35.21C72.0075 35.0873 71.2555 35.0241 70.502 35.021C69.9865 35.0217 69.4721 35.0689 68.965 35.162C68.4718 35.2489 67.9958 35.4143 67.555 35.652C67.1453 35.8729 66.7927 36.1862 66.525 36.567C66.2447 36.998 66.1049 37.5053 66.125 38.019C66.1171 38.3913 66.216 38.7581 66.41 39.076C66.608 39.3909 66.8536 39.6732 67.138 39.913C67.4539 40.1784 67.7995 40.4063 68.168 40.592C68.558 40.792 68.943 40.9863 69.323 41.175L71.572 42.248C72.1843 42.5324 72.7815 42.8485 73.361 43.195C73.9039 43.5195 74.3993 43.9176 74.833 44.378C75.2852 44.8557 75.6383 45.4184 75.8719 46.0333C76.1055 46.6483 76.215 47.3035 76.194 47.961L76.2 47.954Z" fill="#142A4D"/>
<path id="Path 33564" d="M97.436 53.225C96.6372 53.5795 95.7921 53.8189 94.926 53.936C94.0536 54.0659 93.173 54.1327 92.291 54.136C90.7342 54.157 89.1856 53.9062 87.715 53.395C86.4048 52.9458 85.2096 52.2139 84.214 51.2511C83.2183 50.2884 82.4468 49.1183 81.954 47.824C81.4006 46.3736 81.1291 44.831 81.154 43.279C81.1371 41.7713 81.4213 40.2754 81.99 38.879C82.5189 37.5851 83.3086 36.4141 84.31 35.439C85.321 34.4677 86.518 33.7108 87.829 33.214C89.2556 32.6752 90.7701 32.4073 92.295 32.424C93.1613 32.4286 94.0263 32.4921 94.884 32.614C95.7344 32.7223 96.5704 32.9235 97.377 33.214L97.187 35.992C96.4858 35.6819 95.7493 35.4589 94.994 35.328C94.2288 35.1853 93.4523 35.1117 92.674 35.108C91.5344 35.0886 90.4024 35.2977 89.345 35.723C88.4061 36.1044 87.5608 36.6843 86.867 37.423C86.1788 38.1729 85.6474 39.0528 85.304 40.011C84.9278 41.0586 84.7409 42.1648 84.752 43.278C84.7381 44.4093 84.9143 45.5349 85.273 46.608C85.5916 47.5658 86.1108 48.4447 86.796 49.186C87.4869 49.9137 88.3267 50.484 89.258 50.858C90.3227 51.2759 91.4594 51.4798 92.603 51.458C93.4016 51.4595 94.1988 51.3926 94.986 51.258C95.7668 51.1233 96.5259 50.8841 97.243 50.547L97.436 53.225Z" fill="#142A4D"/>
<path id="Path 33565" d="M123.344 43.286C123.356 44.7358 123.144 46.1786 122.713 47.563C122.323 48.8202 121.69 49.9889 120.851 51.003C120.012 51.9927 118.96 52.7791 117.773 53.303C116.424 53.8839 114.966 54.1689 113.497 54.139C112.019 54.1711 110.551 53.8913 109.188 53.318C108.002 52.8048 106.95 52.0277 106.11 51.046C105.268 50.0364 104.64 48.866 104.264 47.606C103.843 46.2035 103.635 44.7454 103.649 43.281C103.637 41.8415 103.85 40.4089 104.28 39.035C104.671 37.7744 105.309 36.6045 106.158 35.594C107.002 34.6055 108.053 33.8139 109.236 33.275C110.577 32.6818 112.031 32.3906 113.497 32.422C114.975 32.3901 116.443 32.6698 117.805 33.243C118.99 33.7567 120.043 34.5341 120.882 35.516C121.725 36.5252 122.353 37.6957 122.728 38.956C123.15 40.36 123.358 41.8199 123.344 43.286ZM119.744 43.286C119.744 42.2928 119.633 41.3027 119.413 40.334C119.208 39.3958 118.846 38.4993 118.34 37.683C117.854 36.9021 117.195 36.2432 116.414 35.757C115.531 35.2382 114.519 34.9812 113.495 35.016C112.479 34.9832 111.475 35.2462 110.606 35.773C109.827 36.2679 109.169 36.9316 108.681 37.715C108.175 38.5328 107.807 39.4285 107.592 40.366C107.13 42.2853 107.13 44.2868 107.592 46.206C107.808 47.1462 108.181 48.0429 108.697 48.858C109.194 49.6391 109.857 50.3017 110.638 50.799C111.497 51.3234 112.489 51.5867 113.495 51.557C114.519 51.5918 115.531 51.3348 116.414 50.816C117.195 50.3296 117.854 49.6708 118.34 48.89C118.845 48.0732 119.208 47.1764 119.413 46.238C119.633 45.2694 119.744 44.2793 119.745 43.286H119.744Z" fill="#142A4D"/>
<path id="Path 33566" d="M140.721 53.793L138.133 47.26C137.956 46.8058 137.751 46.363 137.519 45.934C137.346 45.6083 137.112 45.319 136.829 45.082C136.539 44.8588 136.201 44.7073 135.841 44.64C135.355 44.5483 134.861 44.5061 134.366 44.514H132.672V53.794H129.263V32.741H136.271C137.132 32.7383 137.99 32.839 138.827 33.041C139.605 33.2222 140.343 33.5435 141.006 33.989C141.642 34.4271 142.161 35.0129 142.521 35.696C142.921 36.4947 143.116 37.3802 143.089 38.273C143.099 38.9044 142.979 39.531 142.734 40.1132C142.49 40.6954 142.127 41.2204 141.669 41.655C141.214 42.0852 140.692 42.4376 140.123 42.698C139.532 42.9731 138.905 43.1646 138.261 43.267C139.001 43.3726 139.688 43.7154 140.217 44.244C140.705 44.8021 141.089 45.4424 141.353 46.135L144.478 53.794L140.721 53.793ZM139.585 38.532C139.608 37.9538 139.478 37.3798 139.208 36.868C138.969 36.4467 138.622 36.0964 138.203 35.853C137.746 35.5976 137.245 35.4307 136.726 35.361C136.133 35.2744 135.534 35.2319 134.935 35.234H132.673V42.021H134.809C135.383 42.0202 135.956 41.9673 136.521 41.863C137.065 41.7692 137.587 41.5753 138.061 41.291C138.506 41.0214 138.882 40.6524 139.161 40.213C139.461 39.705 139.608 39.1214 139.585 38.532Z" fill="#142A4D"/>
<path id="Path 33567" d="M151.005 53.793V32.741H163.126V35.297H154.414V41.797H162.714V44.291H154.414V51.235H163.441V53.791L151.005 53.793Z" fill="#142A4D"/>
</g>
</g>
<g id="Group 23066">
<path id="Path 33571" d="M41.779 4.82503L27.647 15.245L52.754 33.838C54.2162 28.4615 53.9476 22.761 51.9863 17.5458C50.025 12.3306 46.4707 7.86568 41.828 4.78503L41.777 4.82203L41.779 4.82503Z" fill="#1788DD"/>
<path id="Path 33572" d="M41.831 4.78502C41.785 4.75402 41.731 4.72802 41.688 4.69702L41.78 4.82202L41.831 4.78502Z" fill="#E73E8F"/>
<path id="Path 33573" d="M40.904 4.218C36.2137 1.36713 30.7525 0.0464905 25.2778 0.439268C19.8031 0.832045 14.5863 2.91877 10.351 6.41L15.997 22.581L40.904 4.218Z" fill="#E73E8F"/>
<path id="Path 33574" d="M29.351 53.29C34.5938 52.8578 39.5896 50.876 43.703 47.5967C47.8164 44.3173 50.8615 39.8887 52.451 34.874L38.932 24.851L29.351 53.29Z" fill="#E3E100"/>
<path id="Path 33575" d="M2.94299 37.598C5.02056 42.2933 8.41735 46.2839 12.7205 49.0847C17.0236 51.8856 22.0476 53.3761 27.182 53.375C27.5447 53.375 27.9057 53.3674 28.265 53.352L33.581 37.577L2.94299 37.598Z" fill="#00AA9F"/>
<path id="Path 33576" d="M9.53298 7.11804C5.49016 10.7241 2.65078 15.4835 1.39797 20.754C0.145159 26.0245 0.539222 31.5525 2.52698 36.592L19.68 36.539L9.53298 7.11804Z" fill="#0000D4"/>
<path id="Path 33577" d="M20.158 37.5439L20.169 37.5769H20.269L20.369 37.5439H20.158Z" fill="white"/>
<path id="Path 33578" d="M20.178 37.609L20.269 37.577H20.169L20.178 37.609Z" fill="white"/>
<path id="Path 33579" d="M38.918 24.8409L29.3 53.2949H29.351L38.932 24.8599L38.918 24.8409Z" fill="white"/>
<path id="Path 33580" d="M2.93298 37.577L2.94298 37.598L9.69298 37.577H2.93298Z" fill="white"/>
<path id="Path 33581" d="M38.932 24.851L39.001 24.651L38.983 24.642L38.916 24.842L38.932 24.851Z" fill="white"/>
</g>
</g>
</g>
</svg>
