<svg width="22" height="26" viewBox="0 0 22 26" fill="none" xmlns="http://www.w3.org/2000/svg">
<g id="icon">
<g id="Clip path group">
<mask id="mask0_1_330" style="mask-type:luminance" maskUnits="userSpaceOnUse" x="0" y="17" width="22" height="9">
<g id="clip-path-5">
<path id="Rectangle 6936" d="M21.244 17H0V25.531H21.244V17Z" fill="white"/>
</g>
</mask>
<g mask="url(#mask0_1_330)">
<g id="Group 47688">
<path id="Path 100970" d="M21.244 25.318C21.244 20.724 16.488 17 10.622 17C4.756 17 0 20.724 0 25.318C0 25.39 0.011 25.46 0.013 25.532H21.23C21.23 25.46 21.244 25.39 21.244 25.318Z" fill="#2C9DBC"/>
</g>
</g>
</g>
<path id="Ellipse 2389" d="M10 14C13.866 14 17 10.866 17 7C17 3.13401 13.866 0 10 0C6.13401 0 3 3.13401 3 7C3 10.866 6.13401 14 10 14Z" fill="#42A7C2"/>
</g>
</svg>
