<svg width="30" height="30" viewBox="0 0 30 30" fill="none" xmlns="http://www.w3.org/2000/svg">
<g id="icon">
<g id="Clip path group">
<mask id="mask0_1_362" style="mask-type:luminance" maskUnits="userSpaceOnUse" x="0" y="0" width="30" height="30">
<g id="clip-path-7">
<path id="Rectangle 6807" d="M29.218 0.276978H0V29.498H29.218V0.276978Z" fill="white"/>
</g>
</mask>
<g mask="url(#mask0_1_362)">
<g id="Group 47495">
<path id="Path 100243" d="M28.55 25.5969L21.719 18.7669C23.3631 16.3182 24.0367 13.3451 23.6084 10.4269C23.1802 7.5087 21.6809 4.85444 19.4026 2.98131C17.1243 1.10818 14.2302 0.150356 11.2843 0.29446C8.33834 0.438564 5.55157 1.67428 3.46696 3.76082C1.38235 5.84737 0.149223 8.63529 0.00785431 11.5814C-0.133514 14.5274 0.827001 17.4206 2.70225 19.6972C4.57749 21.9737 7.23313 23.4706 10.1517 23.8961C13.0703 24.3216 16.0428 23.6453 18.49 21.9989L25.321 28.8299C25.7497 29.2581 26.331 29.4985 26.9369 29.4981C27.5428 29.4977 28.1238 29.2567 28.552 28.8279C28.9802 28.3992 29.2205 27.8179 29.2202 27.212C29.2198 26.6061 28.9787 26.0251 28.55 25.5969ZM4.514 12.1469C4.514 10.7031 4.94214 9.29174 5.74428 8.09126C6.54641 6.89079 7.68651 5.95513 9.02041 5.40261C10.3543 4.85009 11.8221 4.70552 13.2382 4.9872C14.6542 5.26887 15.955 5.96412 16.9759 6.98505C17.9968 8.00597 18.6921 9.30671 18.9737 10.7228C19.2554 12.1388 19.1108 13.6066 18.5583 14.9405C18.0058 16.2744 17.0701 17.4145 15.8697 18.2167C14.6692 19.0188 13.2578 19.4469 11.814 19.4469C9.87898 19.4435 8.02419 18.6733 6.65592 17.305C5.28765 15.9367 4.51744 14.082 4.514 12.1469Z" fill="#42A7C2"/>
</g>
</g>
</g>
</g>
</svg>
