<svg width="42" height="32" viewBox="0 0 42 32" fill="none" xmlns="http://www.w3.org/2000/svg">
<g id="icon">
<g id="Clip path group">
<mask id="mask0_1_369" style="mask-type:luminance" maskUnits="userSpaceOnUse" x="0" y="0" width="42" height="32">
<g id="clip-path-8">
<path id="Rectangle 6938" d="M41.345 0.276978H0V31.841H41.345V0.276978Z" fill="white"/>
</g>
</mask>
<g mask="url(#mask0_1_369)">
<g id="Group 47691">
<path id="Path 100973" d="M41.139 0.276978H0.206C0.151446 0.27724 0.0992021 0.299028 0.0606265 0.337604C0.0220508 0.37618 0.000262913 0.428424 0 0.482978L0 25.283C0.000262913 25.3375 0.0220508 25.3898 0.0606265 25.4284C0.0992021 25.4669 0.151446 25.4887 0.206 25.489H17.615L25.909 31.839V25.489H41.139C41.1936 25.4887 41.2458 25.4669 41.2844 25.4284C41.3229 25.3898 41.3447 25.3375 41.345 25.283V0.482978C41.3447 0.428424 41.3229 0.37618 41.2844 0.337604C41.2458 0.299028 41.1936 0.27724 41.139 0.276978ZM7.29 8.49298H25.709V11.217H7.29V8.49298ZM34.708 16.702H7.289V13.977H34.708V16.702Z" fill="#00A0BA"/>
</g>
</g>
</g>
</g>
</svg>
