<svg width="108" height="57" viewBox="0 0 108 57" fill="none" xmlns="http://www.w3.org/2000/svg">
<g id="Group 47553">
<g id="Rectangle 6929">
<path id="Vector" d="M107 0H0V56H107V0Z" fill="white"/>
<path id="Vector_2" d="M106.5 0.5H0.5V55.5H106.5V0.5Z" stroke="#E1E8EF"/>
</g>
<path id="Line 1979" d="M0.5 28.5H107.5" stroke="#E1E8EF" stroke-dasharray="1 1"/>
<path id="Line 1980" d="M0.5 13.5H107.5" stroke="#E1E8EF" stroke-dasharray="1 1"/>
<path id="Line 1981" d="M0.5 42.5H107.5" stroke="#E1E8EF" stroke-dasharray="1 1"/>
<path id="Line 1983" d="M70.5 56.5V0.5" stroke="#E1E8EF" stroke-dasharray="1 1"/>
<path id="Line 1984" d="M89.5 56.5V0.5" stroke="#E1E8EF" stroke-dasharray="1 1"/>
<path id="Line 1985" d="M16.5 56.5V0.5" stroke="#E1E8EF" stroke-dasharray="1 1"/>
<path id="Line 1986" d="M35.5 56.5V0.5" stroke="#E1E8EF" stroke-dasharray="1 1"/>
<path id="Line 1982" d="M53.5 56.5V0.5" stroke="#E1E8EF" stroke-dasharray="1 1"/>
<path id="Rectangle 6876" d="M13.721 17.867H8.65701V28.628H13.721V17.867Z" fill="#E4E04A"/>
<path id="Rectangle 6878" d="M21.318 28.627H16.254V35.352H21.318V28.627Z" fill="#AADEF0"/>
<path id="Rectangle 6879" d="M27.876 12.655H22.812V28.627H27.876V12.655Z" fill="#E4E04A"/>
<path id="Rectangle 6880" d="M35.203 7.10599H30.139V28.627H35.203V7.10599Z" fill="#E4E04A"/>
<path id="Rectangle 6881" d="M42.14 28.627H37.076V46.894H42.14V28.627Z" fill="#AADEF0"/>
<path id="Rectangle 6882" d="M92.22 28.587H87.156V45.073H92.22V28.587Z" fill="#AADEF0"/>
<path id="Rectangle 6883" d="M55.842 20.641H51.158V28.628H55.842V20.641Z" fill="#E4E04A"/>
<path id="Rectangle 6884" d="M63.271 24.634H58.587V28.627H63.271V24.634Z" fill="#E4E04A"/>
<path id="Rectangle 6885" d="M70.7 28.627H65.636V37.296H70.7V28.627Z" fill="#AADEF0"/>
<path id="Rectangle 6886" d="M77.731 19.999H72.667V28.668H77.731V19.999Z" fill="#AADEF0"/>
<path id="Rectangle 6887" d="M85.207 29.073H80.143V39.297H85.207V29.073Z" fill="#E4E04A"/>
<path id="Rectangle 6888" d="M48.961 8.914H43.897V28.181H48.961V8.914Z" fill="#E4E04A"/>
<path id="Rectangle 6889" d="M97.682 17.511H92.618V28.182H97.682V17.511Z" fill="#E4E04A"/>
<path id="Line 1978" d="M5.88101 28.627H101.105" stroke="#AFAFAF" stroke-miterlimit="10"/>
</g>
</svg>
