<svg width="113" height="43" viewBox="0 0 113 43" fill="none" xmlns="http://www.w3.org/2000/svg">
<g id="Group 47547">
<g id="Group 47628">
<path id="Rectangle 6862" d="M112.731 0.710999H0.730999V6.053H112.731V0.710999Z" fill="#419EB7"/>
<path id="Rectangle 6863" d="M112.731 7.24298H0.730999V14.859H112.731V7.24298Z" fill="white"/>
<path id="Path 100512" d="M7.881 9.598C7.66491 9.82727 7.47968 10.0838 7.33 10.361C6.79074 11.2307 6.45409 12.2105 6.345 13.228H5.508C5.62717 12.5186 5.84284 11.8289 6.149 11.178C6.40393 10.6339 6.71424 10.1175 7.075 9.637H5.435C5.20309 9.63344 4.97121 9.64581 4.741 9.674V8.974C4.98196 9.00184 5.22446 9.01419 5.467 9.011H7.155C7.3973 9.01737 7.63977 9.00868 7.881 8.985V9.598Z" fill="#777777"/>
<path id="Path 100513" d="M8.875 10.725C8.7028 10.5331 8.61019 10.2828 8.616 10.025C8.616 9.34698 9.189 8.91798 10.095 8.91798C10.3491 8.8909 10.6059 8.92978 10.8406 9.03084C11.0753 9.13191 11.28 9.29176 11.435 9.49498C11.529 9.65574 11.5784 9.83872 11.578 10.025C11.5854 10.253 11.5134 10.4765 11.3742 10.6573C11.235 10.8381 11.0373 10.9649 10.815 11.016C11.0779 11.0453 11.3204 11.1719 11.4948 11.3707C11.6693 11.5696 11.7631 11.8265 11.758 12.091C11.758 12.88 11.164 13.315 10.078 13.315C9.83767 13.3369 9.59539 13.3107 9.36532 13.2379C9.13524 13.1651 8.92198 13.0471 8.738 12.891C8.63664 12.7857 8.55729 12.6612 8.50458 12.5249C8.45186 12.3885 8.42685 12.2431 8.431 12.097C8.42353 11.9272 8.45946 11.7583 8.5354 11.6062C8.61133 11.4542 8.72477 11.324 8.865 11.228C9.01923 11.114 9.19988 11.0411 9.39 11.016C9.19371 10.9712 9.01494 10.8697 8.876 10.724M11.011 12.039C11.011 11.599 10.667 11.339 10.095 11.339C9.523 11.339 9.172 11.609 9.172 12.048C9.172 12.487 9.512 12.737 10.084 12.737C10.677 12.737 11.01 12.488 11.01 12.044M9.326 10.105C9.326 10.491 9.626 10.735 10.104 10.735C10.582 10.735 10.862 10.497 10.862 10.111C10.862 9.72498 10.562 9.49598 10.095 9.49598C9.628 9.49598 9.327 9.73398 9.327 10.106" fill="#777777"/>
<path id="Rectangle 6864" d="M104.727 9.85901H17.299V11.167H104.727V9.85901Z" fill="#E73E8F"/>
<path id="Path 100514" d="M52.817 10.513C52.817 10.8197 52.726 11.1196 52.5556 11.3747C52.3852 11.6297 52.1429 11.8285 51.8595 11.9459C51.5761 12.0633 51.2643 12.094 50.9634 12.0342C50.6625 11.9743 50.3862 11.8266 50.1693 11.6097C49.9524 11.3928 49.8046 11.1164 49.7448 10.8156C49.685 10.5147 49.7157 10.2028 49.8331 9.91943C49.9505 9.63602 50.1492 9.39379 50.4043 9.22337C50.6594 9.05294 50.9592 8.96198 51.266 8.96198C51.6773 8.96198 52.0719 9.12538 52.3627 9.41625C52.6536 9.70712 52.817 10.1016 52.817 10.513Z" fill="#E2E100"/>
<path id="Rectangle 6865" d="M112.544 16.454H0.543999V24.07H112.544V16.454Z" fill="white"/>
<path id="Path 100515" d="M5.294 21.342C5.32172 21.4559 5.37623 21.5614 5.453 21.65C5.53418 21.7413 5.63506 21.813 5.74801 21.8596C5.86097 21.9062 5.98304 21.9265 6.105 21.919C6.22122 21.9259 6.33758 21.908 6.44636 21.8665C6.55514 21.825 6.65385 21.7609 6.73594 21.6783C6.81803 21.5957 6.88162 21.4967 6.92249 21.3877C6.96336 21.2786 6.98058 21.1622 6.973 21.046C6.98234 20.9335 6.96743 20.8203 6.92928 20.7141C6.89112 20.6078 6.83062 20.511 6.75185 20.4302C6.67308 20.3493 6.57788 20.2863 6.47267 20.2454C6.36746 20.2045 6.2547 20.1866 6.142 20.193C5.89975 20.1856 5.66412 20.2727 5.485 20.436C5.41344 20.5016 5.35888 20.5836 5.326 20.675L4.664 20.611C4.717 20.234 4.721 20.211 4.733 20.06L4.854 18.747C4.86 18.647 4.871 18.472 4.876 18.206C5.035 18.217 5.156 18.222 5.437 18.222H6.737C6.9831 18.2305 7.22946 18.2165 7.473 18.18V18.848C7.23099 18.8165 6.98703 18.8024 6.743 18.806H5.501L5.416 19.733C5.41067 19.7757 5.4 19.8497 5.384 19.955C5.63381 19.7357 5.95779 19.6199 6.29 19.631C6.48062 19.6214 6.67112 19.652 6.8491 19.721C7.02709 19.7899 7.18856 19.8955 7.323 20.031C7.45293 20.1615 7.55365 20.3182 7.61847 20.4906C7.68329 20.663 7.71074 20.8472 7.699 21.031C7.70981 21.2392 7.67523 21.4473 7.59768 21.6408C7.52012 21.8344 7.40143 22.0088 7.24983 22.1519C7.09823 22.295 6.91733 22.4035 6.71965 22.4698C6.52198 22.5362 6.31226 22.5587 6.105 22.536C5.76796 22.5665 5.43071 22.4799 5.15004 22.2908C4.86936 22.1018 4.6624 21.8218 4.564 21.498L5.294 21.342Z" fill="#777777"/>
<path id="Path 100516" d="M11.663 21.495C11.4877 21.4711 11.3109 21.459 11.134 21.459H10.942V21.838C10.9379 22.0389 10.9523 22.2397 10.985 22.438H10.233C10.2657 22.235 10.2797 22.0295 10.275 21.824V21.459H8.808C8.496 21.459 8.326 21.459 8.146 21.48V20.828C8.326 20.628 8.384 20.562 8.569 20.34L9.823 18.804C9.98409 18.621 10.1312 18.4261 10.263 18.221H10.978C10.9466 18.5199 10.9339 18.8205 10.94 19.121V20.859H11.126C11.3047 20.8604 11.4832 20.848 11.66 20.822L11.663 21.495ZM10.281 19.763C10.2784 19.5507 10.2871 19.3384 10.307 19.127C10.201 19.28 10.138 19.366 9.947 19.599L8.93 20.86H10.281V19.763Z" fill="#777777"/>
<path id="Rectangle 6866" d="M79.326 19.07H17.111V20.378H79.326V19.07Z" fill="#E73E8F"/>
<path id="Path 100517" d="M75.56 19.726C75.56 20.0327 75.469 20.3326 75.2986 20.5877C75.1282 20.8427 74.8859 21.0415 74.6025 21.1589C74.3191 21.2763 74.0073 21.307 73.7064 21.2472C73.4055 21.1873 73.1292 21.0396 72.9123 20.8227C72.6954 20.6058 72.5476 20.3294 72.4878 20.0286C72.4279 19.7277 72.4587 19.4159 72.5761 19.1324C72.6935 18.849 72.8922 18.6068 73.1473 18.4364C73.4024 18.266 73.7022 18.175 74.009 18.175C74.4203 18.175 74.8148 18.3384 75.1057 18.6293C75.3966 18.9201 75.56 19.3146 75.56 19.726Z" fill="#E2E100"/>
<path id="Rectangle 6867" d="M112.544 25.375H0.543999V32.991H112.544V25.375Z" fill="white"/>
<path id="Path 100518" d="M5.306 30.338C5.34128 30.4445 5.39661 30.5433 5.469 30.629C5.54994 30.7057 5.64602 30.7646 5.75106 30.802C5.85611 30.8393 5.96781 30.8543 6.079 30.846C6.18854 30.8529 6.29834 30.8372 6.40157 30.7999C6.50479 30.7626 6.59922 30.7044 6.679 30.629C6.9776 30.2795 7.12636 29.8264 7.093 29.368C7.01972 29.4856 6.92387 29.5876 6.811 29.668C6.55806 29.8381 6.25755 29.9232 5.953 29.911C5.76406 29.9285 5.57356 29.9051 5.39447 29.8424C5.21537 29.7797 5.05186 29.6792 4.91506 29.5477C4.77825 29.4162 4.67136 29.2568 4.60164 29.0804C4.53192 28.9039 4.501 28.7145 4.511 28.525C4.50236 28.2765 4.56006 28.0302 4.67816 27.8114C4.79627 27.5925 4.97052 27.4091 5.183 27.28C5.4638 27.1172 5.78461 27.0365 6.109 27.047C6.43158 27.0411 6.74746 27.1394 7.00975 27.3273C7.27204 27.5152 7.46675 27.7827 7.565 28.09C7.6771 28.4456 7.72948 28.8173 7.72 29.19C7.76753 29.8503 7.56714 30.5046 7.158 31.025C7.00884 31.1672 6.83137 31.2763 6.63717 31.3452C6.44297 31.4141 6.23642 31.4413 6.031 31.425C5.66455 31.4484 5.30186 31.3395 5.009 31.118C4.81774 30.959 4.66866 30.7554 4.575 30.525L5.306 30.338ZM6.969 28.478C6.97145 28.3621 6.94981 28.247 6.90546 28.14C6.86111 28.0329 6.795 27.9362 6.71134 27.856C6.62767 27.7758 6.52827 27.7139 6.41942 27.6741C6.31057 27.6344 6.19465 27.6176 6.079 27.625C5.96389 27.6203 5.84907 27.6396 5.74183 27.6817C5.6346 27.7237 5.53729 27.7877 5.45612 27.8694C5.37494 27.9512 5.31167 28.0489 5.27033 28.1564C5.22899 28.264 5.21049 28.3789 5.216 28.494C5.20759 28.6069 5.22352 28.7203 5.26272 28.8265C5.30191 28.9327 5.36345 29.0293 5.44318 29.1097C5.52291 29.1901 5.61897 29.2524 5.72486 29.2925C5.83076 29.3326 5.94402 29.3495 6.057 29.342C6.17415 29.3475 6.29121 29.3293 6.40114 29.2884C6.51107 29.2476 6.6116 29.1849 6.6967 29.1042C6.78179 29.0235 6.84969 28.9264 6.89631 28.8188C6.94294 28.7112 6.96832 28.5953 6.969 28.478Z" fill="#777777"/>
<path id="Path 100519" d="M8.989 31.359C8.76067 31.3516 8.53211 31.3603 8.305 31.385C8.32189 31.154 8.36826 30.9262 8.443 30.707C8.59703 30.3071 8.84623 29.9508 9.169 29.669C9.44444 29.4347 9.73654 29.2208 10.043 29.029C10.531 28.695 10.678 28.52 10.678 28.25C10.678 27.89 10.398 27.668 9.948 27.668C9.8184 27.6572 9.68821 27.6802 9.57023 27.7349C9.45224 27.7896 9.3505 27.8741 9.275 27.98C9.1791 28.1254 9.12259 28.2932 9.111 28.467L8.353 28.377C8.38842 28.0634 8.51575 27.7673 8.719 27.526C8.87456 27.3637 9.06376 27.2374 9.27331 27.1561C9.48286 27.0747 9.70769 27.0402 9.932 27.055C10.859 27.055 11.432 27.5 11.432 28.226C11.4366 28.3864 11.4052 28.5459 11.3402 28.6926C11.2751 28.8394 11.178 28.9697 11.056 29.074C10.778 29.3154 10.4803 29.5332 10.166 29.725C9.94084 29.8832 9.72972 30.0605 9.535 30.255C9.40057 30.3895 9.29805 30.5525 9.235 30.732H10.718C10.9767 30.736 11.2353 30.7219 11.492 30.69V31.39C11.243 31.369 11.032 31.358 10.692 31.358L8.989 31.359Z" fill="#777777"/>
<path id="Rectangle 6868" d="M97.132 27.992H17.112V29.3H97.132V27.992Z" fill="#E73E8F"/>
<path id="Path 100520" d="M93.577 28.647C93.577 28.9538 93.486 29.2536 93.3156 29.5087C93.1452 29.7638 92.9029 29.9626 92.6195 30.0799C92.3361 30.1973 92.0243 30.2281 91.7234 30.1682C91.4226 30.1084 91.1462 29.9606 90.9293 29.7437C90.7124 29.5268 90.5646 29.2505 90.5048 28.9496C90.445 28.6487 90.4757 28.3369 90.5931 28.0535C90.7105 27.7701 90.9092 27.5278 91.1643 27.3574C91.4194 27.187 91.7192 27.096 92.026 27.096C92.4373 27.096 92.8319 27.2594 93.1227 27.5503C93.4136 27.8412 93.577 28.2357 93.577 28.647Z" fill="#E2E100"/>
<path id="Rectangle 6869" d="M112.544 34.844H0.543999V42.46H112.544V34.844Z" fill="white"/>
<path id="Path 100521" d="M5.226 39.679C5.25149 39.8498 5.34039 40.0048 5.475 40.113C5.65843 40.2537 5.88494 40.3265 6.116 40.319C6.64 40.319 6.973 40.049 6.973 39.631C6.97793 39.5197 6.95264 39.4092 6.89982 39.3111C6.847 39.2131 6.76862 39.1311 6.673 39.074C6.48241 38.9856 6.27405 38.9421 6.064 38.947C5.87464 38.9438 5.68527 38.9525 5.497 38.973V38.316C5.67028 38.3398 5.84511 38.3505 6.02 38.348C6.549 38.348 6.862 38.104 6.862 37.696C6.862 37.331 6.612 37.124 6.162 37.124C5.95612 37.1098 5.75172 37.1678 5.584 37.288C5.47031 37.3979 5.39286 37.5399 5.362 37.695L4.604 37.568C4.6757 37.2641 4.85287 36.9955 5.104 36.81C5.40985 36.6042 5.77375 36.5022 6.142 36.519C7.027 36.519 7.598 36.964 7.598 37.653C7.6014 37.8022 7.57022 37.9502 7.5069 38.0853C7.44357 38.2205 7.34983 38.3391 7.233 38.432C7.07836 38.5366 6.90309 38.6069 6.719 38.638C7.0082 38.6533 7.28008 38.7806 7.477 38.993C7.65431 39.1939 7.74553 39.4564 7.731 39.724C7.72846 40.0133 7.61458 40.2905 7.413 40.498C7.05143 40.8037 6.5855 40.9575 6.113 40.927C5.86551 40.9499 5.61605 40.9168 5.38307 40.8303C5.15008 40.7437 4.93953 40.6059 4.767 40.427C4.6212 40.2557 4.51836 40.052 4.467 39.833L5.226 39.679Z" fill="#777777"/>
<path id="Path 100522" d="M9.074 39.806C9.10973 39.9123 9.16501 40.011 9.237 40.097C9.40718 40.2373 9.6209 40.3141 9.8415 40.3141C10.0621 40.3141 10.2758 40.2373 10.446 40.097C10.7446 39.7476 10.8931 39.2943 10.859 38.836C10.7867 38.9537 10.6915 39.0557 10.579 39.136C10.3259 39.3057 10.0255 39.3908 9.721 39.379C9.5316 39.3963 9.34069 39.3725 9.16132 39.3093C8.98194 39.246 8.81832 39.1449 8.68163 39.0126C8.54493 38.8804 8.43837 38.7202 8.36923 38.543C8.30009 38.3659 8.27 38.1758 8.281 37.986C8.27236 37.7375 8.33006 37.4912 8.44816 37.2723C8.56627 37.0535 8.74052 36.8701 8.953 36.741C9.23405 36.5779 9.55527 36.4972 9.88 36.508C10.2028 36.5019 10.5189 36.6001 10.7814 36.788C11.0438 36.9759 11.2387 37.2435 11.337 37.551C11.4479 37.9068 11.4996 38.2784 11.49 38.651C11.538 39.3116 11.3384 39.9665 10.93 40.488C10.7807 40.6302 10.603 40.7393 10.4086 40.8082C10.2143 40.8772 10.0076 40.9043 9.802 40.888C9.43555 40.9114 9.07287 40.8025 8.78 40.581C8.5894 40.4234 8.44037 40.2215 8.346 39.993L9.074 39.806ZM10.737 37.946C10.7349 37.7134 10.6404 37.4912 10.4745 37.3282C10.3085 37.1652 10.0846 37.0748 9.852 37.077C9.61941 37.0791 9.39718 37.1735 9.23421 37.3395C9.07124 37.5055 8.98088 37.7294 8.983 37.962C8.97475 38.0749 8.99082 38.1884 9.03013 38.2946C9.06944 38.4008 9.13108 38.4974 9.21088 38.5777C9.29069 38.6581 9.3868 38.7204 9.49274 38.7605C9.59868 38.8005 9.71198 38.8174 9.825 38.81C9.94218 38.8156 10.0593 38.7975 10.1693 38.7567C10.2793 38.7159 10.3799 38.6532 10.465 38.5725C10.5501 38.4918 10.618 38.3946 10.6646 38.287C10.7112 38.1793 10.7355 38.0633 10.736 37.946" fill="#777777"/>
<path id="Rectangle 6870" d="M104.54 37.46H17.112V38.768H104.54V37.46Z" fill="#E73E8F"/>
<path id="Path 100523" d="M70.613 38.114C70.613 38.4207 70.522 38.7206 70.3516 38.9757C70.1812 39.2307 69.939 39.4295 69.6555 39.5469C69.3721 39.6643 69.0603 39.695 68.7594 39.6352C68.4586 39.5753 68.1822 39.4276 67.9653 39.2107C67.7484 38.9938 67.6007 38.7174 67.5408 38.4166C67.481 38.1157 67.5117 37.8039 67.6291 37.5204C67.7465 37.237 67.9453 36.9948 68.2003 36.8244C68.4554 36.654 68.7552 36.563 69.062 36.563C69.2657 36.563 69.4674 36.6031 69.6555 36.681C69.8437 36.759 70.0147 36.8732 70.1587 37.0173C70.3027 37.1613 70.417 37.3323 70.4949 37.5204C70.5729 37.7086 70.613 37.9103 70.613 38.114Z" fill="#E2E100"/>
</g>
</g>
</svg>
