<svg width="136" height="62" viewBox="0 0 136 62" fill="none" xmlns="http://www.w3.org/2000/svg">
<g id="Group 47503">
<g id="Clip path group">
<mask id="mask0_1_380" style="mask-type:luminance" maskUnits="userSpaceOnUse" x="0" y="0" width="136" height="62">
<g id="clip-path-9">
<path id="Rectangle 6860" d="M135.278 0.890015H0.304016V61.69H135.278V0.890015Z" fill="white"/>
</g>
</mask>
<g mask="url(#mask0_1_380)">
<g id="Group 47502">
<g id="Group 47501">
<g id="Clip path group_2">
<mask id="mask1_1_380" style="mask-type:luminance" maskUnits="userSpaceOnUse" x="0" y="0" width="136" height="62">
<g id="clip-path-9_2">
<path id="Rectangle 6860_2" d="M135.278 0.890015H0.304016V61.69H135.278V0.890015Z" fill="white"/>
</g>
</mask>
<g mask="url(#mask1_1_380)">
<g id="Group 47500">
<path id="Path 100244" d="M72.864 61.689H3.16002C2.40256 61.689 1.67612 61.3881 1.14052 60.8525C0.604915 60.3169 0.304016 59.5905 0.304016 58.833L0.304016 4.07902C0.304016 3.32156 0.604915 2.59513 1.14052 2.05953C1.67612 1.52392 2.40256 1.22302 3.16002 1.22302H72.86C73.6175 1.22302 74.3439 1.52392 74.8795 2.05953C75.4151 2.59513 75.716 3.32156 75.716 4.07902V58.833C75.716 59.2081 75.6421 59.5795 75.4986 59.926C75.3551 60.2725 75.1447 60.5873 74.8795 60.8525C74.6143 61.1177 74.2995 61.3281 73.953 61.4716C73.6065 61.6152 73.2351 61.689 72.86 61.689" fill="white"/>
<path id="Rectangle 6813" d="M70.503 10.159H4.53302V19.696H70.503V10.159Z" fill="white" stroke="#D5E8F8"/>
<path id="Rectangle 6814" d="M62.041 10.159H12.995V19.696H62.041V10.159Z" fill="#419EB7"/>
<path id="Rectangle 6815" d="M27.656 12.283H22.366V17.573H27.656V12.283Z" fill="white"/>
<path id="Rectangle 6816" d="M33.91 12.283H28.62V17.573H33.91V12.283Z" fill="white"/>
<path id="Rectangle 6817" d="M40.164 12.283H34.874V17.573H40.164V12.283Z" fill="#EFD9E4"/>
<path id="Rectangle 6818" d="M46.417 12.283H41.127V17.573H46.417V12.283Z" fill="white"/>
<path id="Rectangle 6819" d="M52.67 12.283H47.38V17.573H52.67V12.283Z" fill="white"/>
<path id="Rectangle 6820" d="M58.923 12.283H53.633V17.573H58.923V12.283Z" fill="white"/>
<path id="Rectangle 6821" d="M21.403 12.283H16.113V17.573H21.403V12.283Z" fill="white"/>
<path id="Rectangle 6822" d="M70.503 22.877H4.53302V32.414H70.503V22.877Z" fill="white" stroke="#D5E8F8"/>
<path id="Rectangle 6823" d="M62.041 22.877H12.995V32.414H62.041V22.877Z" fill="#419EB7"/>
<path id="Rectangle 6824" d="M27.656 25H22.366V30.29H27.656V25Z" fill="white"/>
<path id="Rectangle 6825" d="M33.91 25H28.62V30.29H33.91V25Z" fill="white"/>
<path id="Rectangle 6826" d="M40.164 25H34.874V30.29H40.164V25Z" fill="#EFD9E4"/>
<path id="Rectangle 6827" d="M46.417 25H41.127V30.29H46.417V25Z" fill="white"/>
<path id="Rectangle 6828" d="M52.67 25H47.38V30.29H52.67V25Z" fill="white"/>
<path id="Rectangle 6829" d="M58.923 25H53.633V30.29H58.923V25Z" fill="white"/>
<path id="Rectangle 6830" d="M21.403 25H16.113V30.29H21.403V25Z" fill="white"/>
<path id="Rectangle 6831" d="M70.503 35.593H4.53302V45.13H70.503V35.593Z" fill="white" stroke="#D5E8F8"/>
<path id="Rectangle 6832" d="M62.041 35.593H12.995V45.13H62.041V35.593Z" fill="#419EB7"/>
<path id="Rectangle 6833" d="M27.656 37.717H22.366V43.007H27.656V37.717Z" fill="white"/>
<path id="Rectangle 6834" d="M33.91 37.717H28.62V43.007H33.91V37.717Z" fill="white"/>
<path id="Rectangle 6835" d="M40.164 37.717H34.874V43.007H40.164V37.717Z" fill="#EFD9E4"/>
<path id="Rectangle 6836" d="M46.417 37.717H41.127V43.007H46.417V37.717Z" fill="white"/>
<path id="Rectangle 6837" d="M52.67 37.717H47.38V43.007H52.67V37.717Z" fill="white"/>
<path id="Rectangle 6838" d="M58.923 37.717H53.633V43.007H58.923V37.717Z" fill="white"/>
<path id="Rectangle 6839" d="M21.403 37.717H16.113V43.007H21.403V37.717Z" fill="white"/>
<path id="Path 100245" d="M56.862 15.187C56.8618 15.0022 56.8068 14.8215 56.704 14.6679C56.6012 14.5143 56.4552 14.3946 56.2843 14.324C56.1135 14.2533 55.9256 14.2349 55.7443 14.271C55.5631 14.3071 55.3966 14.3961 55.2659 14.5268C55.1352 14.6575 55.0461 14.8241 55.01 15.0053C54.9739 15.1866 54.9923 15.3745 55.063 15.5453C55.1336 15.7161 55.2533 15.8622 55.4069 15.965C55.5605 16.0678 55.7412 16.1228 55.926 16.123C56.1742 16.123 56.4123 16.0244 56.5879 15.8488C56.7634 15.6733 56.862 15.4352 56.862 15.187Z" fill="#D54086"/>
<path id="Path 100246" d="M44.355 14.927C44.3548 14.7422 44.2998 14.5616 44.197 14.408C44.0942 14.2544 43.9482 14.1347 43.7774 14.064C43.6066 13.9934 43.4186 13.9749 43.2374 14.0111C43.0561 14.0472 42.8896 14.1362 42.7589 14.2669C42.6282 14.3976 42.5391 14.5641 42.503 14.7454C42.4669 14.9267 42.4854 15.1146 42.556 15.2854C42.6266 15.4562 42.7463 15.6022 42.8999 15.705C43.0535 15.8079 43.2342 15.8628 43.419 15.863C43.6673 15.863 43.9053 15.7644 44.0809 15.5889C44.2564 15.4134 44.355 15.1753 44.355 14.927Z" fill="#D6D73B"/>
<path id="Path 100247" d="M31.845 27.516C31.8448 27.3312 31.7898 27.1506 31.687 26.997C31.5842 26.8433 31.4382 26.7237 31.2674 26.653C31.0965 26.5824 30.9086 26.5639 30.7274 26.6C30.5461 26.6362 30.3796 26.7252 30.2489 26.8559C30.1182 26.9866 30.0291 27.1531 29.993 27.3344C29.9569 27.5157 29.9753 27.7036 30.046 27.8744C30.1166 28.0452 30.2363 28.1912 30.3899 28.294C30.5435 28.3969 30.7242 28.4518 30.909 28.452C31.1572 28.452 31.3953 28.3534 31.5709 28.1779C31.7464 28.0023 31.845 27.7643 31.845 27.516Z" fill="#D54086"/>
<path id="Path 100248" d="M25.595 27.516C25.5948 27.3312 25.5398 27.1506 25.437 26.997C25.3342 26.8433 25.1882 26.7237 25.0174 26.653C24.8465 26.5824 24.6586 26.5639 24.4774 26.6C24.2961 26.6362 24.1296 26.7252 23.9989 26.8559C23.8682 26.9866 23.7791 27.1531 23.743 27.3344C23.7069 27.5157 23.7253 27.7036 23.796 27.8744C23.8666 28.0452 23.9863 28.1912 24.1399 28.294C24.2935 28.3969 24.4742 28.4518 24.659 28.452C24.9072 28.452 25.1453 28.3534 25.3209 28.1779C25.4964 28.0023 25.595 27.7643 25.595 27.516Z" fill="#D6D73B"/>
<path id="Path 100249" d="M50.605 40.831C50.6048 40.6462 50.5498 40.4656 50.447 40.312C50.3442 40.1583 50.1982 40.0387 50.0274 39.968C49.8566 39.8974 49.6686 39.8789 49.4874 39.915C49.3061 39.9512 49.1396 40.0402 49.0089 40.1709C48.8782 40.3016 48.7891 40.4681 48.753 40.6494C48.7169 40.8307 48.7354 41.0186 48.806 41.1894C48.8766 41.3602 48.9963 41.5062 49.1499 41.609C49.3035 41.7119 49.4842 41.7668 49.669 41.767C49.9173 41.767 50.1553 41.6684 50.3309 41.4929C50.5064 41.3174 50.605 41.0793 50.605 40.831Z" fill="#D54086"/>
<path id="Path 100250" d="M56.601 40.831C56.6008 40.6462 56.5458 40.4656 56.443 40.312C56.3402 40.1583 56.1942 40.0387 56.0234 39.968C55.8526 39.8974 55.6646 39.8789 55.4834 39.915C55.3021 39.9512 55.1356 40.0402 55.0049 40.1709C54.8742 40.3016 54.7851 40.4681 54.749 40.6494C54.7129 40.8307 54.7314 41.0186 54.802 41.1894C54.8726 41.3602 54.9923 41.5062 55.1459 41.609C55.2995 41.7119 55.4802 41.7668 55.665 41.767C55.9133 41.767 56.1513 41.6684 56.3269 41.4929C56.5024 41.3174 56.601 41.0793 56.601 40.831Z" fill="#D6D73B"/>
<path id="Rectangle 6840" d="M70.503 48.407H4.53302V57.944H70.503V48.407Z" fill="white" stroke="#D5E8F8"/>
<path id="Rectangle 6841" d="M62.041 48.407H12.995V57.944H62.041V48.407Z" fill="#419EB7"/>
<path id="Rectangle 6842" d="M27.656 50.53H22.366V55.82H27.656V50.53Z" fill="white"/>
<path id="Rectangle 6843" d="M33.91 50.53H28.62V55.82H33.91V50.53Z" fill="white"/>
<path id="Rectangle 6844" d="M40.164 50.53H34.874V55.82H40.164V50.53Z" fill="#EFD9E4"/>
<path id="Rectangle 6845" d="M46.417 50.53H41.127V55.82H46.417V50.53Z" fill="white"/>
<path id="Rectangle 6846" d="M52.67 50.53H47.38V55.82H52.67V50.53Z" fill="white"/>
<path id="Rectangle 6847" d="M58.923 50.53H53.633V55.82H58.923V50.53Z" fill="white"/>
<path id="Rectangle 6848" d="M21.403 50.53H16.113V55.82H21.403V50.53Z" fill="white"/>
<path id="Path 100251" d="M50.963 53.176C50.9628 52.9912 50.9078 52.8105 50.805 52.6569C50.7022 52.5033 50.5562 52.3836 50.3854 52.313C50.2146 52.2423 50.0266 52.2239 49.8454 52.26C49.6641 52.2961 49.4976 52.3852 49.3669 52.5159C49.2362 52.6466 49.1471 52.8131 49.111 52.9943C49.0749 53.1756 49.0934 53.3635 49.164 53.5343C49.2346 53.7052 49.3543 53.8512 49.5079 53.954C49.6615 54.0568 49.8422 54.1118 50.027 54.112C50.2753 54.112 50.5133 54.0134 50.6889 53.8379C50.8644 53.6623 50.963 53.4242 50.963 53.176Z" fill="#D54086"/>
<path id="Path 100252" d="M25.947 53.176C25.9468 52.9912 25.8918 52.8105 25.789 52.6569C25.6862 52.5033 25.5402 52.3836 25.3694 52.313C25.1986 52.2423 25.0107 52.2239 24.8294 52.26C24.6481 52.2961 24.4816 52.3852 24.3509 52.5159C24.2202 52.6466 24.1312 52.8131 24.095 52.9943C24.0589 53.1756 24.0774 53.3635 24.148 53.5343C24.2187 53.7052 24.3383 53.8512 24.4919 53.954C24.6456 54.0568 24.8262 54.1118 25.011 54.112C25.2593 54.112 25.4973 54.0134 25.6729 53.8379C25.8484 53.6623 25.947 53.4242 25.947 53.176Z" fill="#D6D73B"/>
<path id="Path 100253" d="M75.72 6.18302H0.304019V4.08302C0.303493 3.70763 0.376978 3.33582 0.52027 2.98885C0.663562 2.64188 0.87385 2.32657 1.13911 2.06094C1.40436 1.79531 1.71938 1.58458 2.06615 1.4408C2.41292 1.29703 2.78463 1.22302 3.16002 1.22302H72.86C73.6175 1.22302 74.3439 1.52392 74.8795 2.05953C75.4151 2.59513 75.716 3.32156 75.716 4.07902L75.72 6.18302Z" fill="#419EB7"/>
<path id="Path 100254" d="M132.421 36.112H81.978C81.2206 36.112 80.4941 35.8111 79.9585 35.2755C79.4229 34.7399 79.122 34.0135 79.122 33.256V3.74601C79.122 2.98856 79.4229 2.26212 79.9585 1.72652C80.4941 1.19091 81.2206 0.890015 81.978 0.890015L132.421 0.890015C133.178 0.890015 133.905 1.19091 134.441 1.72652C134.976 2.26212 135.277 2.98856 135.277 3.74601V33.256C135.277 34.0135 134.976 34.7399 134.441 35.2755C133.905 35.8111 133.178 36.112 132.421 36.112Z" fill="white"/>
<path id="Rectangle 6849" d="M130.023 10.009H101.425V32.408H130.023V10.009Z" fill="white"/>
<path id="Path 100255" d="M126.539 30.025H104.946L115.746 11.325L126.539 30.025ZM105.981 29.425H125.504L115.742 12.52L105.981 29.425Z" fill="#CCCCCC"/>
<path id="Rectangle 6850" d="M116.041 11.923H115.444V22.266H116.041V11.923Z" fill="#CCCCCC"/>
<path id="Path 100256" d="M105.639 29.968L105.288 29.485L115.567 22.025L115.918 22.508L105.639 29.968Z" fill="#CCCCCC"/>
<path id="Path 100257" d="M125.846 29.968L115.567 22.508L115.918 22.025L126.197 29.485L125.846 29.968Z" fill="#CCCCCC"/>
<g id="Group 47499" opacity="0.52">
<g id="Group 47498">
<g id="Clip path group_3">
<mask id="mask2_1_380" style="mask-type:luminance" maskUnits="userSpaceOnUse" x="108" y="14" width="16" height="14">
<g id="clip-path-11">
<path id="Rectangle 6851" d="M123.14 14.958H108.344V27.772H123.14V14.958Z" fill="white"/>
</g>
</mask>
<g mask="url(#mask2_1_380)">
<g id="Group 47497">
<path id="Path 100258" d="M115.742 15.556L108.862 27.474H122.623L115.742 15.556Z" fill="#F3D2D3"/>
<path id="Path 100259" d="M123.142 27.773H108.342L115.742 14.958L123.142 27.773ZM109.38 27.173H122.106L115.743 16.153L109.38 27.173Z" fill="#D54086"/>
</g>
</g>
</g>
</g>
</g>
<path id="Rectangle 6852" d="M98.22 10.264H84.379V15.627H98.22V10.264Z" fill="#F3D2D3"/>
<path id="Path 100260" d="M98.518 15.925H84.08V9.96503H98.518V15.925ZM84.676 15.325H97.92V10.562H84.676V15.325Z" fill="#D54086"/>
<path id="Rectangle 6853" d="M98.319 18.572H84.478V23.935H98.319V18.572Z" fill="#FEF8BC"/>
<path id="Path 100261" d="M98.617 24.232H84.179V18.272H98.617V24.232ZM84.776 23.632H98.02V18.869H84.776V23.632Z" fill="#D6D73B"/>
<path id="Rectangle 6854" d="M98.22 27.045H84.379V32.408H98.22V27.045Z" fill="#E4F2F7"/>
<path id="Path 100262" d="M98.518 32.708H84.08V26.748H98.518V32.708ZM84.676 32.108H97.92V27.343H84.676V32.108Z" fill="#419EB7"/>
<path id="Path 100263" d="M135.278 5.85001H79.123V3.75001C79.1225 3.37462 79.196 3.00281 79.3393 2.65584C79.4826 2.30887 79.6929 1.99356 79.9581 1.72793C80.2234 1.4623 80.5384 1.25157 80.8851 1.1078C81.2319 0.964019 81.6036 0.890014 81.979 0.890015L132.422 0.890015C133.179 0.890015 133.906 1.19091 134.442 1.72652C134.977 2.26212 135.278 2.98856 135.278 3.74601V5.85001Z" fill="#419EB7"/>
<path id="Path 100264" d="M132.096 61.689H81.653C80.8956 61.689 80.1691 61.3881 79.6335 60.8525C79.0979 60.3169 78.797 59.5904 78.797 58.833V41.833C78.7973 41.0756 79.0983 40.3493 79.6338 39.8138C80.1694 39.2782 80.8956 38.9773 81.653 38.977H132.096C132.853 38.9773 133.58 39.2782 134.115 39.8138C134.651 40.3493 134.952 41.0756 134.952 41.833V58.833C134.952 59.5904 134.651 60.3169 134.116 60.8525C133.58 61.3881 132.853 61.689 132.096 61.689Z" fill="white"/>
<path id="Path 100265" d="M134.952 43.942H78.797V41.842C78.797 41.0846 79.0979 40.3581 79.6335 39.8225C80.1691 39.2869 80.8956 38.986 81.653 38.986H132.096C132.853 38.986 133.58 39.2869 134.116 39.8225C134.651 40.3581 134.952 41.0846 134.952 41.842V43.942Z" fill="#419EB7"/>
<path id="Rectangle 6855" d="M105.681 47.284H84.478V51.894H105.681V47.284Z" fill="white"/>
<path id="Path 100266" d="M105.979 52.192H84.179V46.984H105.979V52.192ZM84.779 51.592H105.387V47.581H84.776L84.779 51.592Z" fill="#419EB7"/>
<path id="Rectangle 6856" d="M105.681 53.6H84.478V58.21H105.681V53.6Z" fill="white"/>
<path id="Path 100267" d="M105.979 58.509H84.179V53.301H105.979V58.509ZM84.779 57.909H105.387V53.898H84.776L84.779 57.909Z" fill="#419EB7"/>
<path id="Rectangle 6857" d="M128.467 47.284H107.264V51.894H128.467V47.284Z" fill="white"/>
<path id="Path 100268" d="M128.766 52.192H106.966V46.984H128.766V52.192ZM107.566 51.592H128.172V47.581H107.565L107.566 51.592Z" fill="#419EB7"/>
<path id="Rectangle 6858" d="M128.467 53.6H107.264V58.21H128.467V53.6Z" fill="white"/>
<path id="Path 100269" d="M128.766 58.509H106.966V53.301H128.766V58.509ZM107.566 57.909H128.172V53.898H107.565L107.566 57.909Z" fill="#419EB7"/>
</g>
</g>
</g>
</g>
</g>
</g>
</g>
</g>
</svg>
