<svg width="108" height="57" viewBox="0 0 108 57" fill="none" xmlns="http://www.w3.org/2000/svg">
<g id="Group 47557">
<g id="Group 47629">
<g id="Rectangle 6930">
<path id="Vector" d="M107 0H0V56H107V0Z" fill="white"/>
<path id="Vector_2" d="M106.5 0.5H0.5V55.5H106.5V0.5Z" stroke="#E1E8EF"/>
</g>
<path id="Line 1987" d="M0.5 28.5H107.5" stroke="#E1E8EF" stroke-dasharray="1 1"/>
<path id="Line 1988" d="M0.5 13.5H107.5" stroke="#E1E8EF" stroke-dasharray="1 1"/>
<path id="Line 1989" d="M0.5 42.5H107.5" stroke="#E1E8EF" stroke-dasharray="1 1"/>
<path id="Line 1990" d="M70.5 56.5V0.5" stroke="#E1E8EF" stroke-dasharray="1 1"/>
<path id="Line 1991" d="M89.5 56.5V0.5" stroke="#E1E8EF" stroke-dasharray="1 1"/>
<path id="Line 1992" d="M16.5 56.5V0.5" stroke="#E1E8EF" stroke-dasharray="1 1"/>
<path id="Line 1993" d="M35.5 56.5V0.5" stroke="#E1E8EF" stroke-dasharray="1 1"/>
<path id="Line 1994" d="M53.5 56.5V0.5" stroke="#E1E8EF" stroke-dasharray="1 1"/>
</g>
<path id="Rectangle 6894" d="M88.709 42.314H84.05V51.402H88.709V42.314Z" fill="#E4E04A"/>
<path id="Rectangle 6895" d="M95.678 42.816H91.019V51.828H95.678V42.816Z" fill="#A3A3A3"/>
<path id="Rectangle 6896" d="M81.742 46.149H77.083V51.829H81.742V46.149Z" fill="#A3A3A3"/>
<path id="Rectangle 6897" d="M74.773 37.913H70.114V51.403H74.773V37.913Z" fill="#E4E04A"/>
<path id="Rectangle 6898" d="M67.805 33.226H63.146V51.402H67.805V33.226Z" fill="#E4E04A"/>
<path id="Rectangle 6899" d="M60.837 36.401H56.178V51.828H60.837V36.401Z" fill="#A3A3A3"/>
<path id="Rectangle 6900" d="M19.027 37.906H14.368V51.829H19.027V37.906Z" fill="#A3A3A3"/>
<path id="Rectangle 6901" d="M46.725 44.658H42.415V51.403H46.725V44.658Z" fill="#E4E04A"/>
<path id="Rectangle 6902" d="M102.471 48.03H98.161V51.403H102.471V48.03Z" fill="#E4E04A"/>
<path id="Rectangle 6903" d="M39.933 44.507H35.273V51.829H39.933V44.507Z" fill="#A3A3A3"/>
<path id="Rectangle 6904" d="M32.962 44.115H28.303V51.437H32.962V44.115Z" fill="#E4E04A"/>
<path id="Rectangle 6905" d="M25.996 43.194H21.336V51.829H25.996V43.194Z" fill="#A3A3A3"/>
<path id="Rectangle 6906" d="M53.868 34.754H49.209V51.026H53.868V34.754Z" fill="#E4E04A"/>
<path id="Rectangle 6907" d="M12.059 42.014H7.399V51.026H12.059V42.014Z" fill="#E4E04A"/>
<path id="Rectangle 6908" d="M105.155 50.916H3.45801V51.811H105.155V50.916Z" fill="#AFAFAF"/>
<path id="Path 100548" d="M71.982 7.95801L62.488 16.599H55.817L48.643 15.558L42.751 16.605L35.351 21.028L26.381 16.571L19.422 18.288L10.622 11.988L2.742 18.436L3.331 19.154L10.66 13.154L19.234 19.293L26.273 17.558L35.397 22.09L42.997 17.509L48.655 16.501L55.747 17.531H62.847L71.584 9.57601L73.726 15.458L80.726 20.329L86.283 18.917L94.852 20.276L102.79 23.71L103.159 22.857L95.167 19.399L86.234 17.971L80.904 19.325L74.498 14.865L71.982 7.95801Z" fill="#E73E8F"/>
<path id="Path 100549" d="M35.532 22.609L28.202 17.009H3.034V16.08H28.512L35.657 21.54L41.703 18.884L49.844 14.409L60.264 9.45301L65.224 12.286L74.567 13.002L74.657 19.56L80.562 19.868L87.29 9.23901L93.69 15.56H102.974V16.489H93.304L87.458 10.711L81.058 20.824L73.742 20.441L73.654 13.859L64.854 13.14L60.229 10.499L50.271 15.235L42.118 19.716L35.532 22.609Z" fill="#1788DD"/>
</g>
</svg>
