<svg width="110" height="58" viewBox="0 0 110 58" fill="none" xmlns="http://www.w3.org/2000/svg">
<g id="Group 47556">
<path id="Rectangle 6927" d="M109 1H2V57H109V1Z" fill="white"/>
<path id="Path 100536" d="M0.585999 0.773987V29.489H2.923V3.11099H54.897V0.773987H0.585999Z" fill="#6DB0AA"/>
<path id="Path 100537" d="M0.585999 29.172V57.887H54.897V55.55H2.923V29.172H0.585999Z" fill="#DB8FB5"/>
<path id="Path 100538" d="M106.87 29.172V55.55H54.897V57.887H109.208V29.172H106.87Z" fill="#8CC5D1"/>
<path id="Path 100539" d="M54.897 0.773987V3.11099H106.87V29.489H109.208V0.773987H54.897Z" fill="#F2EFAA"/>
<path id="Rectangle 6891" d="M92.716 28.422H15.773V29.59H92.716V28.422Z" fill="#DEE4E9"/>
<path id="Rectangle 6892" d="M54.829 10.568H53.661V47.446H54.829V10.568Z" fill="#DEE4E9"/>
<g id="Group 47555">
<g id="Clip path group">
<mask id="mask0_1_559" style="mask-type:luminance" maskUnits="userSpaceOnUse" x="0" y="0" width="110" height="58">
<g id="clip-path-13">
<path id="Rectangle 6893" d="M109.207 0.773987H0.585999V57.887H109.207V0.773987Z" fill="white"/>
</g>
</mask>
<g mask="url(#mask0_1_559)">
<g id="Group 47554">
<path id="Path 100540" d="M29.759 21.349C29.759 20.9336 29.6358 20.5276 29.4051 20.1823C29.1743 19.8369 28.8464 19.5678 28.4626 19.4088C28.0789 19.2499 27.6567 19.2083 27.2493 19.2893C26.8419 19.3703 26.4678 19.5704 26.1741 19.864C25.8804 20.1577 25.6804 20.5319 25.5993 20.9393C25.5183 21.3466 25.5599 21.7689 25.7189 22.1526C25.8778 22.5363 26.147 22.8643 26.4923 23.0951C26.8376 23.3258 27.2437 23.449 27.659 23.449C28.216 23.449 28.7501 23.2277 29.1439 22.8339C29.5377 22.4401 29.759 21.9059 29.759 21.349Z" fill="#DB8FB5"/>
<path id="Path 100541" d="M79.756 38.862C79.756 38.4415 79.6313 38.0304 79.3977 37.6808C79.1641 37.3312 78.8321 37.0587 78.4436 36.8978C78.0551 36.7369 77.6276 36.6948 77.2152 36.7768C76.8028 36.8588 76.424 37.0613 76.1267 37.3587C75.8294 37.656 75.6269 38.0348 75.5448 38.4472C75.4628 38.8596 75.5049 39.2871 75.6658 39.6755C75.8267 40.064 76.0992 40.3961 76.4489 40.6297C76.7985 40.8633 77.2095 40.988 77.63 40.988C78.1938 40.988 78.7346 40.764 79.1333 40.3653C79.532 39.9666 79.756 39.4258 79.756 38.862Z" fill="#DB8FB5"/>
<path id="Path 100542" d="M47.218 24.456C47.218 24.0406 47.0948 23.6346 46.8641 23.2893C46.6333 22.9439 46.3054 22.6748 45.9216 22.5158C45.5379 22.3569 45.1157 22.3153 44.7083 22.3963C44.3009 22.4773 43.9268 22.6773 43.6331 22.971C43.3394 23.2647 43.1394 23.6389 43.0583 24.0463C42.9773 24.4536 43.0189 24.8759 43.1779 25.2596C43.3368 25.6433 43.606 25.9713 43.9513 26.202C44.2966 26.4328 44.7027 26.556 45.118 26.556C45.675 26.556 46.2091 26.3347 46.6029 25.9409C46.9968 25.5471 47.218 25.0129 47.218 24.456Z" fill="#F2EFAA"/>
<path id="Path 100543" d="M62.395 23.476C62.395 23.0606 62.2718 22.6546 62.0411 22.3093C61.8103 21.9639 61.4824 21.6948 61.0986 21.5358C60.7149 21.3769 60.2927 21.3353 59.8853 21.4163C59.478 21.4974 59.1038 21.6974 58.8101 21.9911C58.5164 22.2847 58.3164 22.6589 58.2354 23.0663C58.1543 23.4736 58.1959 23.8959 58.3549 24.2796C58.5138 24.6633 58.783 24.9913 59.1283 25.2221C59.4736 25.4528 59.8797 25.576 60.295 25.576C60.852 25.576 61.3861 25.3547 61.7799 24.9609C62.1737 24.5671 62.395 24.0329 62.395 23.476Z" fill="#F2EFAA"/>
<path id="Path 100544" d="M40.282 39.822C40.282 39.4066 40.1588 39.0006 39.9281 38.6553C39.6973 38.3099 39.3694 38.0408 38.9856 37.8818C38.6019 37.7229 38.1797 37.6813 37.7723 37.7623C37.3649 37.8434 36.9908 38.0434 36.6971 38.3371C36.4034 38.6308 36.2034 39.0049 36.1223 39.4123C36.0413 39.8197 36.0829 40.2419 36.2419 40.6256C36.4008 41.0093 36.67 41.3373 37.0153 41.5681C37.3606 41.7988 37.7667 41.922 38.182 41.922C38.4578 41.922 38.7308 41.8677 38.9856 41.7621C39.2404 41.6566 39.4719 41.5019 39.6669 41.3069C39.8619 41.1119 40.0166 40.8804 40.1221 40.6256C40.2277 40.3708 40.282 40.0978 40.282 39.822Z" fill="#8CC5D1"/>
<path id="Path 100545" d="M85.72 29.007C85.7198 28.5865 85.5949 28.1756 85.3612 27.8261C85.1275 27.4766 84.7954 27.2043 84.4069 27.0435C84.0184 26.8827 83.591 26.8408 83.1786 26.9229C82.7663 27.0051 82.3876 27.2076 82.0903 27.505C81.7931 27.8024 81.5907 28.1812 81.5088 28.5936C81.4268 29.0059 81.469 29.4334 81.6299 29.8218C81.7909 30.2102 82.0634 30.5422 82.413 30.7757C82.7626 31.0093 83.1736 31.134 83.594 31.134C84.1579 31.134 84.6986 30.91 85.0973 30.5113C85.496 30.1126 85.72 29.5718 85.72 29.008" fill="#8CC5D1"/>
<path id="Path 100546" d="M56.998 16.721C56.998 16.3056 56.8748 15.8996 56.6441 15.5543C56.4133 15.2089 56.0854 14.9398 55.7016 14.7808C55.3179 14.6219 54.8957 14.5803 54.4883 14.6613C54.081 14.7424 53.7068 14.9424 53.4131 15.236C53.1194 15.5297 52.9194 15.9039 52.8384 16.3113C52.7573 16.7186 52.7989 17.1409 52.9579 17.5246C53.1168 17.9083 53.386 18.2363 53.7313 18.4671C54.0766 18.6978 54.4827 18.821 54.898 18.821C55.455 18.821 55.9891 18.5997 56.3829 18.2059C56.7768 17.8121 56.998 17.2779 56.998 16.721Z" fill="#8CC5D1"/>
<path id="Path 100547" d="M66.598 32.809C66.598 32.3936 66.4748 31.9876 66.2441 31.6423C66.0133 31.2969 65.6854 31.0278 65.3016 30.8688C64.9179 30.7099 64.4957 30.6683 64.0883 30.7493C63.6809 30.8304 63.3068 31.0304 63.0131 31.3241C62.7194 31.6178 62.5194 31.9919 62.4384 32.3993C62.3573 32.8067 62.3989 33.2289 62.5579 33.6126C62.7168 33.9963 62.986 34.3243 63.3313 34.5551C63.6766 34.7858 64.0827 34.909 64.498 34.909C65.055 34.909 65.5891 34.6877 65.9829 34.2939C66.3767 33.9001 66.598 33.3659 66.598 32.809Z" fill="#8CC5D1"/>
</g>
</g>
</g>
</g>
</g>
</svg>
