<svg width="108" height="57" viewBox="0 0 108 57" fill="none" xmlns="http://www.w3.org/2000/svg">
<g id="Group 47550">
<path id="Rectangle 6926" d="M108.001 0H1.00099V56H108.001V0Z" fill="white"/>
<path id="Path 100524" d="M0.729996 0V28.284H3.03V2.3H54.23V0H0.729996Z" fill="#6DB0AA"/>
<path id="Path 100525" d="M0.729996 27.972V56.256H54.23V53.956H3.03V27.972H0.729996Z" fill="#DB8FB5"/>
<path id="Path 100526" d="M105.421 27.972V53.955H54.227V56.255H107.727V27.972H105.421Z" fill="#8CC5D1"/>
<path id="Path 100527" d="M54.227 0V2.3H105.421V28.284H107.721V0H54.227Z" fill="#F2EFAA"/>
<path id="Rectangle 6872" d="M91.479 27.234H15.69V28.385H91.479V27.234Z" fill="#DEE4E9"/>
<path id="Rectangle 6873" d="M54.16 9.64697H53.009V45.972H54.16V9.64697Z" fill="#DEE4E9"/>
<g id="Group 47549">
<g id="Clip path group">
<mask id="mask0_1_496" style="mask-type:luminance" maskUnits="userSpaceOnUse" x="0" y="0" width="108" height="57">
<g id="clip-path-12">
<path id="Rectangle 6875" d="M107.722 0H0.729996V56.256H107.722V0Z" fill="white"/>
</g>
</mask>
<g mask="url(#mask0_1_496)">
<g id="Group 47548">
<path id="Path 100528" d="M29.465 20.266C29.465 19.8566 29.3436 19.4564 29.1161 19.116C28.8887 18.7756 28.5654 18.5103 28.1872 18.3536C27.8089 18.1969 27.3927 18.1559 26.9912 18.2358C26.5896 18.3157 26.2208 18.5128 25.9313 18.8023C25.6418 19.0918 25.4446 19.4607 25.3648 19.8622C25.2849 20.2637 25.3259 20.68 25.4826 21.0582C25.6392 21.4364 25.9046 21.7597 26.245 21.9872C26.5854 22.2146 26.9856 22.336 27.395 22.336C27.944 22.336 28.4705 22.118 28.8587 21.7298C29.2469 21.3416 29.465 20.815 29.465 20.266Z" fill="#F2EFAA"/>
<path id="Path 100529" d="M78.714 37.517C78.714 37.1029 78.5912 36.698 78.3611 36.3537C78.131 36.0093 77.804 35.7409 77.4213 35.5824C77.0387 35.4239 76.6177 35.3825 76.2115 35.4633C75.8053 35.5441 75.4322 35.7435 75.1393 36.0364C74.8465 36.3292 74.647 36.7023 74.5662 37.1085C74.4854 37.5147 74.5269 37.9357 74.6854 38.3184C74.8439 38.701 75.1123 39.028 75.4566 39.2581C75.801 39.4882 76.2058 39.611 76.62 39.611C77.1753 39.6108 77.7077 39.3901 78.1004 38.9974C78.493 38.6048 78.7137 38.0723 78.714 37.517Z" fill="#F2EFAA"/>
<path id="Path 100530" d="M46.662 23.326C46.662 22.9166 46.5406 22.5164 46.3131 22.176C46.0857 21.8356 45.7624 21.5703 45.3841 21.4136C45.0059 21.2569 44.5897 21.2159 44.1882 21.2958C43.7866 21.3757 43.4178 21.5728 43.1283 21.8623C42.8388 22.1518 42.6416 22.5207 42.5618 22.9222C42.4819 23.3237 42.5229 23.74 42.6796 24.1182C42.8362 24.4964 43.1015 24.8197 43.442 25.0472C43.7824 25.2746 44.1826 25.396 44.592 25.396C45.141 25.396 45.6675 25.178 46.0557 24.7898C46.4439 24.4016 46.662 23.875 46.662 23.326Z" fill="#F2EFAA"/>
<path id="Path 100531" d="M61.612 22.358C61.612 21.9486 61.4906 21.5484 61.2631 21.208C61.0357 20.8676 60.7124 20.6023 60.3341 20.4456C59.9559 20.2889 59.5397 20.2479 59.1381 20.3278C58.7366 20.4077 58.3678 20.6048 58.0783 20.8943C57.7888 21.1838 57.5916 21.5526 57.5118 21.9542C57.4319 22.3557 57.4729 22.7719 57.6296 23.1502C57.7862 23.5284 58.0515 23.8517 58.392 24.0792C58.7324 24.3066 59.1326 24.428 59.542 24.428C59.8138 24.428 60.083 24.3745 60.3341 24.2705C60.5853 24.1664 60.8135 24.014 61.0057 23.8217C61.1979 23.6295 61.3504 23.4013 61.4544 23.1502C61.5584 22.899 61.612 22.6299 61.612 22.358Z" fill="#F2EFAA"/>
<path id="Path 100532" d="M39.831 38.467C39.831 38.0576 39.7096 37.6574 39.4821 37.317C39.2547 36.9766 38.9314 36.7113 38.5532 36.5546C38.1749 36.3979 37.7587 36.3569 37.3572 36.4368C36.9556 36.5167 36.5868 36.7138 36.2973 37.0033C36.0078 37.2928 35.8106 37.6617 35.7308 38.0632C35.6509 38.4647 35.6919 38.8809 35.8486 39.2592C36.0052 39.6374 36.2706 39.9607 36.611 40.1882C36.9514 40.4156 37.3516 40.537 37.761 40.537C38.31 40.537 38.8365 40.3189 39.2247 39.9307C39.6129 39.5425 39.831 39.016 39.831 38.467Z" fill="#F2EFAA"/>
<path id="Path 100533" d="M84.588 27.809C84.588 27.3949 84.4652 26.99 84.2351 26.6457C84.005 26.3013 83.678 26.0329 83.2953 25.8744C82.9127 25.7159 82.4917 25.6745 82.0855 25.7553C81.6793 25.8361 81.3062 26.0355 81.0133 26.3283C80.7205 26.6212 80.521 26.9943 80.4402 27.4005C80.3594 27.8067 80.4009 28.2277 80.5594 28.6104C80.7179 28.993 80.9863 29.32 81.3306 29.5501C81.675 29.7802 82.0798 29.903 82.494 29.903C83.0493 29.9028 83.5817 29.6821 83.9744 29.2894C84.367 28.8968 84.5877 28.3643 84.588 27.809Z" fill="#F2EFAA"/>
<path id="Path 100534" d="M56.296 15.707C56.296 15.2976 56.1746 14.8974 55.9471 14.557C55.7197 14.2166 55.3964 13.9513 55.0181 13.7946C54.6399 13.6379 54.2237 13.5969 53.8222 13.6768C53.4206 13.7567 53.0518 13.9538 52.7623 14.2433C52.4728 14.5328 52.2756 14.9016 52.1958 15.3032C52.1159 15.7047 52.1569 16.1209 52.3136 16.4992C52.4702 16.8774 52.7356 17.2007 53.076 17.4282C53.4164 17.6556 53.8166 17.777 54.226 17.777C54.4978 17.777 54.767 17.7235 55.0181 17.6195C55.2693 17.5154 55.4975 17.363 55.6897 17.1707C55.8819 16.9785 56.0344 16.7503 56.1384 16.4992C56.2425 16.248 56.296 15.9789 56.296 15.707Z" fill="#F2EFAA"/>
<path id="Path 100535" d="M65.752 31.554C65.752 31.1446 65.6306 30.7444 65.4031 30.404C65.1757 30.0636 64.8524 29.7983 64.4742 29.6416C64.0959 29.4849 63.6797 29.4439 63.2782 29.5238C62.8766 29.6037 62.5078 29.8008 62.2183 30.0903C61.9288 30.3798 61.7316 30.7486 61.6518 31.1502C61.5719 31.5517 61.6129 31.9679 61.7696 32.3462C61.9262 32.7244 62.1916 33.0477 62.532 33.2752C62.8724 33.5026 63.2726 33.624 63.682 33.624C64.231 33.624 64.7575 33.4059 65.1457 33.0177C65.5339 32.6295 65.752 32.103 65.752 31.554Z" fill="#F2EFAA"/>
<path id="Rectangle 6874" d="M72.357 13.936L68.096 18.197L72.357 22.458L76.618 18.197L72.357 13.936Z" fill="#E73E8F"/>
</g>
</g>
</g>
</g>
</g>
</svg>
