<svg width="106" height="45" viewBox="0 0 106 45" fill="none" xmlns="http://www.w3.org/2000/svg">
<g id="Group 47558">
<path id="Path 100550" d="M19.992 28.184L18.811 27.549L35.562 18.665L36.743 19.3L19.992 28.184Z" fill="#AFAFAF"/>
<path id="Rectangle 6910" d="M61.1697 18.4462L52.888 27.566L53.5688 28.1842L61.8505 19.0645L61.1697 18.4462Z" fill="#AFAFAF"/>
<path id="Rectangle 6911" d="M82.5054 18.5413L77.914 27.673L78.736 28.0863L83.3273 18.9546L82.5054 18.5413Z" fill="#AFAFAF"/>
<path id="Rectangle 6912" d="M18.813 27.051H1.20801V41.086H18.813V27.051Z" fill="#4AA5CA"/>
<path id="Rectangle 6913" d="M53.23 27.051H18.813V41.086H53.23V27.051Z" fill="#D74B8B"/>
<path id="Rectangle 6914" d="M79.241 27.051H53.23V41.086H79.241V27.051Z" fill="#E1754B"/>
<path id="Rectangle 6915" d="M105.252 27.051H79.242V41.086H105.252V27.051Z" fill="#E4E04A"/>
<path id="Rectangle 6916" d="M36.418 5.54001H1.20801V19.575H36.418V5.54001Z" fill="#4AA5CA"/>
<path id="Rectangle 6917" d="M61.51 5.54001H36.419V19.575H61.51V5.54001Z" fill="#D74B8B"/>
<path id="Rectangle 6918" d="M82.92 5.54001H61.509V19.575H82.92V5.54001Z" fill="#E1754B"/>
<path id="Rectangle 6919" d="M105.252 5.54001H82.921V19.575H105.252V5.54001Z" fill="#E4E04A"/>
<path id="Path 100812" d="M0.748993 0.583008H1.66899V45H0.748993V0.583008Z" fill="#AFAFAF"/>
</g>
</svg>
