<svg width="135" height="53" viewBox="0 0 135 53" fill="none" xmlns="http://www.w3.org/2000/svg">
<g id="Group 47565">
<g id="Clip path group">
<mask id="mask0_1_637" style="mask-type:luminance" maskUnits="userSpaceOnUse" x="0" y="0" width="135" height="53">
<g id="clip-path-14">
<path id="Rectangle 6924" d="M134.444 0.615997H0V53H134.444V0.615997Z" fill="white"/>
</g>
</mask>
<g mask="url(#mask0_1_637)">
<g id="Group 47564">
<path id="Path 100576" d="M131.6 53H2.841C2.08752 53 1.3649 52.7007 0.83211 52.1679C0.299319 51.6351 0 50.9125 0 50.159L0 3.457C0 2.70352 0.299319 1.9809 0.83211 1.44811C1.3649 0.915316 2.08752 0.615997 2.841 0.615997L131.6 0.615997C131.973 0.615997 132.343 0.689482 132.687 0.832256C133.032 0.975029 133.345 1.1843 133.609 1.44811C133.873 1.71192 134.082 2.02511 134.225 2.36979C134.368 2.71448 134.441 3.08391 134.441 3.457V50.157C134.441 50.5301 134.368 50.8995 134.225 51.2442C134.082 51.5889 133.873 51.9021 133.609 52.1659C133.345 52.4297 133.032 52.639 132.687 52.7817C132.343 52.9245 131.973 52.998 131.6 52.998" fill="#E7F2F6"/>
<path id="Path 100577" d="M39.581 47.236H8.51501C7.76153 47.236 7.03891 46.9367 6.50612 46.4039C5.97333 45.8711 5.67401 45.1485 5.67401 44.395V11.611C5.67388 11.2378 5.74727 10.8683 5.88998 10.5235C6.0327 10.1787 6.24194 9.86538 6.50577 9.60146C6.76959 9.33754 7.08283 9.12819 7.42758 8.98535C7.77233 8.84251 8.14184 8.769 8.51501 8.769H39.581C39.9542 8.769 40.3237 8.84251 40.6684 8.98535C41.0132 9.12819 41.3264 9.33754 41.5903 9.60146C41.8541 9.86538 42.0633 10.1787 42.206 10.5235C42.3488 10.8683 42.4221 11.2378 42.422 11.611V44.395C42.422 45.1485 42.1227 45.8711 41.5899 46.4039C41.0571 46.9367 40.3345 47.236 39.581 47.236Z" fill="white"/>
<path id="Path 100578" d="M82.756 47.236H51.688C50.9345 47.236 50.2119 46.9367 49.6791 46.4039C49.1463 45.8711 48.847 45.1485 48.847 44.395V11.611C48.847 10.8575 49.1463 10.1349 49.6791 9.60211C50.2119 9.06932 50.9345 8.77 51.688 8.77H82.756C83.5091 8.77053 84.2312 9.07008 84.7636 9.60281C85.296 10.1355 85.595 10.8579 85.595 11.611V44.395C85.595 45.1481 85.296 45.8704 84.7636 46.4032C84.2312 46.9359 83.5091 47.2355 82.756 47.236Z" fill="white"/>
<path id="Path 100579" d="M125.314 47.236H94.245C93.4915 47.236 92.7689 46.9367 92.2361 46.4039C91.7033 45.8711 91.404 45.1485 91.404 44.395V11.611C91.404 10.8575 91.7033 10.1349 92.2361 9.60211C92.7689 9.06932 93.4915 8.77 94.245 8.77H125.314C126.067 8.77079 126.789 9.07046 127.321 9.60317C127.853 10.1359 128.152 10.858 128.152 11.611V44.395C128.152 45.1485 127.853 45.8711 127.32 46.4039C126.787 46.9367 126.064 47.236 125.311 47.236" fill="white"/>
<path id="Path 100580" d="M42.422 14.871H5.67401V11.611C5.67388 11.2378 5.74727 10.8683 5.88998 10.5235C6.0327 10.1787 6.24194 9.86538 6.50577 9.60146C6.76959 9.33754 7.08283 9.12819 7.42758 8.98535C7.77233 8.84251 8.14184 8.769 8.51501 8.769H39.58C40.3338 8.769 41.0566 9.06842 41.5896 9.6014C42.1226 10.1344 42.422 10.8573 42.422 11.611V14.871Z" fill="#5CA5BF"/>
<path id="Path 100581" d="M85.595 14.871H48.847V11.611C48.847 10.8575 49.1463 10.1349 49.6791 9.60211C50.2119 9.06932 50.9345 8.77 51.688 8.77H82.756C83.5091 8.77053 84.2312 9.07008 84.7636 9.60281C85.296 10.1355 85.595 10.8579 85.595 11.611V14.871Z" fill="#5CA5BF"/>
<path id="Path 100582" d="M128.152 14.871H91.404V11.611C91.404 10.8575 91.7033 10.1349 92.2361 9.60211C92.7689 9.06932 93.4915 8.77 94.245 8.77H125.314C126.067 8.77079 126.789 9.07046 127.321 9.60317C127.853 10.1359 128.152 10.858 128.152 11.611V14.871Z" fill="#5CA5BF"/>
<path id="Path 100583" d="M22.878 32.817C22.4445 32.7574 22.0076 32.7267 21.57 32.725H21.099V33.653C21.0866 34.152 21.12 34.6511 21.199 35.144H19.347C19.4265 34.6421 19.4599 34.134 19.447 33.626V32.726H15.829C15.057 32.726 14.639 32.738 14.194 32.777V31.169C14.639 30.686 14.784 30.515 15.24 29.969L18.34 26.177C18.7356 25.7243 19.0982 25.2437 19.425 24.739H21.19C21.115 25.4732 21.0843 26.2112 21.098 26.949V31.239H21.554C21.9961 31.242 22.4377 31.2109 22.875 31.146L22.878 32.817ZM19.465 28.54C19.4589 28.0162 19.4806 27.4925 19.53 26.971C19.268 27.35 19.112 27.559 18.641 28.135L16.129 31.246H19.465V28.54Z" fill="#777777"/>
<path id="Path 100584" d="M25.597 32.309C25.6597 32.7307 25.8794 33.1132 26.212 33.38C26.6644 33.728 27.2235 33.9086 27.794 33.891C29.094 33.891 29.912 33.224 29.912 32.191C29.9243 31.9175 29.8629 31.6458 29.7341 31.4042C29.6053 31.1626 29.4139 30.9602 29.18 30.818C28.7104 30.6005 28.1974 30.4931 27.68 30.504C27.2124 30.4963 26.7448 30.518 26.28 30.569V28.946C26.7005 28.9983 27.1243 29.0207 27.548 29.013C28.856 29.013 29.627 28.413 29.627 27.403C29.627 26.503 29.012 25.991 27.901 25.991C27.3939 25.9547 26.8901 26.0961 26.476 26.391C26.195 26.6635 26.0035 27.0151 25.927 27.399L24.057 27.085C24.2357 26.3339 24.676 25.671 25.299 25.215C26.0542 24.7068 26.9527 24.4547 27.862 24.496C30.046 24.496 31.462 25.596 31.462 27.296C31.4707 27.6641 31.394 28.0293 31.2379 28.3628C31.0817 28.6963 30.8504 28.989 30.562 29.218C30.1813 29.4772 29.7491 29.6512 29.295 29.728C30.0082 29.7669 30.6786 30.0809 31.165 30.604C31.6001 31.1011 31.8221 31.7495 31.783 32.409C31.7775 33.1227 31.4958 33.8065 30.997 34.317C30.1031 35.0748 28.9493 35.4549 27.78 35.377C27.1687 35.4328 26.5527 35.3501 25.9777 35.1351C25.4028 34.9201 24.8837 34.5782 24.459 34.135C24.1015 33.7121 23.8505 33.2098 23.727 32.67L25.597 32.309Z" fill="#777777"/>
<path id="Path 100585" d="M56.421 32.309C56.4837 32.7307 56.7034 33.1132 57.036 33.38C57.4884 33.728 58.0475 33.9086 58.618 33.891C59.918 33.891 60.736 33.224 60.736 32.191C60.7484 31.9175 60.6869 31.6458 60.5581 31.4042C60.4293 31.1626 60.2379 30.9602 60.004 30.818C59.5344 30.6005 59.0214 30.4931 58.504 30.504C58.0364 30.4963 57.5688 30.518 57.104 30.569V28.946C57.5245 28.9983 57.9483 29.0207 58.372 29.013C59.68 29.013 60.451 28.413 60.451 27.403C60.451 26.503 59.836 25.991 58.725 25.991C58.2179 25.9547 57.7141 26.0961 57.3 26.391C57.019 26.6635 56.8275 27.0151 56.751 27.399L54.881 27.085C55.0597 26.3339 55.5 25.671 56.123 25.215C56.8782 24.7068 57.7767 24.4547 58.686 24.496C60.87 24.496 62.286 25.596 62.286 27.296C62.2948 27.6641 62.218 28.0293 62.0619 28.3628C61.9057 28.6963 61.6744 28.989 61.386 29.218C61.0053 29.4772 60.5731 29.6512 60.119 29.728C60.8322 29.7669 61.5026 30.0809 61.989 30.604C62.4241 31.1011 62.6461 31.7495 62.607 32.409C62.6016 33.1227 62.3198 33.8065 61.821 34.317C60.9271 35.0748 59.7733 35.4549 58.604 35.377C57.9927 35.4328 57.3767 35.3501 56.8017 35.1351C56.2268 34.9201 55.7077 34.5782 55.283 34.135C54.9255 33.7121 54.6745 33.2098 54.551 32.67L56.421 32.309Z" fill="#777777"/>
<path id="Path 100586" d="M70.035 27.285C69.9565 26.8877 69.7343 26.5333 69.4108 26.2896C69.0874 26.0459 68.6855 25.93 68.282 25.964C67.8425 25.9563 67.411 26.0821 67.0445 26.3247C66.6779 26.5673 66.3936 26.9154 66.229 27.323C65.8913 28.0493 65.7087 28.8381 65.693 29.639C65.9997 29.1901 66.4214 28.8319 66.914 28.6018C67.4066 28.3717 67.9519 28.2781 68.493 28.331C69.0911 28.3001 69.6868 28.4277 70.2197 28.7009C70.7527 28.9741 71.204 29.3833 71.528 29.887C71.8607 30.4856 72.0236 31.1636 71.999 31.848C72.0015 32.335 71.9031 32.8172 71.7099 33.2642C71.5167 33.7113 71.233 34.1134 70.8766 34.4453C70.5202 34.7771 70.0989 35.0315 69.6392 35.1924C69.1796 35.3533 68.6916 35.4172 68.206 35.38C67.2473 35.4104 66.3082 35.1048 65.551 34.516C65.0069 33.9317 64.5909 33.2402 64.3296 32.4858C64.0684 31.7313 63.9677 30.9306 64.034 30.135C63.9791 28.7108 64.3525 27.3028 65.106 26.093C65.4658 25.588 65.9462 25.1811 66.5036 24.9095C67.061 24.6378 67.6776 24.5101 68.297 24.538C68.7882 24.5119 69.2796 24.5867 69.7408 24.7576C70.202 24.9286 70.6234 25.1921 70.979 25.532C71.3446 25.9135 71.6251 26.3681 71.802 26.866L70.035 27.285ZM65.954 31.849C65.9847 32.3027 66.1544 32.736 66.44 33.0899C66.7256 33.4438 67.1132 33.7012 67.5502 33.827C67.9872 33.9529 68.4524 33.9411 68.8825 33.7933C69.3125 33.6455 69.6867 33.3689 69.954 33.001C70.1634 32.6399 70.2673 32.2272 70.254 31.81C70.2795 31.5328 70.2435 31.2534 70.1484 30.9918C70.0533 30.7301 69.9016 30.4927 69.7041 30.2966C69.5066 30.1004 69.2682 29.9503 69.0059 29.857C68.7437 29.7638 68.464 29.7296 68.187 29.757C67.901 29.7399 67.6145 29.7812 67.345 29.8784C67.0755 29.9756 66.8286 30.1267 66.6194 30.3224C66.4102 30.5182 66.243 30.7545 66.1281 31.0169C66.0132 31.2794 65.9529 31.5625 65.951 31.849" fill="#777777"/>
<path id="Path 100587" d="M75.716 29.062C75.388 29.062 75.088 29.077 74.797 29.105V28.263C75.1 28.2943 75.4044 28.3086 75.709 28.306H80.293C80.5979 28.3081 80.9027 28.2937 81.206 28.263V29.106C80.928 29.079 80.621 29.063 80.3 29.063H77.627C77.6249 29.4325 77.6035 29.8017 77.563 30.169H79.609C79.9138 30.1762 80.2188 30.1639 80.522 30.132C80.4924 30.3996 80.478 30.6687 80.479 30.938C80.4772 31.891 80.3525 32.8399 80.108 33.761C79.93 34.203 79.616 34.361 78.908 34.361C78.673 34.361 78.523 34.354 77.895 34.304C77.8723 34.0251 77.8073 33.7513 77.702 33.492C78.0704 33.5723 78.4452 33.6195 78.822 33.633C79.171 33.633 79.3 33.576 79.378 33.376C79.579 32.5724 79.6768 31.7464 79.669 30.918H77.457C77.3402 31.6745 77.0711 32.3995 76.666 33.049C76.3088 33.6261 75.8313 34.1194 75.266 34.495C75.1093 34.2324 74.906 34.0006 74.666 33.811C75.0926 33.5602 75.4662 33.2287 75.766 32.835C76.2826 32.1468 76.6099 31.3351 76.715 30.481C76.7886 30.012 76.8221 29.5377 76.815 29.063L75.716 29.062Z" fill="#777777"/>
<path id="Path 100588" d="M104.1 30.647C104.092 30.1707 104.109 29.6944 104.152 29.22C103.847 29.7259 103.497 30.2035 103.106 30.647C102.963 30.0939 102.762 29.5575 102.506 29.047C103.423 28.0924 104.139 26.963 104.611 25.726C104.858 25.1282 105.038 24.5051 105.148 23.868L106.648 24.248C106.36 25.2801 105.967 26.2802 105.477 27.233V34.557C105.477 35.145 105.503 35.577 105.544 36.074H104.022C104.083 35.5664 104.109 35.0552 104.1 34.544V30.647ZM108.456 29.418V32.058C109.594 31.796 109.751 31.758 110.771 31.458V32.758C109.444 33.1948 108.089 33.5459 106.717 33.809C106.467 33.861 106.364 33.887 106.167 33.94L105.959 32.462C106.337 32.4515 106.713 32.4033 107.082 32.318V26.309C107.094 25.9113 107.076 25.5133 107.031 25.118H107.345C109.372 25.1108 111.377 24.7029 113.245 23.918L114.316 25.199C113.51 25.4831 112.684 25.706 111.845 25.866C111.858 26.781 111.858 26.794 111.923 28.024L113.374 27.972C113.795 27.9844 114.217 27.9509 114.631 27.872L114.657 29.297C114.291 29.272 114.146 29.272 113.742 29.272C113.62 29.268 113.497 29.272 113.375 29.284L112.039 29.309C112.123 30.0664 112.316 30.8075 112.614 31.509C112.994 32.386 113.414 32.962 113.673 32.962C113.751 32.962 113.831 32.884 113.883 32.753C113.979 32.4213 114.032 32.0784 114.04 31.733C114.04 31.694 114.053 31.457 114.079 31.027C114.391 31.3578 114.747 31.6439 115.138 31.877C115.101 32.585 114.951 33.2825 114.693 33.943C114.623 34.1344 114.497 34.3004 114.332 34.4193C114.166 34.5383 113.969 34.6047 113.765 34.61C113.098 34.61 112.208 33.76 111.58 32.543C111.098 31.5407 110.797 30.4611 110.691 29.354L108.456 29.418ZM106.656 34.243C106.986 34.2851 107.318 34.3025 107.65 34.295H111.468C111.914 34.3014 112.36 34.2797 112.803 34.23V35.642C112.361 35.5803 111.914 35.5542 111.468 35.564H107.946C107.513 35.551 107.079 35.5771 106.651 35.642L106.656 34.243ZM110.577 28.057C110.538 27.691 110.525 27.272 110.477 26.109C109.677 26.227 109.392 26.253 108.463 26.318V28.109L110.577 28.057Z" fill="#777777"/>
</g>
</g>
</g>
</g>
</svg>
