<svg width="109" height="58" viewBox="0 0 109 58" fill="none" xmlns="http://www.w3.org/2000/svg">
<g id="Group 47563">
<path id="Rectangle 6928" d="M107 1H0V57H107V1Z" fill="white"/>
<path id="Path 100564" d="M0 0V28.751H2.339V2.34H54.38V0H0Z" fill="#6DB0AA"/>
<path id="Path 100565" d="M0 28.434V57.185H54.38V54.846H2.339V28.434H0Z" fill="#DB8FB5"/>
<path id="Path 100566" d="M106.417 28.434V54.846H54.379V57.185H108.757V28.434H106.417Z" fill="#8CC5D1"/>
<path id="Path 100567" d="M54.38 0V2.34H106.419V28.751H108.758V0H54.38Z" fill="#F2EFAA"/>
<path id="Rectangle 6921" d="M92.246 27.683H15.206V28.853H92.246V27.683Z" fill="#DEE4E9"/>
<path id="Rectangle 6922" d="M54.312 9.806H53.142V46.731H54.312V9.806Z" fill="#DEE4E9"/>
<g id="Group 47562">
<g id="Clip path group">
<mask id="mask0_1_658" style="mask-type:luminance" maskUnits="userSpaceOnUse" x="0" y="0" width="109" height="58">
<g id="clip-path-15">
<path id="Rectangle 6923" d="M108.758 0H0V57.185H108.758V0Z" fill="white"/>
</g>
</mask>
<g mask="url(#mask0_1_658)">
<g id="Group 47561">
<path id="Path 100568" d="M26.561 13.198C26.477 13.409 26.477 13.409 26.252 13.942C25.7769 15.1889 25.1401 16.368 24.358 17.449C24.5885 17.8841 24.8712 18.2894 25.2 18.656C25.3749 18.8627 25.589 19.0326 25.83 19.156C25.886 19.156 25.942 19.072 26.012 18.89C26.1566 18.3532 26.2461 17.803 26.279 17.248C26.6365 17.6387 27.0652 17.9577 27.542 18.188C27.218 20.082 26.728 20.91 25.956 20.91C25.24 20.91 24.132 19.97 23.318 18.651C22.3289 19.6508 21.1827 20.4818 19.925 21.111C19.6432 20.6453 19.2821 20.2324 18.858 19.891C20.2901 19.3179 21.5788 18.4371 22.633 17.311C21.9767 15.5149 21.6212 13.6228 21.581 11.711H17.231C17.218 13.057 17.218 13.057 17.203 13.563H19.781C20.1153 13.5716 20.4498 13.5529 20.781 13.507C20.752 13.76 20.725 14.153 20.696 14.699C20.731 16.001 20.5753 17.3011 20.234 18.558C20.009 19.119 19.504 19.329 18.424 19.329C18.031 19.329 17.806 19.315 17.357 19.287C17.3087 18.7762 17.1857 18.2752 16.992 17.8C17.4416 17.8735 17.8964 17.9109 18.352 17.912C18.787 17.912 18.915 17.828 18.984 17.477C19.1257 16.6381 19.1963 15.7888 19.195 14.938H17.147C17.099 16.122 16.9535 17.2999 16.712 18.46C16.5126 19.4385 16.1218 20.368 15.562 21.195C15.2245 20.7325 14.8122 20.3297 14.342 20.003C14.7994 19.3305 15.1273 18.5787 15.309 17.786C15.6442 15.959 15.7854 14.1017 15.73 12.245C15.7498 11.5795 15.7217 10.9135 15.646 10.252C16.151 10.295 16.727 10.323 17.456 10.323H21.524C21.511 10.211 21.511 9.846 21.481 9.228C21.4875 8.9321 21.4644 8.63629 21.412 8.345H23.081C23.0324 8.78731 23.0094 9.23204 23.012 9.677V10.323H24.864C24.5124 9.83894 24.097 9.40466 23.629 9.032L24.71 8.345C25.2449 8.77177 25.7213 9.26702 26.127 9.818L25.398 10.323H25.818C26.3155 10.3418 26.8137 10.3136 27.306 10.239V11.782C26.842 11.74 26.306 11.712 25.594 11.712H23.068C23.1253 13.1301 23.3416 14.5372 23.713 15.907C24.3602 14.9048 24.8171 13.7918 25.061 12.624L26.561 13.198Z" fill="#6DB0AA"/>
<path id="Path 100569" d="M31.717 14.517C31.1494 14.5062 30.5817 14.5296 30.017 14.587C30.079 14.0561 30.102 13.5213 30.086 12.987V10.238C30.1008 9.7413 30.0777 9.24419 30.017 8.751C30.5712 8.81115 31.1287 8.83453 31.686 8.821H38.336C38.8979 8.83362 39.4601 8.81024 40.019 8.751C39.9542 9.28171 39.9308 9.81666 39.949 10.351V12.989C39.9314 13.5233 39.9548 14.0582 40.019 14.589C39.4543 14.5309 38.8866 14.5075 38.319 14.519H35.659V15.305H39.699C40.2337 15.3166 40.7685 15.2882 41.299 15.22V16.778C40.7729 16.7174 40.2436 16.6893 39.714 16.694H36.642C37.1934 17.3068 37.8429 17.8235 38.564 18.223C39.508 18.7778 40.5291 19.1893 41.594 19.444C41.2665 19.9068 40.9934 20.4058 40.78 20.931C38.7765 20.2885 36.9931 19.0975 35.632 17.493C35.632 17.677 35.632 17.677 35.646 17.956C35.66 18.167 35.66 18.349 35.66 18.503V19.724C35.6522 20.2355 35.6857 20.7468 35.76 21.253H34.046C34.1295 20.7522 34.163 20.2444 34.146 19.737V18.517C34.161 17.97 34.161 17.97 34.188 17.55C33.5382 18.3086 32.7938 18.9808 31.973 19.55C31.1314 20.1305 30.2279 20.6154 29.279 20.996C29.0656 20.4779 28.7823 19.9914 28.437 19.55C29.4036 19.2668 30.3284 18.8566 31.187 18.33C31.9121 17.8961 32.5575 17.3411 33.095 16.689H30.273C29.7477 16.683 29.2226 16.7111 28.701 16.773V15.217C29.2214 15.292 29.7475 15.3205 30.273 15.302H34.144V14.516L31.717 14.517ZM31.605 11.094H34.143V10.141H31.605V11.094ZM31.605 13.254H34.143V12.3H31.605V13.254ZM35.659 11.094H38.451V10.141H35.659V11.094ZM35.659 13.254H38.451V12.3H35.659V13.254Z" fill="#6DB0AA"/>
<path id="Path 100570" d="M66.175 10.657C66.5694 10.7202 66.9686 10.7486 67.368 10.742H70.973C71.3716 10.7529 71.7704 10.7294 72.165 10.672V12.072C71.7695 12.0253 71.3712 12.0066 70.973 12.016H67.354C66.9598 12.0096 66.5657 12.033 66.175 12.086V10.657ZM66.765 8.707C67.1641 8.76604 67.5677 8.78946 67.971 8.777H70.402C70.8003 8.78857 71.1988 8.76514 71.593 8.707V10.082C71.1975 10.0388 70.7998 10.0201 70.402 10.026H67.971C67.5682 10.0199 67.1655 10.0386 66.765 10.082V8.707ZM68.252 21.264H66.765C66.8202 20.8169 66.8435 20.3664 66.835 19.916V17.798C66.8392 17.4325 66.8205 17.0671 66.779 16.704C67.1055 16.7382 67.4338 16.7523 67.762 16.746H70.778C71.0822 16.7503 71.3865 16.7362 71.689 16.704C71.6453 17.0623 71.6265 17.4231 71.633 17.784V19.846C71.6229 20.2543 71.6467 20.6627 71.704 21.067H70.202V20.632H68.252V21.264ZM66.778 12.706C67.0856 12.7377 67.3948 12.7514 67.704 12.747H70.677C70.9776 12.7587 71.2787 12.745 71.577 12.706V14.038C71.2786 13.9996 70.9776 13.9856 70.677 13.996H67.702C67.3927 13.9854 67.0831 13.9995 66.776 14.038L66.778 12.706ZM66.778 14.697C67.0853 14.7322 67.3947 14.7466 67.704 14.74H70.677C70.9777 14.7525 71.2789 14.7381 71.577 14.697V16.03C71.2698 15.9974 70.9609 15.9834 70.652 15.988H67.69C67.3858 15.9841 67.0816 15.9982 66.779 16.03L66.778 14.697ZM68.223 19.383H70.215V18.022H68.223V19.383ZM74.723 10.04C74.7396 9.47715 74.7062 8.91393 74.623 8.357H76.376C76.2989 8.91454 76.2655 9.47725 76.276 10.04V12.578H77.276C77.8438 12.5857 78.4116 12.558 78.976 12.495V14.112C78.4076 14.0528 77.8364 14.0248 77.265 14.028H76.282V19.149C76.2704 19.8564 76.3038 20.5638 76.382 21.267H74.62C74.7008 20.564 74.7342 19.8564 74.72 19.149V14.024H73.851C73.2792 14.0208 72.7077 14.0488 72.139 14.108V12.496C72.7034 12.5589 73.2712 12.5866 73.839 12.579H74.723V10.04Z" fill="#E2E100"/>
<path id="Path 100571" d="M81.897 10.097C81.3203 10.0956 80.7439 10.1236 80.17 10.181V8.637C80.7346 8.69764 81.3022 8.72602 81.87 8.722H91.13C91.7061 8.72436 92.2819 8.69599 92.855 8.637V10.181C92.2865 10.1233 91.7154 10.0952 91.144 10.097H87.185V11.345H88.854C89.2381 11.3518 89.6223 11.3334 90.004 11.29C89.9603 11.6389 89.9416 11.9904 89.948 12.342V17.363C89.9393 17.7103 89.9581 18.0577 90.004 18.402C89.5944 18.3552 89.1821 18.3365 88.77 18.346H84.238C83.8162 18.3359 83.3942 18.3546 82.975 18.402C83.0208 18.0577 83.0402 17.7103 83.033 17.363V12.342C83.0387 11.9905 83.02 11.6389 82.977 11.29C83.3591 11.3334 83.7435 11.3518 84.128 11.345H85.753V10.097H81.897ZM92.533 11.553C92.4776 12.0748 92.4496 12.5992 92.449 13.124V19.409C92.4441 20.0374 92.4775 20.6656 92.549 21.29H90.916V20.63H82.064V21.29H80.464C80.5236 20.6698 80.5516 20.047 80.548 19.424V13.114C80.5495 12.5935 80.5215 12.0733 80.464 11.556H82.093C82.0444 11.9705 82.0253 12.3878 82.036 12.805V19.272H90.959V12.772C90.9703 12.3638 90.9468 11.9553 90.889 11.551L92.533 11.553ZM84.393 14.123H85.753V12.653H84.393V14.123ZM84.393 17.098H85.753V15.386H84.393V17.098ZM87.185 14.123H88.602V12.653H87.185V14.123ZM87.185 17.098H88.602V15.386H87.185V17.098Z" fill="#E2E100"/>
<path id="Path 100572" d="M16.281 41.208C15.9996 41.2032 15.7183 41.222 15.44 41.264V40.264C15.27 40.348 15.214 40.376 14.991 40.475C14.8545 40.0309 14.6354 39.6167 14.345 39.254C15.426 38.946 15.902 38.609 16.098 37.992H15.636C15.2842 37.9885 14.9325 38.0072 14.583 38.048V36.719C14.9411 36.7642 15.3021 36.783 15.663 36.775H17.333V36.101H16.195C15.8612 36.0981 15.5274 36.1121 15.195 36.143V34.853C15.5543 34.9082 15.9176 34.933 16.281 34.927H17.334V34.716C17.3375 34.4615 17.3137 34.2074 17.263 33.958H18.763C18.7125 34.2027 18.6897 34.4522 18.695 34.702V34.927H19.648C20.0284 34.9452 20.4097 34.9217 20.785 34.857V36.147C20.4582 36.1165 20.1302 36.1025 19.802 36.105H18.692V36.779H20.038C20.3895 36.7829 20.7409 36.7689 21.091 36.737V38.037C20.7507 38.0046 20.4088 37.9906 20.067 37.995H19.731V38.595C19.731 38.735 19.772 38.763 19.982 38.763C20.347 38.763 20.374 38.721 20.417 38.145C20.7408 38.2963 21.0863 38.3959 21.441 38.44C21.299 39.507 21.076 39.688 19.913 39.688C19.056 39.688 18.776 39.588 18.622 39.225C18.608 39.465 18.594 39.618 18.594 39.955V40.039H19.716C20.002 40.0444 20.2879 40.0303 20.572 39.997V41.246C20.2832 41.214 19.9926 41.2 19.702 41.204H18.594V41.933C19.281 41.849 19.674 41.793 20.726 41.638V42.48C21.3895 41.9519 21.8898 41.2467 22.169 40.446C21.819 40.053 21.692 39.913 21.2 39.421L22.042 38.313L22.589 38.889C22.6649 38.4202 22.7027 37.9459 22.702 37.471H22.393C22.0828 37.4636 21.7726 37.4871 21.467 37.541V36.027C21.7736 36.0707 22.0833 36.0894 22.393 36.083H22.73V35.283C22.7405 34.8606 22.7121 34.4382 22.645 34.021H24.217C24.1631 34.4067 24.1347 34.7956 24.132 35.185C24.119 35.55 24.119 35.718 24.105 36.085H24.919C25.3132 36.0927 25.7074 36.0693 26.098 36.015C26.069 36.296 26.041 36.773 26.041 37.264C26.0518 38.5157 26.131 39.7659 26.278 41.009C26.2968 41.2855 26.3785 41.554 26.517 41.794C26.7354 41.164 26.8215 40.4958 26.77 39.831C27.0748 40.0732 27.4151 40.2668 27.779 40.405C27.579 42.594 27.233 43.436 26.504 43.436C25.969 43.436 25.521 42.945 25.228 42.004C24.838 40.5263 24.6675 38.9993 24.722 37.472H24.035C24.01 38.3566 23.892 39.2361 23.683 40.096C24.0988 40.567 24.4789 41.0684 24.82 41.596L23.92 42.831C23.527 42.213 23.375 41.976 23.12 41.625C22.7127 42.5353 22.0918 43.3339 21.31 43.953C21.0556 43.5531 20.7533 43.1858 20.41 42.859C18.851 43.14 18.851 43.14 17.184 43.35C15.612 43.561 15.178 43.616 14.884 43.686L14.617 42.199H14.799C14.8737 42.2081 14.9488 42.2128 15.024 42.213C15.444 42.213 16.258 42.157 17.311 42.059V41.204L16.281 41.208ZM14.581 45.963C15.3744 45.3713 16.0064 44.5897 16.419 43.69L17.709 44.336C17.2686 45.3189 16.6394 46.2058 15.857 46.946L14.581 45.963ZM17.317 39.945C17.3256 39.6542 17.3065 39.3632 17.26 39.076H18.593V37.995H17.415C17.3193 38.4236 17.1329 38.8268 16.8683 39.1773C16.6037 39.5278 16.267 39.8175 15.881 40.027C16.0163 40.04 16.1522 40.0447 16.288 40.041H17.313L17.317 39.945ZM18.732 46.845C18.7607 45.961 18.6937 45.0765 18.532 44.207L19.932 44.067C20.1307 44.9375 20.2393 45.8262 20.256 46.719L18.732 46.845ZM22.058 46.859C21.9392 45.9637 21.6983 45.0889 21.342 44.259L22.732 43.964C23.1058 44.7753 23.3836 45.6274 23.56 46.503L22.058 46.859ZM25.944 46.901C25.4631 45.9246 24.8581 45.0144 24.144 44.193L25.393 43.593C26.1346 44.3585 26.7932 45.2001 27.358 46.104L25.944 46.901Z" fill="#DB8FB5"/>
<path id="Path 100573" d="M28.477 45.878C29.1722 45.1839 29.7002 44.3405 30.021 43.412L31.381 43.973C31.007 44.9891 30.4614 45.9335 29.768 46.765L28.477 45.878ZM34.132 34.739C34.1315 34.4427 34.1037 34.1472 34.049 33.856H35.787C35.7297 34.1468 35.7019 34.4426 35.704 34.739V34.865H39.014C39.5114 34.8732 40.0087 34.8451 40.502 34.781V36.143C40.0034 36.0973 39.5026 36.0786 39.002 36.087H38.216C38.0952 36.3696 37.9597 36.6456 37.81 36.914H39.718C40.2523 36.9286 40.7869 36.9055 41.318 36.845V38.205C40.7827 38.1435 40.2436 38.1201 39.705 38.135H30.332C29.7934 38.1205 29.2544 38.1439 28.719 38.205V36.845C29.2722 36.9042 29.8288 36.9266 30.385 36.912H32.138C32.013 36.603 31.938 36.45 31.76 36.085H31.001C30.5193 36.0759 30.0375 36.0946 29.558 36.141V34.781C30.0509 34.8456 30.5479 34.8737 31.045 34.865H34.132V34.739ZM31.578 43.112C30.978 43.112 30.595 43.127 30.202 43.155C30.2482 42.806 30.2673 42.4539 30.259 42.102V39.888C30.2659 39.4712 30.2469 39.0544 30.202 38.64C30.595 38.668 30.96 38.681 31.718 38.681H38.242C39.083 38.681 39.378 38.668 39.771 38.64C39.7228 39.0542 39.7041 39.4712 39.715 39.888V41.978C39.7107 42.3718 39.7294 42.7654 39.771 43.157C39.589 43.142 39.571 43.142 39.294 43.129H38.932C38.764 43.114 38.637 43.114 38.54 43.114H35.352C35.8426 43.4482 36.3072 43.8189 36.742 44.223L35.577 45.134C35.1135 44.5693 34.5806 44.0653 33.991 43.634L34.679 43.115L31.578 43.112ZM31.718 40.377H38.256V39.801H31.718V40.377ZM31.718 41.99H38.256V41.414H31.718V41.99ZM33.386 45.19C33.386 45.358 33.429 45.415 33.612 45.457C34.011 45.5184 34.4144 45.5465 34.818 45.541C36.446 45.541 36.895 45.485 37.035 45.275C37.1656 44.9063 37.2134 44.5133 37.175 44.124C37.6329 44.3279 38.121 44.4559 38.62 44.503C38.578 45.555 38.466 46.003 38.213 46.284C37.821 46.705 37.246 46.784 34.818 46.784C32.39 46.784 31.918 46.631 31.918 45.803V44.574C31.9292 44.2262 31.9054 43.8781 31.847 43.535H33.461C33.4038 43.8782 33.38 44.2262 33.39 44.574L33.386 45.19ZM36.221 36.912C36.3734 36.6449 36.5093 36.3687 36.628 36.085H33.318C33.4547 36.3537 33.5762 36.6298 33.682 36.912H36.221ZM40.232 46.594C39.6876 45.6481 39.0429 44.7637 38.309 43.956L39.544 43.256C40.2673 44.0129 40.92 44.8344 41.494 45.71L40.232 46.594Z" fill="#DB8FB5"/>
<path id="Path 100574" d="M68.827 45.289C68.8211 45.8325 68.8441 46.3759 68.896 46.917H67.283C67.343 46.3721 67.3714 45.8242 67.368 45.276V41.094C67.368 40.604 67.368 40.562 67.41 39.537C67.1196 40.0781 66.7712 40.5861 66.371 41.052C66.2131 40.4754 65.9967 39.9165 65.725 39.384C66.6738 38.3394 67.3999 37.1124 67.859 35.778C68.1065 35.1551 68.2804 34.5053 68.377 33.842L69.92 34.375C69.878 34.514 69.78 34.796 69.639 35.216C69.4194 35.9225 69.1476 36.6117 68.826 37.278L68.827 45.289ZM69.57 36.424C69.9557 36.4797 70.3454 36.5031 70.735 36.494H77.566C78.0072 36.5001 78.4482 36.472 78.885 36.41V37.855C78.447 37.8064 78.0066 37.783 77.566 37.785H70.737C70.3474 37.7777 69.9579 37.8011 69.572 37.855L69.57 36.424ZM71.746 46.932H70.229C70.2774 46.5004 70.3008 46.0663 70.299 45.632V43.648C70.3041 43.2452 70.2854 42.8425 70.243 42.442C70.538 42.47 70.917 42.484 71.394 42.484H76.71C77.257 42.484 77.594 42.47 77.902 42.442C77.8589 42.8378 77.8406 43.2359 77.847 43.634V45.599C77.839 46.0394 77.862 46.4798 77.916 46.917H76.374V46.271H71.745L71.746 46.932ZM77.846 39.805C77.4827 39.7611 77.1168 39.7424 76.751 39.749H71.379C71.0447 39.7418 70.7104 39.7605 70.379 39.805V38.472C70.7102 38.518 71.0447 38.5367 71.379 38.528H76.737C77.1075 38.5337 77.478 38.515 77.846 38.472V39.805ZM77.846 41.783C77.4873 41.7403 77.1262 41.7216 76.765 41.727H71.379C71.0447 41.7178 70.7102 41.7365 70.379 41.783V40.45C70.7103 40.4954 71.0447 40.5142 71.379 40.506H76.753C77.1188 40.5121 77.4847 40.4934 77.848 40.45L77.846 41.783ZM77.846 35.793C77.3887 35.7487 76.9293 35.73 76.47 35.737H71.745C71.3232 35.7292 70.9014 35.7479 70.482 35.793V34.446C70.942 34.5078 71.4059 34.5358 71.87 34.53H76.359C76.8564 34.5391 77.3538 34.511 77.847 34.446L77.846 35.793ZM76.372 43.775H71.745V44.953H76.374L76.372 43.775Z" fill="#8CC5D1"/>
<path id="Path 100575" d="M86.259 36.705C85.922 36.677 85.627 36.662 85.067 36.662H83.916V37.588H84.842C85.2308 37.5972 85.6198 37.5785 86.006 37.532C85.9648 37.9048 85.9508 38.2801 85.964 38.655V40.521C85.9578 40.9001 85.9718 41.2794 86.006 41.657C85.655 41.63 85.432 41.615 84.87 41.615H84.252C84.8176 42.3848 85.5317 43.0335 86.352 43.523C86.0431 43.8999 85.7923 44.3209 85.608 44.772C85.483 44.646 85.483 44.646 85.062 44.267C84.6063 43.8588 84.2011 43.3975 83.855 42.893C83.897 43.538 83.911 44.001 83.911 44.52V45.459C83.8904 45.938 83.9186 46.4177 83.995 46.891H82.495C82.5556 46.4159 82.5794 45.9368 82.566 45.458V44.575C82.566 44.07 82.579 43.635 82.608 43.06C82.0744 44.0889 81.3565 45.0112 80.49 45.781C80.3236 45.2913 80.0558 44.8421 79.704 44.463C80.7352 43.7043 81.5915 42.7331 82.215 41.615H81.666C81.092 41.615 80.895 41.63 80.488 41.657C80.5324 41.2332 80.5511 40.8071 80.544 40.381V38.767C80.5502 38.3546 80.5315 37.9422 80.488 37.532C80.9397 37.5796 81.3939 37.5983 81.848 37.588H82.566V36.661H81.626C81.1157 36.6523 80.6053 36.6713 80.097 36.718V35.246C80.6043 35.3058 81.1153 35.3288 81.626 35.315H82.566C82.581 34.8931 82.5576 34.4707 82.496 34.053H83.984C83.9209 34.4376 83.8971 34.8276 83.913 35.217V35.317H85.077C85.4472 35.3238 85.8174 35.3098 86.186 35.275V34.35C86.6793 34.4141 87.1766 34.4422 87.674 34.434H91.335C91.841 34.4491 92.3475 34.4257 92.85 34.364V35.851C92.3474 35.7905 91.841 35.7671 91.335 35.781H90.299C90.159 36.202 90.046 36.511 89.906 36.833H91.014C91.758 36.833 92.039 36.82 92.377 36.791C92.348 37.171 92.334 37.591 92.334 38.124V42.754C92.334 43.3 92.348 43.806 92.377 44.199C91.899 44.171 91.591 44.157 91.184 44.157H90.791C91.4404 44.9354 92.2889 45.523 93.246 45.857C92.8674 46.1878 92.5493 46.582 92.306 47.022C91.3191 46.4897 90.4379 45.7814 89.706 44.932L90.632 44.16H88.032L89.032 44.946C88.2646 45.8643 87.2812 46.5777 86.17 47.022C85.9578 46.5856 85.6626 46.1946 85.301 45.871C86.032 45.6455 86.7115 45.2785 87.301 44.791C87.521 44.6002 87.7219 44.3886 87.901 44.159H87.701C87.239 44.159 86.888 44.173 86.607 44.201C86.635 43.766 86.635 43.527 86.635 42.925V38.107C86.635 37.475 86.621 37.195 86.593 36.807C86.916 36.821 87.169 36.834 87.785 36.834H88.417C88.567 36.4923 88.6936 36.1408 88.796 35.782H87.266C86.9291 35.7761 86.5922 35.7901 86.257 35.824L86.259 36.705ZM81.826 40.352H82.566V38.852H81.822L81.826 40.352ZM83.916 40.352H84.702V38.852H83.916V40.352ZM88.028 38.893H90.945V38.093H88.027L88.028 38.893ZM88.028 40.857H90.945V40.041H88.027L88.028 40.857ZM88.028 42.877H90.945V42.007H88.027L88.028 42.877Z" fill="#8CC5D1"/>
</g>
</g>
</g>
</g>
</g>
</svg>
