<svg width="190" height="150" viewBox="0 0 190 150" fill="none" xmlns="http://www.w3.org/2000/svg">
<g id="&#227;&#130;&#162;&#227;&#131;&#188;&#227;&#131;&#136;&#227;&#131;&#175;&#227;&#131;&#188;&#227;&#130;&#175; 38">
<g id="Group 47687">
<path id="Path 100917" d="M38.604 128.965L76.439 146.716C77.1558 146.979 77.9288 147.052 78.682 146.926L79.032 146.868L95.512 139.989" stroke="#1788DD" stroke-width="1.416" stroke-miterlimit="10"/>
<g id="Group 47668">
<path id="Path 100918" d="M3.938 148.814L110.138 94.4999C110.602 94.2619 110.991 93.9006 111.263 93.4556C111.535 93.0107 111.679 92.4994 111.679 91.9779V8.22194C111.679 7.87116 111.589 7.52626 111.417 7.22034C111.246 6.91441 110.998 6.65773 110.699 6.47491C110.399 6.29209 110.058 6.18928 109.708 6.17632C109.357 6.16337 109.009 6.24072 108.697 6.40094L1.95 60.9899C1.3627 61.2918 0.869961 61.7497 0.525948 62.3134C0.181934 62.877 -4.57888e-05 63.5246 3.83966e-06 64.1849V146.41C-0.000777769 146.873 0.117782 147.329 0.344271 147.734C0.570759 148.138 0.897548 148.478 1.29317 148.719C1.6888 148.961 2.13994 149.096 2.60316 149.113C3.06638 149.129 3.52608 149.026 3.938 148.814Z" fill="#EAF1F7"/>
<path id="Path 100919" d="M1.95 55.326L108.701 0.731997C109.013 0.571771 109.361 0.494425 109.712 0.507378C110.062 0.52033 110.403 0.623148 110.703 0.805966C111.002 0.988785 111.25 1.24547 111.421 1.55139C111.593 1.85732 111.683 2.20221 111.683 2.553V7.971L1.01481e-08 65.099V58.521C-4.96183e-05 57.8607 0.18193 57.2131 0.525944 56.6494C0.869958 56.0858 1.36269 55.6279 1.95 55.326Z" fill="url(#paint0_linear_1_120)"/>
</g>
<g id="Group 47673">
<g id="Group 47672">
<path id="Path 100920" d="M12.575 139.62L104.266 93.32C104.772 93.0601 105.197 92.6656 105.494 92.1799C105.79 91.6942 105.947 91.1361 105.947 90.567V21.576C105.947 21.193 105.849 20.8165 105.661 20.4825C105.474 20.1485 105.204 19.8682 104.877 19.6686C104.55 19.4691 104.177 19.3568 103.794 19.3427C103.412 19.3286 103.032 19.4131 102.691 19.588L10.406 66.192C9.76475 66.521 9.22663 67.0205 8.85085 67.6355C8.47506 68.2505 8.27616 68.9573 8.276 69.678V136.992C8.27523 137.498 8.40465 137.996 8.65182 138.437C8.89899 138.879 9.2556 139.25 9.68737 139.514C10.1191 139.777 10.6115 139.926 11.1173 139.945C11.623 139.963 12.125 139.851 12.575 139.62Z" fill="white"/>
<g id="Group 47671">
<g id="Group 47670">
<g id="Group 47669">
<path id="Path 100921" d="M24.395 86.461V113.761L31.126 110.234V82.777L24.395 86.461Z" fill="url(#paint1_linear_1_120)"/>
<path id="Path 100922" d="M35.664 92.616V107.828L42.398 104.301V88.933L35.664 92.616Z" fill="#1788DD"/>
<path id="Path 100923" d="M46.932 82.162V101.889L53.663 98.362V78.479L46.932 82.162Z" fill="#1788DD"/>
<path id="Path 100924" d="M58.201 68.647V95.947L64.932 92.42V64.964L58.201 68.647Z" fill="#1788DD"/>
<path id="Path 100925" d="M69.469 54.234V90.013L76.2 86.486V50.551L69.469 54.234Z" fill="#1788DD"/>
<path id="Path 100926" d="M80.742 41.12V84.076L87.473 80.549V37.437L80.742 41.12Z" fill="#1788DD"/>
<path id="Path 100927" d="M92.007 50.833V78.133L98.738 74.606V47.15L92.007 50.833Z" fill="#1788DD"/>
</g>
<path id="Path 100928" d="M105.636 84.148L105.272 83.4L17.819 129.224V124.286L18.133 124.121L17.819 123.475V117.215L18.133 117.051L17.819 116.405V110.145L18.133 109.981L17.819 109.335V103.069L18.133 102.905L17.819 102.259V95.999L18.133 95.835L17.819 95.189V88.925L18.133 88.76L17.819 88.114V81.854L18.133 81.69L17.819 81.044V74.784L18.133 74.62L17.819 73.974V69.074L16.972 69.118V74.293L12.712 76.525L13.076 77.273L16.976 75.232V81.364L12.716 83.596L13.08 84.344L16.98 82.303V88.435L12.72 90.67L13.084 91.418L16.984 89.374V95.504L12.724 97.736L13.088 98.484L16.988 96.443V102.574L12.713 104.804L13.077 105.552L16.977 103.511V109.646L12.717 111.878L13.081 112.626L16.981 110.585V116.717L12.721 118.949L13.085 119.697L16.985 117.656V123.788L12.725 126.023L13.089 126.771L16.989 124.727V130.604L105.636 84.148Z" fill="url(#paint2_linear_1_120)"/>
</g>
<path id="Path 100929" d="M18.887 76.263L27.669 70.063V79.652L32.657 71.538L43.275 74.857L57.701 71.538L62.223 81.68L72.497 76.265L75.913 86.107L81.483 76.445L90.857 79.469L100.899 69.078L104.627 70.978" stroke="#E2E100" stroke-width="1.062" stroke-miterlimit="10"/>
</g>
</g>
<path id="Ellipse 2384" d="M57.534 78.008C60.5666 78.008 63.025 75.5496 63.025 72.517C63.025 69.4844 60.5666 67.026 57.534 67.026C54.5014 67.026 52.043 69.4844 52.043 72.517C52.043 75.5496 54.5014 78.008 57.534 78.008Z" fill="#E2E100"/>
<path id="Ellipse 2385" d="M76.299 91.1991C78.7252 91.1991 80.692 89.2323 80.692 86.8061C80.692 84.3799 78.7252 82.4131 76.299 82.4131C73.8728 82.4131 71.906 84.3799 71.906 86.8061C71.906 89.2323 73.8728 91.1991 76.299 91.1991Z" fill="#E2E100"/>
<path id="Ellipse 2386" d="M26.883 86.807C29.3092 86.807 31.276 84.8402 31.276 82.414C31.276 79.9878 29.3092 78.021 26.883 78.021C24.4568 78.021 22.49 79.9878 22.49 82.414C22.49 84.8402 24.4568 86.807 26.883 86.807Z" fill="#E2E100"/>
<path id="Ellipse 2387" d="M43.379 76.923C44.6045 76.923 45.598 75.9295 45.598 74.704C45.598 73.4785 44.6045 72.485 43.379 72.485C42.1535 72.485 41.16 73.4785 41.16 74.704C41.16 75.9295 42.1535 76.923 43.379 76.923Z" fill="#E2E100"/>
<path id="Ellipse 2388" d="M90.575 81.292C91.8005 81.292 92.794 80.2985 92.794 79.073C92.794 77.8475 91.8005 76.854 90.575 76.854C89.3495 76.854 88.356 77.8475 88.356 79.073C88.356 80.2985 89.3495 81.292 90.575 81.292Z" fill="#E2E100"/>
</g>
<path id="Path 100930" d="M76.401 127.615L106.472 113.297C107.737 112.695 109.12 112.379 110.522 112.373C111.923 112.368 113.309 112.672 114.579 113.264L146.095 127.956C146.476 128.132 146.799 128.414 147.025 128.768C147.251 129.122 147.371 129.533 147.371 129.953C147.371 130.372 147.251 130.783 147.025 131.137C146.799 131.491 146.476 131.773 146.095 131.949L113.45 147.211C112.763 147.532 112.014 147.699 111.255 147.7C110.497 147.702 109.747 147.537 109.059 147.219L76.426 132.128C75.9967 131.929 75.633 131.612 75.3772 131.214C75.1215 130.815 74.9843 130.353 74.9816 129.879C74.979 129.406 75.1111 128.942 75.3624 128.541C75.6137 128.14 75.974 127.819 76.401 127.615Z" fill="url(#paint3_linear_1_120)"/>
<g id="Group 47684">
<g id="Group 47683">
<g id="Group 47682">
<g id="Group 47674">
<path id="Path 100931" d="M109.54 119.481C111.067 120.362 112.092 121.965 115.146 123.511C116.919 124.406 121.207 125.121 121.038 123.157C121.03 123.045 121.01 122.935 120.977 122.828C121.112 123.094 121.199 123.38 121.236 123.676C121.403 125.642 117.118 124.928 115.344 124.03C112.292 122.485 111.263 120.881 109.738 119.998C109.547 119.889 109.319 119.77 109.08 119.644V120.123L106.035 118.696C105.917 118.344 105.858 117.975 105.862 117.604C106.253 117.948 108.462 118.854 109.54 119.481Z" fill="#00267E"/>
<path id="Path 100932" d="M113.179 114.64C113.419 115.405 113.779 116.127 114.244 116.78C114.64 117.24 115.114 117.626 115.644 117.921C117.406 118.713 120.888 121.352 121.044 123.158C121.213 125.122 116.925 124.407 115.152 123.512C112.098 121.966 111.072 120.363 109.546 119.482C108.388 118.808 105.918 117.812 105.812 117.538C105.664 116.863 105.683 116.162 105.867 115.496C110.579 118.353 111.665 114.954 113.179 114.64Z" fill="#00267E"/>
</g>
<g id="Group 47675">
<path id="Path 100933" d="M102.904 121.941C102.792 123.106 103.986 124.79 104.088 124.923C104.701 125.713 109.677 131.084 107.131 132.4C104.585 133.716 100.305 131.457 99.406 129.544C98.507 127.631 98.663 126.344 97.52 125.202C96.6982 124.482 96.0944 123.547 95.777 122.502C95.6864 121.906 95.7766 121.297 96.036 120.753C96.175 120.461 97.51 123.179 98.861 123.373C100.052 123.551 102.021 122.341 102.904 121.941Z" fill="#00267E"/>
<path id="Path 100934" d="M97.52 125.203C98.663 126.344 98.507 127.636 99.406 129.545C100.305 131.454 104.583 133.717 107.131 132.401C107.292 132.325 107.435 132.215 107.549 132.079C107.664 131.942 107.748 131.783 107.795 131.611C107.81 131.85 107.757 132.087 107.642 132.297C107.527 132.506 107.355 132.679 107.146 132.795C104.74 134.04 100.332 131.933 99.479 130.126C98.649 128.367 98.765 127.156 97.771 126.099L97.744 126.44C96.9943 125.794 96.3644 125.021 95.883 124.156L95.937 123.026C96.3104 123.852 96.8491 124.593 97.52 125.203Z" fill="#00267E"/>
</g>
<path id="Path 100935" d="M107.291 75.4651L107.275 68.4001C107.275 68.4001 113.629 69.0841 116.294 65.8371C116.297 65.8319 116.302 65.8279 116.308 65.8258C116.313 65.8237 116.32 65.8235 116.325 65.8254C116.331 65.8272 116.336 65.831 116.339 65.836C116.343 65.841 116.344 65.847 116.344 65.8531C116.33 67.0861 116.344 76.5261 115.213 88.9731C114.623 95.4631 114.63 104.227 114.332 107.058C114.034 109.889 113.305 114.652 114.655 117.318C114.655 117.318 108.926 119.241 105.412 116.518L106.344 103.551L107.291 75.4651Z" fill="url(#paint4_linear_1_120)"/>
<path id="Path 100936" d="M111.406 68.757C111.406 68.757 111.077 76.568 110.478 78.786C110.123 80.1812 109.856 81.5973 109.678 83.026C109.096 87.433 108.394 94.898 108.178 96.744C107.763 100.369 106.36 107.421 105.978 109.882C105.596 112.343 104.333 124.82 104.333 124.82C104.333 124.82 98.317 124.661 95.671 121.266C95.671 121.266 96.482 110.238 96.941 106.652C97.4 103.066 97.38 87.944 97.422 81.852C97.464 75.76 99.722 67.432 99.722 67.432C99.722 67.432 100.92 70.243 111.406 68.757Z" fill="url(#paint5_linear_1_120)"/>
<g id="Group 47676">
<path id="Path 100937" d="M111.405 38.4151C111.405 38.4151 114.864 48.4921 114.821 52.6151C114.778 56.7381 115.886 66.743 115.886 66.743C115.886 66.743 115.073 68.3211 111.808 68.9071C110.024 69.2707 108.191 69.3352 106.386 69.0981C106.386 69.0981 102.153 50.5891 101.137 47.9441C100.121 45.2991 101.702 38.0031 101.702 38.0031C101.702 38.0031 105.302 41.2761 108.23 40.1471C111.158 39.0181 111.405 38.4151 111.405 38.4151Z" fill="#E6F6FF"/>
<path id="Path 100938" d="M114.182 65.4511L112.25 68.0311L110.629 66.4561C110.629 66.4561 110.415 57.9281 110.029 53.4421C109.692 49.5631 109.192 45.7421 109.045 43.5351C108.226 43.0727 107.474 42.5008 106.81 41.8351C106.81 41.8351 107.291 40.1881 108.237 39.8261C109.183 39.4641 110.245 40.9421 110.245 40.9421C110.256 41.6954 110.153 42.446 109.938 43.1681" fill="#1788DD"/>
<path id="Path 100939" d="M101.619 31.6521L110.004 35.2221C110.004 35.2221 110.345 39.5691 108.343 40.1221C106.341 40.6751 101.143 35.6431 101.143 35.6431C102.021 34.6171 101.619 31.6521 101.619 31.6521Z" fill="url(#paint6_linear_1_120)"/>
<path id="Path 100940" d="M109.399 35.5081H109.906C111.424 38.3951 110.706 42.2981 110.706 42.2981L108.234 39.8261C110.253 38.4861 109.399 35.5081 109.399 35.5081Z" fill="#FDFDFD"/>
<path id="Path 100941" d="M101.104 35.144C101.104 35.144 102.016 38.01 108.235 39.826L107.227 43.249C107.227 43.249 102.227 40.135 99.774 36.54L101.104 35.144Z" fill="#FDFDFD"/>
</g>
<path id="Path 100942" d="M112.536 35.2221C113.5 35.8221 116.436 42.0931 116.76 44.9291C117.084 47.7651 116.436 56.8551 116.56 60.0811C116.684 63.3071 119.336 75.7341 119.336 75.7341C117.53 81.0161 116.174 77.4281 116.021 76.6131C114.788 70.0131 114.241 55.6321 113.336 48.7321C112.64 44.2047 111.181 39.8282 109.021 35.7891L110.08 34.6431L112.536 35.2221Z" fill="url(#paint7_linear_1_120)"/>
<path id="Path 100943" d="M109.021 35.79L110.613 35.222L114.149 40.854L113.108 42.298C113.108 42.298 114.974 42.624 115.224 42.706C115.474 42.788 115.601 48.672 115.324 52.311C115.171 54.35 114.724 57.196 114.353 59.311C114.023 55.337 113.704 51.534 113.338 48.73C112.641 44.2036 111.182 39.8282 109.021 35.79Z" fill="url(#paint8_linear_1_120)"/>
<g id="Group 47677">
<path id="Path 100944" d="M100.488 35.79C100.488 35.79 103.159 40.735 104.788 43.249C106.417 45.763 108.96 53.072 109.215 57.717C109.477 62.454 109.323 78.96 108.523 80.752C107.723 82.544 95.277 78.552 95.277 78.552C95.277 78.552 96.522 69.333 97.422 65.552C98.322 61.771 96.077 53.932 94.764 51.852C93.451 49.772 91.964 43.721 93.308 42.299C95.5836 40.0029 97.9804 37.8302 100.488 35.79Z" fill="url(#paint9_linear_1_120)"/>
<path id="Path 100945" d="M98.727 37.0931L100.491 35.7931C100.491 35.7931 103.162 40.7381 104.791 43.2521C106.42 45.7661 108.963 53.0751 109.218 57.7201C109.272 58.6631 109.262 60.0301 109.212 61.6271C108.655 59.7271 107.612 57.1861 107.228 56.1071C105.788 52.0071 101.942 47.6591 102.241 47.1461C102.772 46.5072 103.362 45.9203 104.004 45.3931L101.986 45.6071C101.986 45.6071 99.644 40.2261 98.727 37.0931Z" fill="url(#paint10_linear_1_120)"/>
</g>
<g id="Group 47678">
<path id="Path 100946" d="M101.421 29.4851C101.421 29.4851 100.702 28.5901 99.951 28.9791C99.2 29.3681 99.433 30.1031 99.824 30.7731C100.215 31.4431 101.614 32.9211 102.124 32.4651C102.634 32.0091 101.421 29.4851 101.421 29.4851Z" fill="url(#paint11_linear_1_120)"/>
<path id="Path 100947" d="M108.761 21.178C109.984 21.878 111.052 23.818 111.561 25.135C111.903 25.8958 112.07 26.724 112.048 27.558C112.017 27.884 111.548 28.379 111.753 28.798C111.948 29.5995 111.974 30.433 111.828 31.245C111.709 32.045 111.301 33.157 111.25 33.87C111.199 34.583 111.472 36.37 109.663 36.675C107.854 36.98 103.656 35.405 102.226 33.261C100.796 31.117 99.138 29.374 98.918 26.781C98.7503 25.5705 98.9286 24.3373 99.4322 23.2239C99.9358 22.1105 100.744 21.1623 101.764 20.489C103.935 19.051 106.764 20.034 108.761 21.178Z" fill="url(#paint12_linear_1_120)"/>
<path id="Path 100948" d="M107.093 19.2261C110.278 19.8041 111.881 22.3631 111.935 23.3031C111.975 23.5395 111.928 23.7825 111.801 23.9863C111.675 24.19 111.478 24.3404 111.248 24.4091C111.187 24.6884 111.058 24.9484 110.872 25.1661C110.687 25.3839 110.451 25.5528 110.185 25.6581C109.093 25.9671 105.901 25.3001 105.285 26.1641C104.669 27.0281 104.685 27.6781 104.175 28.0371C103.589 28.8448 103.159 29.7542 102.905 30.7191C102.888 30.8901 101.205 29.0281 99.637 29.3031C99.2407 28.5155 98.9968 27.6602 98.918 26.7821C98.895 26.5371 98.89 26.2961 98.887 26.0601C97.993 19.6551 103.905 18.6521 107.093 19.2261Z" fill="url(#paint13_linear_1_120)"/>
<path id="Path 100949" d="M99.634 29.3031C99.2377 28.5155 98.9938 27.6602 98.915 26.7821C98.892 26.5371 98.887 26.2981 98.884 26.0601C100.484 27.2501 103.338 27.6321 104.452 27.7411C104.378 27.8575 104.284 27.9593 104.173 28.0411C103.587 28.8488 103.157 29.7582 102.903 30.7231C102.885 30.8901 101.203 29.0281 99.634 29.3031Z" fill="#281080"/>
</g>
<g id="Group 47679">
<path id="Path 100950" d="M103.833 61.116C104.885 61.2191 105.947 61.1516 106.978 60.916C107.978 60.529 110.623 59.987 112.002 60.508C113.567 61.0348 115.012 61.8649 116.256 62.951C117.135 63.959 116.733 64.487 116.168 64.487C116.168 64.487 117.068 65.087 116.55 65.667C116.295 65.954 115.327 65.667 115.327 65.667C115.327 65.667 115.896 66.208 115.327 66.525C114.914 66.7086 114.447 66.7342 114.016 66.597C114.016 66.597 113.961 67.067 113.716 67.182C113.181 67.435 111.884 66.919 111.04 66.597C109.964 66.3007 108.856 66.1329 107.74 66.097C106.96 66.052 105.364 65.117 104.54 64.964C103.597 64.8909 102.649 64.9067 101.709 65.011L103.833 61.116Z" fill="url(#paint14_linear_1_120)"/>
<path id="Path 100951" d="M105.283 61.0271H106.233C105.499 62.6102 105.303 64.39 105.674 66.0951H104.149C103.926 65.216 103.871 64.3026 103.988 63.4031C104.008 62.9344 104.135 62.4766 104.36 62.0647C104.584 61.6528 104.9 61.2979 105.283 61.0271Z" fill="#EEF5F9"/>
<path id="Path 100952" d="M105.673 60.8401C105.673 60.8401 103.986 64.2261 105.087 66.7401C105.087 66.7401 93.842 66.7951 90.987 66.0701C89.765 65.7611 88.628 65.5521 88.087 64.8821C87.365 63.9871 87.474 62.5141 87.566 61.2021C88.2151 56.7629 89.1907 52.3777 90.485 48.0821C91.493 45.0251 92.353 40.8531 96.145 41.7001C99.937 42.5471 99.154 49.0911 97.908 51.8661C96.662 54.6411 94.086 60.2761 94.086 60.2761L105.673 60.8401Z" fill="url(#paint15_linear_1_120)"/>
</g>
<g id="Group 47681">
<g id="Group 47680">
<path id="Path 100953" d="M137.347 46.0732L140.353 45.0352C140.353 45.0352 140.806 42.7992 140.953 42.4532C141.772 41.8672 142.65 41.3669 143.571 40.9602C143.81 40.8082 144.564 40.7312 144.666 41.1402C144.666 41.1402 145.982 40.3742 146.901 39.8502C147.82 39.3262 149.263 38.6632 149.601 39.2372C149.939 39.8112 149.628 39.9762 148.848 40.4772C148.068 40.9782 146.129 42.1982 146.129 42.1982L146.514 42.3382C147.137 41.9874 147.796 41.7047 148.48 41.4952C148.674 41.5178 148.853 41.6087 148.986 41.7516C149.12 41.8945 149.197 42.0801 149.206 42.2752C149.234 42.6393 149.182 43.0051 149.054 43.3472C149.054 43.3472 149.704 43.5132 149.628 44.0612C149.576 44.4509 149.386 44.8089 149.091 45.0692C148.82 45.2443 148.522 45.3733 148.209 45.4512C148.383 45.5499 148.575 45.6147 148.773 45.6422C148.99 45.6422 149.665 45.9122 149.512 46.3562C149.359 46.8002 149.079 47.1112 148.236 47.1112C147.375 47.1177 146.533 47.3561 145.796 47.8012C144.882 48.1757 143.898 48.3463 142.911 48.3012C141.947 48.3716 141.007 48.6326 140.145 49.0692C139.291 49.4752 138.626 49.8342 138.626 49.8342L137.347 46.0732Z" fill="url(#paint16_linear_1_120)"/>
</g>
<path id="Path 100954" d="M139.229 45.229L140.129 44.899L141.407 49.624L140.165 50.049L139.229 45.229Z" fill="#EEF5F9"/>
<path id="Path 100955" d="M116.76 44.9291C116.447 42.1831 113.686 36.2201 112.635 35.2981C114.139 35.6989 115.504 36.5069 116.579 37.6331C117.531 38.6601 123.487 45.0941 124.579 46.0161C125.671 46.9381 127.597 48.3671 127.597 48.3671C127.597 48.3671 130.108 47.5801 132.644 46.9671C135.18 46.3541 139.362 45.0281 139.362 45.0281L141.046 50.8591C141.046 50.8591 131.89 54.1261 129.383 55.0721C126.876 56.0181 125.276 55.4251 123.471 53.9041C122.12 52.7641 118.559 49.8651 116.841 48.4701C116.879 47.2892 116.852 46.1071 116.76 44.9291Z" fill="url(#paint17_linear_1_120)"/>
<path id="Path 100956" d="M116.76 44.9291C116.395 43.004 115.784 41.1338 114.943 39.3641C115.64 39.8939 116.255 40.5225 116.77 41.2301C118.37 43.4771 120.212 46.6241 121.888 48.9151C123.429 51.0151 126.48 53.0461 126.967 55.3281C125.661 55.3183 124.408 54.8075 123.467 53.9011C122.116 52.7611 118.555 49.8621 116.837 48.4671C116.876 47.2873 116.85 46.1062 116.76 44.9291Z" fill="url(#paint18_linear_1_120)"/>
</g>
</g>
</g>
</g>
<g id="Group 47686">
<g id="Group 47685">
<path id="Path 100957" d="M170.732 140.395C170.732 140.395 172.251 140.695 172.346 141.212C172.441 141.729 171.87 142.29 172.567 142.29C173.264 142.29 175.225 140.469 175.667 140.395C176.109 140.321 175.731 142.587 175.667 142.884C175.603 143.181 170.382 147.122 169.433 146.825C168.484 146.528 166.458 146.007 167.533 144.817C168.525 143.849 169.455 142.819 170.317 141.733C170.575 141.333 170.719 140.871 170.732 140.395Z" fill="#0A2A50"/>
<path id="Path 100958" d="M161.122 135.694C161.122 135.694 162.517 135.967 162.605 136.446C162.693 136.925 162.169 137.436 162.805 137.436C163.441 137.436 165.248 135.762 165.654 135.694C166.06 135.626 165.712 137.709 165.654 137.982C165.596 138.255 160.8 141.875 159.927 141.602C159.054 141.329 157.194 140.85 158.182 139.758C159.093 138.867 159.948 137.92 160.741 136.923C160.978 136.556 161.11 136.131 161.122 135.694Z" fill="#0A2A50"/>
<path id="Path 100959" d="M158.155 90.9391C158.155 90.9391 159.843 113.755 160.416 120.532C160.974 127.292 161.165 136.5 161.165 136.5C161.365 136.855 161.655 137.151 162.006 137.357C162.358 137.563 162.758 137.672 163.165 137.673C163.341 137.695 163.519 137.689 163.693 137.656C164.537 137.553 165.323 137.17 165.925 136.57C165.925 136.57 166.057 123.844 166.306 118.015C166.557 112.203 165.853 97.7921 165.853 97.7921C165.853 97.7921 169.933 117.876 170.373 124.276C170.813 130.691 170.813 141.21 170.813 141.21C170.813 141.21 170.872 142.089 172.576 142.452C174.264 142.832 175.643 140.852 175.643 140.852C175.643 140.852 176.95 120.831 176.011 116.262C175.072 111.693 176.143 93.3091 175.204 90.9451C174.265 88.5811 158.113 89.6861 158.113 89.6861L158.155 90.9391Z" fill="url(#paint19_linear_1_120)"/>
</g>
<path id="Path 100960" d="M172.374 43.1241C172.374 43.1241 168.974 43.0621 169.607 46.8431C170.24 50.6241 166.555 52.1121 166.555 52.1121C167.399 52.6096 168.383 52.8164 169.355 52.7006C170.328 52.5848 171.236 52.1528 171.939 51.4711C174.702 49.0761 172.374 43.1241 172.374 43.1241Z" fill="url(#paint20_linear_1_120)"/>
<path id="Path 100961" d="M182.437 44.225H184.403C184.403 44.225 186.798 42.138 188.331 44.961C189.864 47.784 188.946 50.179 187.287 53.061C185.628 55.943 184.019 58.892 185.776 61.103C186.194 61.7163 186.814 62.1632 187.528 62.3656C188.242 62.5679 189.004 62.5128 189.682 62.21C189.682 62.21 185.573 64.35 182.869 61.56C180.165 58.77 180.044 53.236 180.044 53.236C180.044 53.236 184.035 46.62 182.437 44.225Z" fill="url(#paint21_linear_1_120)"/>
<path id="Path 100962" d="M173.606 56.988C173.56 57.5297 173.725 58.0682 174.066 58.4912C174.407 58.9143 174.899 59.1894 175.438 59.259C176.645 59.5259 177.896 59.5259 179.103 59.259C179.103 59.259 185.995 63.172 186.803 64.859C187.611 66.546 184.163 88.111 182.624 88.365C181.085 88.619 176.324 86.165 176.324 86.165C175.879 87.2048 175.558 88.2933 175.367 89.408C174.928 91.608 175.203 91.053 175.203 91.053C172.304 92.3337 169.155 92.952 165.987 92.863C160.062 92.863 158.087 89.736 158.087 89.736L161.81 72.162C161.81 72.162 158.879 76.267 156.093 74.875C153.307 73.483 146.193 62.34 146.193 62.34C147.213 62.0985 148.181 61.6765 149.052 61.094C149.547 60.6135 149.865 59.9788 149.952 59.294C149.952 59.294 156.677 68.426 157.409 68.207C158.141 67.988 164.009 58.824 165.109 56.992C166.209 55.16 170.241 56.625 171.34 56.992C172.081 57.1993 172.865 57.1979 173.606 56.988Z" fill="#EAF1F7"/>
<path id="Path 100963" opacity="0.2" d="M164.631 58.571C164.631 58.571 161.431 63.071 161.366 64.545C161.301 66.019 162.407 70.604 162.105 71.38L161.805 72.156C161.805 72.156 160.087 74.742 158.464 74.929C157.445 75.03 156.417 74.8707 155.476 74.466C156.805 74.2315 158.027 73.5825 158.965 72.612C160.32 71.073 161.49 70.025 161.122 68.917C160.754 67.809 160.175 64.631 161.235 63.017C162.295 61.403 164.631 58.571 164.631 58.571Z" fill="#08011C"/>
<path id="Path 100964" opacity="0.2" d="M183.903 66.767C183.903 66.767 182.391 68.251 181.32 73.418C180.249 78.585 179.492 80.351 179.932 81.611C180.372 82.871 181.382 85.644 181.382 85.644C180.492 84.3646 179.524 83.1418 178.482 81.983C177.6 81.169 170.793 72.913 170.793 72.913C170.793 72.913 178.04 80.791 178.608 80.35C179.176 79.909 180.498 72.598 181.318 70.456C181.905 69.055 182.786 67.7968 183.903 66.767Z" fill="#08011C"/>
<path id="Path 100965" d="M149.679 60.211C149.512 58.8755 149.021 57.6011 148.249 56.499C147.597 55.661 146.78 54.9652 145.849 54.454C145.849 54.454 145.094 54.723 145.849 55.611C146.259 56.0192 146.526 56.5487 146.611 57.121C146.611 57.121 144.429 55.978 142.564 54.885C140.699 53.792 139.9 55.035 142.298 57.785C143.644 59.3475 145.085 60.8256 146.613 62.211C147.25 62.1577 147.863 61.947 148.398 61.5979C148.934 61.2488 149.374 60.7722 149.679 60.211Z" fill="url(#paint22_linear_1_120)"/>
<path id="Path 100966" d="M168.675 74.9631C168.984 74.8905 169.275 74.7568 169.532 74.5698C169.788 74.3827 170.005 74.1462 170.168 73.8741C170.5 73.4429 170.715 72.933 170.791 72.3941C170.791 72.3941 168.899 69.0001 168.675 68.7021C168.451 68.4041 164.628 66.3141 164.628 66.3141C164.628 66.3141 163.566 66.3511 164.908 67.5081C166.25 68.6651 166.408 68.7391 166.552 69.4471C166.696 70.1551 165.758 72.5681 166.041 73.0591C166.848 73.7867 167.731 74.425 168.675 74.9631Z" fill="url(#paint23_linear_1_120)"/>
<path id="Path 100967" d="M172.308 47.233C171.747 47.403 171.251 47.7417 170.889 48.2031C170.526 48.6645 170.315 49.2262 170.283 49.812C170.221 51.838 169.773 55.03 170.794 55.338C171.815 55.646 174.394 54.847 174.394 55.338C174.232 55.9293 173.965 56.4865 173.605 56.983C173.605 56.983 173.227 58.568 175.437 59.254C176.714 59.67 178.09 59.67 179.367 59.254C179.367 59.254 178.692 53.311 179.674 52.267C180.656 51.223 180.902 45.208 179.674 44.716C178.446 44.224 172.308 47.233 172.308 47.233Z" fill="url(#paint24_linear_1_120)"/>
<path id="Path 100968" d="M180.84 41.831C179.691 41.3644 178.455 41.1504 177.216 41.2033C175.976 41.2563 174.763 41.5751 173.658 42.138C173.014 42.4514 172.457 42.918 172.035 43.497C171.614 44.076 171.341 44.7496 171.24 45.4587C171.14 46.1678 171.215 46.8907 171.459 47.564C171.704 48.2372 172.109 48.8402 172.641 49.32C173.875 50.3542 175.424 50.9388 177.034 50.978C177.034 50.978 177.404 49.198 178.324 49.934C179.244 50.67 177.354 51.524 177.348 52.111C177.342 52.698 177.464 54.722 179.548 53.925C181.632 53.128 183.337 51.807 183.898 48.384C184.459 44.961 183.238 42.424 180.84 41.831Z" fill="url(#paint25_linear_1_120)"/>
</g>
</g>
</g>
<defs>
<linearGradient id="paint0_linear_1_120" x1="0" y1="32.8025" x2="111.683" y2="32.8025" gradientUnits="userSpaceOnUse">
<stop stop-color="#1788DD"/>
<stop offset="1" stop-color="#2C9DBC"/>
</linearGradient>
<linearGradient id="paint1_linear_1_120" x1="26.0441" y1="-85.3422" x2="50.6253" y2="-55.1651" gradientUnits="userSpaceOnUse">
<stop stop-color="#66D5EA"/>
<stop offset="1" stop-color="#0087E7"/>
</linearGradient>
<linearGradient id="paint2_linear_1_120" x1="57.1297" y1="-86.5354" x2="57.9448" y2="-37.8477" gradientUnits="userSpaceOnUse">
<stop stop-color="#66D5EA"/>
<stop offset="1" stop-color="#0087E7"/>
</linearGradient>
<linearGradient id="paint3_linear_1_120" x1="74.9816" y1="130.037" x2="147.371" y2="130.037" gradientUnits="userSpaceOnUse">
<stop stop-color="#2C9DBC"/>
<stop offset="0.992" stop-color="#1788DD"/>
</linearGradient>
<linearGradient id="paint4_linear_1_120" x1="105.412" y1="91.9007" x2="116.344" y2="91.9007" gradientUnits="userSpaceOnUse">
<stop stop-color="#3060AB"/>
<stop offset="1" stop-color="#131E60"/>
</linearGradient>
<linearGradient id="paint5_linear_1_120" x1="95.671" y1="96.126" x2="111.406" y2="96.126" gradientUnits="userSpaceOnUse">
<stop stop-color="#3060AB"/>
<stop offset="1" stop-color="#131E60"/>
</linearGradient>
<linearGradient id="paint6_linear_1_120" x1="101.143" y1="35.9083" x2="110.026" y2="35.9083" gradientUnits="userSpaceOnUse">
<stop stop-color="#FFD9D9"/>
<stop offset="1" stop-color="#EFB4B4"/>
</linearGradient>
<linearGradient id="paint7_linear_1_120" x1="109.021" y1="56.6018" x2="119.336" y2="56.6018" gradientUnits="userSpaceOnUse">
<stop stop-color="#3060AB"/>
<stop offset="1" stop-color="#131E60"/>
</linearGradient>
<linearGradient id="paint8_linear_1_120" x1="109.021" y1="47.2665" x2="115.48" y2="47.2665" gradientUnits="userSpaceOnUse">
<stop stop-color="#3060AB"/>
<stop offset="1" stop-color="#131E60"/>
</linearGradient>
<linearGradient id="paint9_linear_1_120" x1="92.7789" y1="58.5023" x2="109.332" y2="58.5023" gradientUnits="userSpaceOnUse">
<stop stop-color="#3060AB"/>
<stop offset="1" stop-color="#131E60"/>
</linearGradient>
<linearGradient id="paint10_linear_1_120" x1="98.727" y1="48.7101" x2="109.254" y2="48.7101" gradientUnits="userSpaceOnUse">
<stop stop-color="#3060AB"/>
<stop offset="1" stop-color="#131E60"/>
</linearGradient>
<linearGradient id="paint11_linear_1_120" x1="99.4583" y1="30.716" x2="102.249" y2="30.716" gradientUnits="userSpaceOnUse">
<stop stop-color="#FFD9D9"/>
<stop offset="1" stop-color="#EFB4B4"/>
</linearGradient>
<linearGradient id="paint12_linear_1_120" x1="98.8567" y1="28.2423" x2="112.05" y2="28.2423" gradientUnits="userSpaceOnUse">
<stop stop-color="#FFD9D9"/>
<stop offset="1" stop-color="#EFB4B4"/>
</linearGradient>
<linearGradient id="paint13_linear_1_120" x1="98.796" y1="24.9086" x2="111.949" y2="24.9086" gradientUnits="userSpaceOnUse">
<stop stop-color="#3060AB"/>
<stop offset="1" stop-color="#131E60"/>
</linearGradient>
<linearGradient id="paint14_linear_1_120" x1="101.709" y1="63.7714" x2="116.768" y2="63.7714" gradientUnits="userSpaceOnUse">
<stop stop-color="#FFD9D9"/>
<stop offset="1" stop-color="#EFB4B4"/>
</linearGradient>
<linearGradient id="paint15_linear_1_120" x1="87.4995" y1="54.1649" x2="105.673" y2="54.1649" gradientUnits="userSpaceOnUse">
<stop stop-color="#3060AB"/>
<stop offset="1" stop-color="#131E60"/>
</linearGradient>
<linearGradient id="paint16_linear_1_120" x1="137.347" y1="44.4249" x2="149.736" y2="44.4249" gradientUnits="userSpaceOnUse">
<stop stop-color="#FFD9D9"/>
<stop offset="1" stop-color="#EFB4B4"/>
</linearGradient>
<linearGradient id="paint17_linear_1_120" x1="112.635" y1="45.413" x2="141.046" y2="45.413" gradientUnits="userSpaceOnUse">
<stop stop-color="#3060AB"/>
<stop offset="1" stop-color="#131E60"/>
</linearGradient>
<linearGradient id="paint18_linear_1_120" x1="114.943" y1="47.3461" x2="126.967" y2="47.3461" gradientUnits="userSpaceOnUse">
<stop stop-color="#3060AB"/>
<stop offset="1" stop-color="#131E60"/>
</linearGradient>
<linearGradient id="paint19_linear_1_120" x1="6562.93" y1="118.246" x2="6588.96" y2="117.342" gradientUnits="userSpaceOnUse">
<stop stop-color="#3060AB"/>
<stop offset="1" stop-color="#131E60"/>
</linearGradient>
<linearGradient id="paint20_linear_1_120" x1="166.555" y1="47.928" x2="173.291" y2="47.928" gradientUnits="userSpaceOnUse">
<stop stop-color="#3060AB"/>
<stop offset="1" stop-color="#131E60"/>
</linearGradient>
<linearGradient id="paint21_linear_1_120" x1="180.044" y1="53.2383" x2="189.682" y2="53.2383" gradientUnits="userSpaceOnUse">
<stop stop-color="#3060AB"/>
<stop offset="1" stop-color="#131E60"/>
</linearGradient>
<linearGradient id="paint22_linear_1_120" x1="140.808" y1="58.3325" x2="149.679" y2="58.3325" gradientUnits="userSpaceOnUse">
<stop stop-color="#FFD9D9"/>
<stop offset="1" stop-color="#EFB4B4"/>
</linearGradient>
<linearGradient id="paint23_linear_1_120" x1="164.229" y1="70.6386" x2="170.791" y2="70.6386" gradientUnits="userSpaceOnUse">
<stop stop-color="#FFD9D9"/>
<stop offset="1" stop-color="#EFB4B4"/>
</linearGradient>
<linearGradient id="paint24_linear_1_120" x1="170.132" y1="52.1138" x2="180.505" y2="52.1138" gradientUnits="userSpaceOnUse">
<stop stop-color="#FFD9D9"/>
<stop offset="1" stop-color="#EFB4B4"/>
</linearGradient>
<linearGradient id="paint25_linear_1_120" x1="171.197" y1="47.6519" x2="184.033" y2="47.6519" gradientUnits="userSpaceOnUse">
<stop stop-color="#3060AB"/>
<stop offset="1" stop-color="#131E60"/>
</linearGradient>
</defs>
</svg>
