<svg width="123" height="138" viewBox="0 0 123 138" fill="none" xmlns="http://www.w3.org/2000/svg">
<g id="&#227;&#130;&#162;&#227;&#131;&#188;&#227;&#131;&#136;&#227;&#131;&#175;&#227;&#131;&#188;&#227;&#130;&#175; 8">
<g id="Group 46523">
<g id="Group 46520">
<g id="Group 46490">
<path id="Path 98412" d="M66.465 57.0861L3.474 86.6711C3.10243 86.8455 2.69284 86.9232 2.2832 86.8972C1.87356 86.8711 1.47714 86.7421 1.13068 86.522C0.784212 86.3019 0.498923 85.9978 0.30127 85.6381C0.103616 85.2783 -1.13724e-05 84.8745 1.08886e-07 84.4641V46.402C-0.000215366 45.2783 0.319378 44.1778 0.921448 43.229C1.52352 42.2802 2.38319 41.5224 3.39999 41.044L66.355 11.476C66.7042 11.3121 67.0892 11.2389 67.4743 11.2634C67.8593 11.2879 68.232 11.4091 68.5577 11.616C68.8834 11.8228 69.1516 12.1085 69.3375 12.4466C69.5233 12.7847 69.6209 13.1642 69.621 13.5501V52.1111C69.6209 53.1542 69.3241 54.1759 68.7653 55.0568C68.2065 55.9377 67.4087 56.6415 66.465 57.0861Z" fill="#1788DD"/>
<path id="Path 98413" d="M65.312 40.7971C65.312 40.7971 55.012 59.0331 45.361 48.3891C38.402 40.7111 33.317 41.6561 27.655 45.3191C21.355 49.3961 19.204 58.8101 10.531 51.9901C1.85798 45.1701 2.59897 53.8431 2.59897 53.8431" stroke="#FBFBFB" stroke-width="0.861" stroke-miterlimit="10"/>
<g id="Group 46488">
<path id="Path 98414" opacity="0.69" d="M56.05 25.6481L64.212 21.8211C64.382 21.7373 64.5274 21.6111 64.6343 21.4547C64.7412 21.2982 64.8058 21.1168 64.822 20.9281C64.822 20.5931 64.548 20.4451 64.212 20.6011L56.05 24.4281C55.8801 24.5118 55.7345 24.638 55.6277 24.7944C55.5208 24.9509 55.4561 25.1323 55.44 25.3211C55.438 25.6561 55.715 25.8041 56.05 25.6481Z" fill="#FDFDFD"/>
<path id="Path 98415" opacity="0.69" d="M56.05 36.743L64.212 32.916C64.382 32.8323 64.5274 32.7061 64.6343 32.5497C64.7412 32.3932 64.8058 32.2118 64.822 32.023C64.822 31.688 64.548 31.54 64.212 31.696L56.05 35.523C55.8802 35.6066 55.7348 35.7327 55.6279 35.889C55.521 36.0452 55.4563 36.2264 55.44 36.415C55.438 36.751 55.715 36.899 56.05 36.743Z" fill="#FDFDFD"/>
<path id="Path 98416" opacity="0.69" d="M45.922 34.1581L64.213 25.7091C64.3829 25.6253 64.5284 25.4992 64.6353 25.3427C64.7422 25.1862 64.8068 25.0048 64.823 24.8161C64.823 24.4811 64.549 24.3331 64.213 24.4891L45.922 32.9381C45.752 33.0218 45.6065 33.148 45.4996 33.3044C45.3928 33.4609 45.3281 33.6423 45.312 33.8311C45.312 34.1661 45.586 34.3181 45.922 34.1581Z" fill="#FDFDFD"/>
<path id="Path 98417" opacity="0.69" d="M45.922 38.0471L64.213 29.5981C64.3829 29.5144 64.5284 29.3882 64.6353 29.2317C64.7422 29.0753 64.8068 28.8939 64.823 28.7051C64.823 28.3691 64.549 28.2221 64.213 28.3781L45.922 36.827C45.752 36.9108 45.6065 37.037 45.4996 37.1934C45.3928 37.3499 45.3281 37.5313 45.312 37.7201C45.312 38.0551 45.586 38.2021 45.922 38.0471Z" fill="#FDFDFD"/>
</g>
<g id="Group 46489">
<path id="Path 98418" opacity="0.69" d="M14.781 65.891L22.943 62.064C23.113 61.9803 23.2585 61.8541 23.3653 61.6976C23.4722 61.5412 23.5368 61.3598 23.553 61.171C23.553 60.836 23.279 60.688 22.943 60.844L14.781 64.671C14.611 64.7547 14.4655 64.8809 14.3587 65.0373C14.2518 65.1938 14.1872 65.3752 14.171 65.564C14.171 65.899 14.446 66.047 14.781 65.891Z" fill="#FDFDFD"/>
<path id="Path 98419" opacity="0.69" d="M14.781 76.988L22.943 73.161C23.113 73.0773 23.2585 72.9511 23.3653 72.7947C23.4722 72.6382 23.5368 72.4568 23.553 72.268C23.553 71.933 23.279 71.785 22.943 71.941L14.781 75.768C14.611 75.8517 14.4655 75.9779 14.3587 76.1344C14.2518 76.2908 14.1872 76.4722 14.171 76.661C14.171 76.996 14.446 77.147 14.781 76.988Z" fill="#FDFDFD"/>
<path id="Path 98420" opacity="0.69" d="M4.65302 74.403L22.944 65.9541C23.114 65.8703 23.2595 65.7441 23.3663 65.5877C23.4732 65.4312 23.5379 65.2498 23.554 65.0611C23.554 64.7251 23.28 64.578 22.944 64.734L4.65302 73.1831C4.48304 73.2668 4.33755 73.3929 4.23068 73.5494C4.12381 73.7058 4.05916 73.8873 4.043 74.0761C4.043 74.4111 4.31702 74.558 4.65302 74.403Z" fill="#FDFDFD"/>
<path id="Path 98421" opacity="0.69" d="M4.65302 78.2911L22.944 69.842C23.114 69.7583 23.2595 69.6322 23.3663 69.4757C23.4732 69.3192 23.5379 69.1378 23.554 68.949C23.554 68.614 23.28 68.4661 22.944 68.6221L4.65302 77.071C4.48304 77.1547 4.33755 77.2809 4.23068 77.4374C4.12381 77.5938 4.05916 77.7753 4.043 77.964C4.043 78.3 4.31702 78.4481 4.65302 78.2911Z" fill="#FDFDFD"/>
</g>
</g>
<g id="Group 46510">
<path id="Path 98422" d="M68.28 107.585L5.289 137.17C4.91744 137.344 4.50785 137.422 4.09821 137.396C3.68857 137.37 3.29211 137.241 2.94565 137.021C2.59918 136.801 2.31393 136.497 2.11627 136.137C1.91862 135.777 1.81499 135.373 1.815 134.963V96.901C1.81479 95.7773 2.13438 94.6767 2.73645 93.7279C3.33852 92.7791 4.19819 92.0213 5.215 91.543L68.17 61.975C68.5192 61.811 68.9042 61.7379 69.2893 61.7624C69.6743 61.7868 70.047 61.9081 70.3727 62.1149C70.6984 62.3217 70.9666 62.6074 71.1525 62.9455C71.3383 63.2836 71.4359 63.6632 71.436 64.049V102.61C71.4359 103.653 71.1391 104.675 70.5803 105.556C70.0215 106.437 69.2237 107.14 68.28 107.585Z" fill="url(#paint0_linear_1_204)"/>
<g id="Group 46491">
<path id="Path 98423" d="M46.463 89.589C46.463 93.396 49.549 94.939 53.356 93.036C57.163 91.133 60.249 86.503 60.249 82.696C60.249 78.889 57.163 77.346 53.356 79.249C49.549 81.152 46.463 85.782 46.463 89.589ZM47.871 88.889C47.871 85.86 50.327 82.176 53.356 80.662C56.385 79.148 58.841 80.375 58.841 83.404C58.841 86.433 56.385 90.117 53.356 91.631C50.327 93.145 47.871 91.914 47.871 88.885V88.889Z" fill="white"/>
<path id="Path 98424" d="M28.575 97.939C28.575 101.746 31.661 103.289 35.468 101.386C39.275 99.4831 42.361 94.853 42.361 91.046C42.361 87.239 39.275 85.696 35.468 87.599C31.661 89.502 28.575 94.132 28.575 97.939ZM29.984 97.239C29.984 94.21 32.44 90.526 35.469 89.012C38.498 87.498 40.954 88.725 40.954 91.754C40.954 94.783 38.498 98.467 35.469 99.981C32.44 101.495 29.984 100.264 29.984 97.2351V97.239Z" fill="white"/>
<path id="Path 98425" d="M10.688 106.288C10.688 110.095 13.774 111.638 17.581 109.735C21.388 107.832 24.474 103.202 24.474 99.395C24.474 95.588 21.388 94.045 17.581 95.948C13.774 97.851 10.688 102.481 10.688 106.288ZM12.096 105.588C12.096 102.559 14.552 98.875 17.581 97.361C20.61 95.847 23.066 97.074 23.066 100.103C23.066 103.132 20.61 106.816 17.581 108.33C14.552 109.844 12.096 108.613 12.096 105.584V105.588Z" fill="white"/>
</g>
<g id="Group 46497">
<g id="Group 46496">
<g id="Group 46492" opacity="0.69">
<path id="Path 98426" d="M51.478 99.227L59.64 95.4C59.81 95.3162 59.9554 95.1901 60.0623 95.0336C60.1692 94.8772 60.2338 94.6957 60.25 94.5069C60.25 94.1719 59.976 94.024 59.64 94.18L51.478 98.0069C51.308 98.0907 51.1625 98.2169 51.0557 98.3733C50.9488 98.5298 50.8841 98.7112 50.868 98.9C50.868 99.237 51.143 99.384 51.478 99.227Z" fill="white"/>
</g>
<g id="Group 46493" opacity="0.69">
<path id="Path 98427" d="M51.478 75.7L59.64 71.873C59.81 71.7893 59.9554 71.6631 60.0623 71.5066C60.1692 71.3502 60.2338 71.1688 60.25 70.98C60.25 70.645 59.976 70.497 59.64 70.653L51.478 74.48C51.3081 74.5636 51.1628 74.6897 51.0559 74.8459C50.949 75.0022 50.8843 75.1834 50.868 75.372C50.868 75.708 51.143 75.856 51.478 75.7Z" fill="white"/>
</g>
<g id="Group 46494" opacity="0.69">
<path id="Path 98428" d="M51.478 106.668L59.64 102.841C59.81 102.757 59.9554 102.631 60.0623 102.475C60.1692 102.318 60.2338 102.137 60.25 101.948C60.25 101.613 59.976 101.465 59.64 101.621L51.478 105.448C51.308 105.532 51.1625 105.658 51.0557 105.814C50.9488 105.971 50.8841 106.152 50.868 106.341C50.868 106.676 51.143 106.824 51.478 106.668Z" fill="white"/>
</g>
<g id="Group 46495" opacity="0.69">
<path id="Path 98429" d="M48.197 104.724L59.645 99.29C59.815 99.2062 59.9604 99.0801 60.0673 98.9236C60.1742 98.7672 60.2388 98.5858 60.255 98.397C60.255 98.062 59.981 97.914 59.645 98.07L48.197 103.504C48.027 103.588 47.8816 103.714 47.7747 103.87C47.6678 104.027 47.6032 104.208 47.587 104.397C47.582 104.732 47.857 104.88 48.197 104.724Z" fill="white"/>
</g>
</g>
</g>
<g id="Group 46503">
<g id="Group 46502">
<g id="Group 46498" opacity="0.69">
<path id="Path 98430" d="M34.278 107.952L42.44 104.125C42.61 104.041 42.7554 103.915 42.8623 103.759C42.9692 103.602 43.0338 103.421 43.05 103.232C43.05 102.897 42.775 102.749 42.44 102.905L34.278 106.732C34.108 106.816 33.9625 106.942 33.8557 107.098C33.7488 107.255 33.6841 107.436 33.668 107.625C33.668 107.96 33.943 108.107 34.278 107.952Z" fill="white"/>
</g>
<g id="Group 46499" opacity="0.69">
<path id="Path 98431" d="M34.278 84.426L42.44 80.599C42.61 80.5153 42.7554 80.3891 42.8623 80.2327C42.9692 80.0762 43.0338 79.8948 43.05 79.706C43.05 79.371 42.775 79.223 42.44 79.379L34.278 83.206C34.108 83.2897 33.9625 83.4159 33.8557 83.5724C33.7488 83.7288 33.6841 83.9102 33.668 84.099C33.668 84.431 33.943 84.579 34.278 84.426Z" fill="white"/>
</g>
<g id="Group 46500" opacity="0.69">
<path id="Path 98432" d="M34.278 115.391L42.44 111.564C42.61 111.48 42.7554 111.354 42.8623 111.198C42.9692 111.041 43.0338 110.86 43.05 110.671C43.05 110.336 42.775 110.188 42.44 110.344L34.278 114.171C34.108 114.255 33.9625 114.381 33.8557 114.537C33.7488 114.694 33.6841 114.875 33.668 115.064C33.668 115.399 33.943 115.547 34.278 115.391Z" fill="white"/>
</g>
<g id="Group 46501" opacity="0.69">
<path id="Path 98433" d="M30.992 113.447L42.44 108.013C42.6099 107.929 42.7555 107.803 42.8623 107.647C42.9692 107.49 43.0339 107.309 43.05 107.12C43.05 106.785 42.775 106.637 42.44 106.793L30.992 112.227C30.822 112.311 30.6765 112.437 30.5697 112.593C30.4628 112.75 30.3981 112.931 30.382 113.12C30.382 113.455 30.657 113.603 30.992 113.447Z" fill="white"/>
</g>
</g>
</g>
<g id="Group 46509">
<g id="Group 46508">
<g id="Group 46504" opacity="0.69">
<path id="Path 98434" d="M17.076 116.673L25.238 112.846C25.408 112.762 25.5535 112.636 25.6603 112.48C25.7672 112.323 25.8319 112.142 25.848 111.953C25.848 111.618 25.574 111.47 25.238 111.626L17.076 115.453C16.906 115.537 16.7606 115.663 16.6537 115.819C16.5468 115.976 16.4822 116.157 16.466 116.346C16.466 116.682 16.741 116.829 17.076 116.673Z" fill="white"/>
</g>
<g id="Group 46505" opacity="0.69">
<path id="Path 98435" d="M17.076 93.145L25.238 89.318C25.408 89.2343 25.5535 89.1081 25.6603 88.9517C25.7672 88.7952 25.8319 88.6138 25.848 88.425C25.848 88.09 25.574 87.942 25.238 88.098L17.076 91.925C16.906 92.0087 16.7606 92.1349 16.6537 92.2914C16.5468 92.4478 16.4822 92.6292 16.466 92.818C16.466 93.153 16.741 93.301 17.076 93.145Z" fill="white"/>
</g>
<g id="Group 46506" opacity="0.69">
<path id="Path 98436" d="M17.076 124.113L25.238 120.286C25.408 120.202 25.5535 120.076 25.6603 119.92C25.7672 119.763 25.8319 119.582 25.848 119.393C25.848 119.057 25.574 118.91 25.238 119.066L17.076 122.893C16.906 122.977 16.7606 123.103 16.6537 123.259C16.5468 123.416 16.4822 123.597 16.466 123.786C16.466 124.121 16.741 124.269 17.076 124.113Z" fill="white"/>
</g>
<g id="Group 46507" opacity="0.69">
<path id="Path 98437" d="M13.791 122.169L25.239 116.735C25.409 116.651 25.5545 116.525 25.6613 116.369C25.7682 116.212 25.8328 116.031 25.849 115.842C25.849 115.506 25.575 115.359 25.239 115.515L13.791 120.949C13.621 121.033 13.4756 121.159 13.3687 121.315C13.2618 121.472 13.1972 121.653 13.181 121.842C13.181 122.177 13.455 122.325 13.791 122.169Z" fill="white"/>
</g>
</g>
</g>
</g>
<g id="Group 46513">
<path id="Path 98438" d="M81.641 19.5111L119.728 0.17906C119.976 0.0536391 120.251 -0.00625811 120.528 0.00507936C120.806 0.0164168 121.075 0.0986062 121.312 0.243818C121.548 0.389031 121.744 0.592396 121.879 0.834547C122.015 1.0767 122.086 1.34956 122.086 1.62706V70.798L79.866 92.228V22.397C79.8659 21.7989 80.0318 21.2124 80.3452 20.7029C80.6585 20.1934 81.1071 19.7808 81.641 19.5111Z" fill="url(#paint1_linear_1_204)"/>
<path id="Path 98439" d="M87.434 33.747C86.388 40.447 91.398 44.016 98.625 41.71C105.852 39.404 112.558 32.101 113.604 25.397C114.65 18.693 109.639 15.129 102.412 17.434C95.185 19.739 88.48 27.043 87.434 33.747ZM97.297 26.947C97.2251 26.8553 97.1436 26.7715 97.054 26.697C97.1117 26.715 97.1641 26.7471 97.2064 26.7904C97.2486 26.8337 97.2794 26.8868 97.296 26.945L97.297 26.947ZM88.916 33.278C89.843 27.334 95.79 20.8581 102.198 18.8131C108.606 16.7681 113.049 19.9291 112.122 25.8731C111.498 28.9876 110.022 31.868 107.859 34.194C108.015 30.969 105.559 29.236 101.997 30.061L102.01 29.791C102.151 29.6361 102.268 29.496 102.344 29.397C102.781 28.7099 103.033 27.922 103.077 27.109C103.353 27.0072 103.602 26.8445 103.806 26.633C104.104 26.0713 104.2 25.424 104.077 24.8001C104.101 24.832 104.124 24.8654 104.144 24.9C104.279 24.3758 104.364 23.8402 104.399 23.3001C104.43 23.0547 104.388 22.8057 104.28 22.5837C104.171 22.3616 104 22.1761 103.787 22.0501C103.787 22.0501 103.843 21.241 102.604 20.979C101.555 20.9117 100.506 21.0906 99.5388 21.5014C98.5718 21.9123 97.7144 22.5436 97.035 23.345C96.3378 24.5182 96.1173 25.9141 96.419 27.245C96.329 27.823 96.351 28.575 96.584 28.678C96.8038 28.7757 97.0491 28.8005 97.284 28.749C97.284 28.749 97.217 30.1731 97.819 30.6791C97.9181 30.7614 98.0219 30.8378 98.13 30.908L98.1 31.543C98.1304 31.5832 98.1638 31.621 98.2 31.656C96.12 32.8188 94.4216 34.5593 93.31 36.667C92.9819 37.9524 92.7727 39.2653 92.685 40.589C89.875 39.646 88.333 37.0121 88.917 33.2741L88.916 33.278ZM96.516 26.857C96.522 26.835 96.527 26.8131 96.534 26.791C96.534 26.791 96.543 26.785 96.545 26.781C96.531 26.802 96.521 26.825 96.512 26.853L96.516 26.857ZM103.614 24.745C103.62 24.738 103.625 24.736 103.631 24.729L103.61 24.753L103.614 24.745Z" fill="#FFFDFF"/>
<g id="Group 46511">
<path id="Path 98440" opacity="0.69" d="M95.028 57.56L109.286 50.874C109.583 50.728 109.837 50.5077 110.024 50.2346C110.211 49.9614 110.324 49.6447 110.352 49.315C110.352 48.729 109.873 48.472 109.286 48.743L95.028 55.424C94.7311 55.57 94.4769 55.7903 94.2902 56.0635C94.1034 56.3366 93.9904 56.6533 93.962 56.983C93.962 57.574 94.441 57.832 95.028 57.56Z" fill="#FDFDFD"/>
<path id="Path 98441" opacity="0.69" d="M95.028 70.558L109.286 63.872C109.583 63.7259 109.837 63.5057 110.024 63.2325C110.211 62.9594 110.324 62.6426 110.352 62.313C110.352 61.727 109.873 61.4699 109.286 61.7409L95.028 68.427C94.731 68.573 94.4768 68.7932 94.2901 69.0663C94.1033 69.3395 93.9903 69.6562 93.962 69.9859C93.962 70.5719 94.441 70.829 95.028 70.558Z" fill="#FDFDFD"/>
<path id="Path 98442" opacity="0.69" d="M91.465 66.176L111.465 56.683C111.761 56.5363 112.014 56.3157 112.2 56.0426C112.386 55.7696 112.498 55.4532 112.526 55.124C112.526 54.538 112.046 54.281 111.461 54.552L91.461 64.044C91.1642 64.1901 90.9102 64.4104 90.7236 64.6836C90.537 64.9567 90.4241 65.2734 90.396 65.603C90.4 66.191 90.879 66.448 91.465 66.176Z" fill="#FDFDFD"/>
</g>
<g id="Group 46512">
<path id="Path 98443" opacity="0.69" d="M104.864 72.824C104.864 73.203 105.171 73.356 105.55 73.167C105.741 73.0669 105.904 72.9202 106.024 72.7406C106.144 72.561 106.217 72.3541 106.236 72.139C106.236 71.76 105.929 71.607 105.55 71.796C105.359 71.8962 105.196 72.0429 105.076 72.2225C104.956 72.4021 104.883 72.6089 104.864 72.824Z" fill="#FDFDFD"/>
<path id="Path 98444" opacity="0.69" d="M102.713 73.877C102.713 74.256 103.02 74.409 103.399 74.22C103.59 74.1197 103.753 73.9729 103.873 73.7931C103.993 73.6133 104.066 73.4063 104.085 73.191C104.085 72.812 103.778 72.659 103.399 72.848C103.208 72.9483 103.044 73.0951 102.925 73.2749C102.805 73.4547 102.732 73.6617 102.713 73.877Z" fill="#FDFDFD"/>
<path id="Path 98445" opacity="0.69" d="M100.563 74.928C100.563 75.307 100.87 75.46 101.249 75.271C101.44 75.1707 101.603 75.024 101.723 74.8444C101.842 74.6648 101.915 74.458 101.934 74.243C101.934 73.864 101.627 73.711 101.249 73.9C101.058 74.0002 100.895 74.1468 100.775 74.3265C100.655 74.5061 100.582 74.7129 100.563 74.928Z" fill="#FDFDFD"/>
</g>
</g>
<g id="Group 46519" opacity="0.69">
<g id="Group 46518">
<g id="Group 46514">
<path id="Path 98446" d="M43.435 59.2221L47.087 57.6081V56.1981L43.435 57.8121V59.2221Z" fill="#FDFDFD"/>
<path id="Path 98447" d="M43.435 56.7841L47.087 55.17V53.7601L43.435 55.3741V56.7841Z" fill="#FDFDFD"/>
<path id="Path 98448" d="M43.435 54.3441L47.087 52.73V51.3201L43.435 52.9341V54.3441Z" fill="#FDFDFD"/>
</g>
<g id="Group 46515">
<path id="Path 98449" d="M38.173 61.548L41.825 59.934V58.524L38.173 60.1381V61.548Z" fill="#FDFDFD"/>
<path id="Path 98450" d="M38.173 59.109L41.825 57.4951V56.085L38.173 57.699V59.109Z" fill="#FDFDFD"/>
<path id="Path 98451" d="M38.173 56.6691L41.825 55.0551V53.6451L38.173 55.2591V56.6691Z" fill="#FDFDFD"/>
<path id="Path 98452" d="M38.173 54.2311L41.825 52.6171V51.207L38.173 52.821V54.2311Z" fill="#FDFDFD"/>
</g>
<g id="Group 46516">
<path id="Path 98453" d="M32.909 63.876L36.561 62.262V60.8521L32.909 62.4661V63.876Z" fill="#FDFDFD"/>
<path id="Path 98454" d="M32.909 61.4351L36.561 59.821V58.411L32.909 60.025V61.4351Z" fill="#FDFDFD"/>
<path id="Path 98455" d="M32.909 58.9961L36.561 57.3821V55.9691L32.909 57.5831V58.9961Z" fill="#FDFDFD"/>
<path id="Path 98456" d="M32.909 56.5571L36.561 54.9431V53.5331L32.909 55.147V56.5571Z" fill="#FDFDFD"/>
<path id="Path 98457" d="M32.909 54.1171L36.561 52.5031V51.0931L32.909 52.707V54.1171Z" fill="#FDFDFD"/>
</g>
<g id="Group 46517">
<path id="Path 98458" d="M27.65 66.1991L31.302 64.5851V63.175L27.65 64.7931V66.1991Z" fill="#FDFDFD"/>
<path id="Path 98459" d="M27.65 63.7601L31.302 62.1461V60.7361L27.65 62.35V63.7601Z" fill="#FDFDFD"/>
<path id="Path 98460" d="M27.65 61.321L31.302 59.707V58.2971L27.65 59.911V61.321Z" fill="#FDFDFD"/>
<path id="Path 98461" d="M27.65 58.882L31.302 57.268V55.858L27.65 57.472V58.882Z" fill="#FDFDFD"/>
<path id="Path 98462" d="M27.65 56.4421L31.302 54.8281V53.4181L27.65 55.0321V56.4421Z" fill="#FDFDFD"/>
<path id="Path 98463" d="M27.65 54.0031L31.302 52.389V50.975L27.65 52.5891V54.0031Z" fill="#FDFDFD"/>
</g>
</g>
</g>
</g>
<g id="Group 46522">
<g id="Group 46521">
<path id="Path 98464" d="M75.854 63.873L80.276 119.154C80.191 119.477 80.1824 119.816 80.2509 120.143C80.3193 120.47 80.4631 120.777 80.6706 121.039C80.8781 121.301 81.1438 121.511 81.4466 121.652C81.7494 121.794 82.0809 121.863 82.415 121.854C85.135 122.09 86.674 119.426 86.674 119.426C86.674 119.426 86.915 78.04 88.474 77.677C90.033 77.314 92.399 124.302 92.399 124.302C92.4092 124.899 92.6539 125.468 93.0801 125.886C93.5063 126.304 94.0799 126.538 94.677 126.537C96.928 126.637 98.921 124.465 98.921 124.465L100.071 68.065L75.854 63.873Z" fill="url(#paint2_linear_1_204)"/>
<path id="Path 98465" d="M102.484 28.083C102.484 28.083 78.731 20.562 77.472 21.126C76.213 21.69 62.546 32.646 62.546 32.646L48.9 36.446C49.9122 37.1584 50.6612 38.1848 51.031 39.366C51.097 39.62 51.153 39.866 51.191 40.089C51.3406 40.8936 51.3085 41.7215 51.097 42.512C51.097 42.512 65.465 40.07 66.357 39.404C67.249 38.738 74.94 34.267 74.94 34.267V64.102C74.94 64.102 76.574 69.295 84.566 70.638C92.558 71.981 100.709 67.7461 100.709 67.7461V60.581C100.709 60.581 113.443 59.247 113.518 57.022C113.593 54.797 104.616 28.815 102.484 28.083ZM100.559 52.65V43.56L105.226 51.627L100.559 52.65Z" fill="white"/>
<path id="Path 98466" d="M92.8439 125.632C92.8439 125.632 93.0019 126.767 92.3099 127.032C91.6179 127.297 85.738 130.495 86.497 130.966C87.256 131.437 88.6749 133.493 90.6359 133.139C92.5969 132.785 98.496 129.148 99.036 127.954C99.576 126.76 98.923 124.472 98.923 124.472L92.8439 125.632Z" fill="#131E60"/>
<path id="Path 98467" d="M80.42 120.556C80.42 120.556 80.578 121.691 79.886 121.956C79.194 122.221 73.314 125.419 74.073 125.89C74.832 126.361 76.2509 128.417 78.2119 128.063C80.1729 127.709 86.072 124.072 86.612 122.878C87.152 121.684 86.499 119.396 86.499 119.396L80.42 120.556Z" fill="#131E60"/>
<path id="Path 98468" d="M49.321 36.777C49.321 36.777 45.644 36.613 44.885 36.711C42.4209 37.3359 40.0021 38.1271 37.645 39.079C37.645 39.289 37.359 40.55 39.755 39.625C41.1824 39.0707 42.684 38.7306 44.211 38.616C44.211 38.616 43.665 41.306 44.211 41.727C44.757 42.148 47.154 44.417 48.036 43.827C48.918 43.237 51.273 41.727 51.273 41.727C51.5033 40.8014 51.4391 39.827 51.0891 38.9397C50.7392 38.0523 50.1211 37.2963 49.321 36.777Z" fill="url(#paint3_linear_1_204)"/>
<path id="Path 98469" d="M93.08 24.943L88.391 26.461L89.924 28.945L94.78 25.477C94.78 25.477 93.629 24.764 93.08 24.943Z" fill="#FEFEFE"/>
<path id="Path 98470" d="M87.024 25.8861L84.558 26.4611L85.398 21.9351L86.598 22.1911L87.024 25.8861Z" fill="#FEFEFE"/>
<path id="Path 98471" d="M83.259 10.107C83.259 10.107 82.659 12.401 83.259 12.84C83.859 13.279 83.859 13.279 83.564 13.621C82.9829 14.6055 82.7799 15.7678 82.993 16.891C83.174 18.746 82.776 22.942 83.755 23.626C84.5478 24.0505 85.452 24.2208 86.345 24.114V25.139C86.345 25.139 86.98 26.554 89.273 26.457C90.6731 26.3817 92.0101 25.8503 93.08 24.944C93.08 24.944 92.8799 18.844 93.7629 17.136C94.2298 16.1688 94.382 15.0796 94.1982 14.0214C94.0144 12.9632 93.5037 11.9891 92.738 11.236C91.031 9.61902 83.488 8.85302 83.259 10.107Z" fill="url(#paint4_linear_1_204)"/>
<path id="Path 98472" d="M82.637 8.54503C82.49 10.839 83.564 12.01 85.907 12.595C87.0977 12.9734 88.3764 12.9734 89.567 12.595C89.567 12.595 88.932 13.3271 90.201 13.4741C91.47 13.6211 91.372 14.401 91.421 15.914C91.47 17.427 91.909 18.647 91.909 17.524C91.909 16.401 92.544 15.035 93.129 15.524C93.714 16.013 92.79 18.257 93.329 18.794C93.868 19.331 96.549 17.427 97.817 13.67C99.085 9.91303 96.841 8.05803 96.841 8.05803C96.7014 7.08303 96.2586 6.17666 95.5754 5.46721C94.8922 4.75777 94.0031 4.28121 93.034 4.10503C89.567 3.42103 82.637 8.54503 82.637 8.54503Z" fill="#131E60"/>
<path id="Path 98473" d="M87.023 25.8851L85.79 26.1721L80.833 63.001L82.623 65.2581L85.269 64.058L88.926 27.3281L88.391 26.4611L87.023 25.8851Z" fill="#1788DD"/>
<path id="Path 98474" d="M90.264 65.181L74.65 57.048V31.136L90.264 39.267V65.181Z" fill="#EAF1F7"/>
<path id="Path 98475" d="M91.881 55.6931C91.881 55.6931 93.819 56.9131 93.819 58.6801C93.8561 59.6253 93.6604 60.5652 93.249 61.4171C91.6548 61.5072 90.0715 61.7361 88.517 62.101C86.75 62.614 81.562 58.509 85.439 57.426C89.316 56.343 90.057 57.255 89.939 56.4C89.821 55.545 90.224 54.664 90.566 54.848C90.908 55.032 91.881 55.6931 91.881 55.6931Z" fill="url(#paint5_linear_1_204)"/>
<path id="Path 98476" opacity="0.29" d="M100.56 43.5591C100.344 41.2712 100.344 38.968 100.56 36.6801L100.96 34.2251C99.4987 36.6535 98.6697 39.4095 98.549 42.2411C98.223 47.2591 98.223 53.1591 98.223 53.1591L91.881 55.6931C91.881 55.6931 97.832 54.624 99.136 53.907C100.44 53.19 100.56 52.649 100.56 52.649V43.5591Z" fill="#131E60"/>
<path id="Path 98477" opacity="0.29" d="M100.71 60.585L93.249 61.4171C93.249 61.4171 98.679 61.5321 98.94 62.7061C99.201 63.8801 99.765 68.196 99.765 68.196L100.71 67.751V60.585Z" fill="#131E60"/>
</g>
</g>
</g>
</g>
<defs>
<linearGradient id="paint0_linear_1_204" x1="1.815" y1="99.5794" x2="71.436" y2="99.5794" gradientUnits="userSpaceOnUse">
<stop stop-color="#1788DD"/>
<stop offset="1" stop-color="#2C9DBC"/>
</linearGradient>
<linearGradient id="paint1_linear_1_204" x1="79.866" y1="46.1159" x2="122.086" y2="46.1159" gradientUnits="userSpaceOnUse">
<stop stop-color="#1788DD"/>
<stop offset="1" stop-color="#2C9DBC"/>
</linearGradient>
<linearGradient id="paint2_linear_1_204" x1="75.854" y1="95.2067" x2="100.071" y2="95.2067" gradientUnits="userSpaceOnUse">
<stop stop-color="#3060AB"/>
<stop offset="1" stop-color="#131E60"/>
</linearGradient>
<linearGradient id="paint3_linear_1_204" x1="37.6344" y1="40.3021" x2="51.4086" y2="40.3021" gradientUnits="userSpaceOnUse">
<stop stop-color="#FFD9D9"/>
<stop offset="1" stop-color="#EFB4B4"/>
</linearGradient>
<linearGradient id="paint4_linear_1_204" x1="-1025.98" y1="114.704" x2="-1038.04" y2="114.216" gradientUnits="userSpaceOnUse">
<stop stop-color="#FFD9D9"/>
<stop offset="1" stop-color="#EFB4B4"/>
</linearGradient>
<linearGradient id="paint5_linear_1_204" x1="84.0338" y1="58.4843" x2="93.8234" y2="58.4843" gradientUnits="userSpaceOnUse">
<stop stop-color="#FFD9D9"/>
<stop offset="1" stop-color="#EFB4B4"/>
</linearGradient>
</defs>
</svg>
