<svg width="18" height="16" viewBox="0 0 18 16" fill="none" xmlns="http://www.w3.org/2000/svg">
<g id="fa-house">
<g id="Clip path group">
<mask id="mask0_1_111" style="mask-type:luminance" maskUnits="userSpaceOnUse" x="0" y="0" width="18" height="16">
<g id="clip-path-4">
<path id="Rectangle 6801" d="M17.875 0H0V15.889H17.875V0Z" fill="white"/>
</g>
</mask>
<g mask="url(#mask0_1_111)">
<g id="Group 47425">
<g id="Path 100020">
<path d="M17.869 7.92906C17.869 8.19307 17.7646 8.44637 17.5786 8.6337C17.3925 8.82104 17.14 8.92721 16.876 8.92906H15.883L15.905 13.8981C15.9044 13.982 15.899 14.0658 15.889 14.1491V14.6491C15.889 14.9782 15.7582 15.2938 15.5255 15.5266C15.2928 15.7593 14.9771 15.8901 14.648 15.8901H14.148C14.114 15.8901 14.08 15.8621 14.048 15.8901C14.005 15.8651 13.961 15.8901 13.918 15.8901H12.165C11.8359 15.8901 11.5202 15.7593 11.2875 15.5266C11.0547 15.2938 10.924 14.9782 10.924 14.6491V11.9171C10.9241 11.7866 10.8985 11.6574 10.8487 11.5369C10.7988 11.4164 10.7257 11.3068 10.6334 11.2146C10.5412 11.1224 10.4317 11.0492 10.3111 10.9994C10.1906 10.9495 10.0614 10.9239 9.93099 10.9241H7.94499C7.81455 10.9239 7.68536 10.9495 7.56483 10.9994C7.44429 11.0492 7.33477 11.1224 7.24254 11.2146C7.1503 11.3068 7.07716 11.4164 7.02731 11.5369C6.97745 11.6574 6.95185 11.7866 6.95199 11.9171V14.6481C6.95199 14.8111 6.91985 14.9726 6.85742 15.1232C6.795 15.2738 6.7035 15.4107 6.58815 15.5259C6.47281 15.6412 6.33588 15.7326 6.1852 15.7949C6.03452 15.8572 5.87304 15.8892 5.70999 15.8891H3.97499C3.92799 15.8891 3.88199 15.8891 3.83499 15.8831C3.78799 15.8771 3.76099 15.8891 3.72299 15.8891H3.22299C2.89385 15.8891 2.5782 15.7583 2.34547 15.5256C2.11273 15.2928 1.98199 14.9772 1.98199 14.6481V11.1721C1.98199 11.1441 1.98199 11.1131 1.98199 11.0851V8.92506H0.994985C0.863485 8.92655 0.733019 8.90166 0.6113 8.85187C0.489581 8.80208 0.379077 8.72839 0.28632 8.63517C0.193562 8.54195 0.120432 8.43107 0.0712517 8.30911C0.0220715 8.18714 -0.00216131 8.05655 -1.45297e-05 7.92506C-0.00231368 7.78615 0.0241259 7.64827 0.0776447 7.52006C0.131163 7.39186 0.210606 7.2761 0.310985 7.18006L8.26699 0.24906C8.35704 0.162032 8.46437 0.0948959 8.58203 0.0520012C8.69969 0.0091065 8.82505 -0.00858961 8.94999 5.95411e-05C9.18501 -0.00251522 9.41404 0.0742951 9.59999 0.21806L17.523 7.18506C17.6385 7.27 17.7304 7.38298 17.7901 7.51335C17.8497 7.64371 17.8752 7.78713 17.864 7.93006" fill="#7B7B7B"/>
<path d="M17.869 7.92906C17.869 8.19307 17.7646 8.44637 17.5786 8.6337C17.3925 8.82104 17.14 8.92721 16.876 8.92906H15.883L15.905 13.8981C15.9044 13.982 15.899 14.0658 15.889 14.1491V14.6491C15.889 14.9782 15.7582 15.2938 15.5255 15.5266C15.2928 15.7593 14.9771 15.8901 14.648 15.8901H14.148C14.114 15.8901 14.08 15.8621 14.048 15.8901C14.005 15.8651 13.961 15.8901 13.918 15.8901H12.165C11.8359 15.8901 11.5202 15.7593 11.2875 15.5266C11.0547 15.2938 10.924 14.9782 10.924 14.6491V11.9171C10.9241 11.7866 10.8985 11.6574 10.8487 11.5369C10.7988 11.4164 10.7257 11.3068 10.6334 11.2146C10.5412 11.1224 10.4317 11.0492 10.3111 10.9994C10.1906 10.9495 10.0614 10.9239 9.93099 10.9241H7.94499C7.81455 10.9239 7.68536 10.9495 7.56483 10.9994C7.44429 11.0492 7.33477 11.1224 7.24254 11.2146C7.1503 11.3068 7.07716 11.4164 7.02731 11.5369C6.97745 11.6574 6.95185 11.7866 6.95199 11.9171V14.6481C6.95199 14.8111 6.91985 14.9726 6.85742 15.1232C6.795 15.2738 6.7035 15.4107 6.58815 15.5259C6.47281 15.6412 6.33588 15.7326 6.1852 15.7949C6.03452 15.8572 5.87304 15.8892 5.70999 15.8891H3.97499C3.92799 15.8891 3.88199 15.8891 3.83499 15.8831C3.78799 15.8771 3.76099 15.8891 3.72299 15.8891H3.22299C2.89385 15.8891 2.5782 15.7583 2.34547 15.5256C2.11273 15.2928 1.98199 14.9772 1.98199 14.6481V11.1721C1.98199 11.1441 1.98199 11.1131 1.98199 11.0851V8.92506H0.994985C0.863485 8.92655 0.733019 8.90166 0.6113 8.85187C0.489581 8.80208 0.379077 8.72839 0.28632 8.63517C0.193562 8.54195 0.120432 8.43107 0.0712517 8.30911C0.0220715 8.18714 -0.00216131 8.05655 -1.45297e-05 7.92506C-0.00231368 7.78615 0.0241259 7.64827 0.0776447 7.52006C0.131163 7.39186 0.210606 7.2761 0.310985 7.18006L8.26699 0.24906C8.35704 0.162032 8.46437 0.0948959 8.58203 0.0520012C8.69969 0.0091065 8.82505 -0.00858961 8.94999 5.95411e-05C9.18501 -0.00251522 9.41404 0.0742951 9.59999 0.21806L17.523 7.18506C17.6385 7.27 17.7304 7.38298 17.7901 7.51335C17.8497 7.64371 17.8752 7.78713 17.864 7.93006" stroke="#707070"/>
</g>
</g>
</g>
</g>
</g>
</svg>
