<svg width="14" height="14" viewBox="0 0 14 14" fill="none" xmlns="http://www.w3.org/2000/svg">
<g id="fa-regular fa-envelope">
<g id="Clip path group">
<mask id="mask0_1_97" style="mask-type:luminance" maskUnits="userSpaceOnUse" x="0" y="0" width="14" height="14">
<g id="clip-path-2">
<path id="Rectangle 6805" d="M14 0H0V14H14V0Z" fill="white"/>
</g>
</mask>
<g mask="url(#mask0_1_97)">
<g id="Group 47491">
<path id="Path 100241" d="M8 1.00022C8 0.735006 8.10536 0.480652 8.29289 0.293115C8.48043 0.105579 8.73478 0.000222062 9 0.000222062H12.972C13.1121 -0.00269594 13.2513 0.0231711 13.381 0.0762221C13.4986 0.132843 13.6079 0.205171 13.706 0.291222C13.8839 0.485877 13.988 0.736769 14 1.00022V5.00022C14 5.26544 13.8946 5.51979 13.7071 5.70733C13.5196 5.89487 13.2652 6.00022 13 6.00022C12.7348 6.00022 12.4804 5.89487 12.2929 5.70733C12.1054 5.51979 12 5.26544 12 5.00022V3.41622L6.706 8.70622C6.51549 8.87652 6.26701 8.96743 6.01157 8.96028C5.75614 8.95313 5.51313 8.84847 5.33244 8.66778C5.15175 8.48709 5.04709 8.24408 5.03994 7.98865C5.03279 7.73322 5.1237 7.48474 5.294 7.29422L10.584 2.00022H9C8.73478 2.00022 8.48043 1.89487 8.29289 1.70733C8.10536 1.51979 8 1.26544 8 1.00022ZM0 3.00022C0 2.46979 0.210714 1.96108 0.585786 1.58601C0.960859 1.21094 1.46957 1.00022 2 1.00022H5C5.26522 1.00022 5.51957 1.10558 5.70711 1.29312C5.89464 1.48065 6 1.73501 6 2.00022C6 2.26544 5.89464 2.51979 5.70711 2.70733C5.51957 2.89487 5.26522 3.00022 5 3.00022H2V12.0002H11V9.00022C11 8.73501 11.1054 8.48065 11.2929 8.29312C11.4804 8.10558 11.7348 8.00022 12 8.00022C12.2652 8.00022 12.5196 8.10558 12.7071 8.29312C12.8946 8.48065 13 8.73501 13 9.00022V12.0002C13 12.5307 12.7893 13.0394 12.4142 13.4144C12.0391 13.7895 11.5304 14.0002 11 14.0002H2C1.46957 14.0002 0.960859 13.7895 0.585786 13.4144C0.210714 13.0394 0 12.5307 0 12.0002V3.00022Z" fill="#AFAFAF" stroke="#707070"/>
</g>
</g>
</g>
</g>
</svg>
