<svg width="19" height="19" viewBox="0 0 19 19" fill="none" xmlns="http://www.w3.org/2000/svg">
<g id="fa-solid fa-magnifying-glass">
<g id="Clip path group">
<mask id="mask0_1_82" style="mask-type:luminance" maskUnits="userSpaceOnUse" x="0" y="0" width="19" height="19">
<g id="clip-path">
<path id="Rectangle 6807" d="M18.311 0.686035H0V18.999H18.311V0.686035Z" fill="white"/>
</g>
</mask>
<g mask="url(#mask0_1_82)">
<g id="Group 47495">
<path id="Path 100243" d="M17.893 16.5551L13.612 12.2741C14.642 10.7392 15.0636 8.8758 14.7947 7.04702C14.5258 5.21823 13.5857 3.55505 12.1576 2.38153C10.7294 1.20802 8.91554 0.608236 7.06933 0.699054C5.22312 0.789873 3.47684 1.56479 2.17076 2.8728C0.864683 4.18082 0.0923588 5.92824 0.00427626 7.77459C-0.0838063 9.62093 0.518662 11.4339 1.69429 12.8603C2.86992 14.2868 4.5345 15.2244 6.36368 15.4905C8.19286 15.7567 10.0556 15.3323 11.589 14.3001L15.87 18.5811C16.1409 18.8382 16.5016 18.9793 16.875 18.9743C17.2485 18.9692 17.6052 18.8185 17.8691 18.5542C18.133 18.2899 18.2832 17.933 18.2877 17.5595C18.2921 17.1861 18.1505 16.8256 17.893 16.5551ZM2.829 8.1251C2.829 7.21965 3.0975 6.33454 3.60053 5.5817C4.10357 4.82885 4.81855 4.24207 5.65508 3.89558C6.4916 3.54908 7.41208 3.45842 8.30012 3.63506C9.18817 3.8117 10.0039 4.24772 10.6441 4.88796C11.2844 5.52821 11.7204 6.34393 11.897 7.23197C12.0737 8.12002 11.983 9.0405 11.6365 9.87702C11.29 10.7135 10.7032 11.4285 9.9504 11.9316C9.19755 12.4346 8.31244 12.7031 7.407 12.7031C6.19324 12.7018 5.02958 12.219 4.17133 11.3608C3.31307 10.5025 2.83032 9.33885 2.829 8.1251Z" fill="#7B7B7B" stroke="#707070"/>
</g>
</g>
</g>
</g>
</svg>
