<svg width="20" height="15" viewBox="0 0 20 15" fill="none" xmlns="http://www.w3.org/2000/svg">
<g id="fa-solid fa-arrow-up-right-from-square">
<g id="Clip path group">
<mask id="mask0_1_103" style="mask-type:luminance" maskUnits="userSpaceOnUse" x="0" y="0" width="20" height="15">
<g id="clip-path-3">
<path id="Rectangle 6806" d="M20 0H0V15H20V0Z" fill="white"/>
</g>
</mask>
<g mask="url(#mask0_1_103)">
<g id="Group 47493">
<path id="Path 100242" d="M0 2.5C0 1.83696 0.263392 1.20107 0.732233 0.732233C1.20107 0.263392 1.83696 0 2.5 0L17.5 0C18.163 0 18.7989 0.263392 19.2678 0.732233C19.7366 1.20107 20 1.83696 20 2.5V12.5C20 13.163 19.7366 13.7989 19.2678 14.2678C18.7989 14.7366 18.163 15 17.5 15H2.5C1.83696 15 1.20107 14.7366 0.732233 14.2678C0.263392 13.7989 0 13.163 0 12.5L0 2.5ZM1.875 2.5V3.363L8.613 8.895C9.00341 9.21677 9.49358 9.39273 9.9995 9.39273C10.5054 9.39273 10.9956 9.21677 11.386 8.895L18.124 3.364V2.464C18.1174 2.30063 18.0495 2.14575 17.9339 2.03014C17.8183 1.91452 17.6634 1.84665 17.5 1.84H2.5C2.33622 1.84619 2.18081 1.91402 2.06492 2.02992C1.94902 2.14581 1.88119 2.30121 1.875 2.465V2.5ZM1.875 5.789V12.5C1.87526 12.6657 1.9412 12.8245 2.05835 12.9416C2.1755 13.0588 2.33432 13.1247 2.5 13.125H17.5C17.6656 13.1245 17.8243 13.0585 17.9414 12.9414C18.0585 12.8243 18.1245 12.6656 18.125 12.5V5.789L12.578 10.344C11.8446 10.9408 10.928 11.2667 9.9825 11.2667C9.03699 11.2667 8.12036 10.9408 7.387 10.344L1.875 5.789Z" fill="#AFAFAF" stroke="#707070"/>
</g>
</g>
</g>
</g>
</svg>
